<?xml version="1.0" encoding="UTF-8" standalone="no"?>
<svg
   xmlns:dc="http://purl.org/dc/elements/1.1/"
   xmlns:cc="http://creativecommons.org/ns#"
   xmlns:rdf="http://www.w3.org/1999/02/22-rdf-syntax-ns#"
   xmlns:svg="http://www.w3.org/2000/svg"
   xmlns="http://www.w3.org/2000/svg"
   xmlns:sodipodi="http://sodipodi.sourceforge.net/DTD/sodipodi-0.dtd"
   xmlns:inkscape="http://www.inkscape.org/namespaces/inkscape"
   xml:space="preserve"
   enable-background="new 0 0 337.6 85"
   viewBox="0 0 337.6 106"
   y="0px"
   x="0px"
   id="Warstwa_1"
   version="1.1"
   sodipodi:docname="16_sesja_logo_data_eng_org.svg"
   width="337.60001"
   height="106"
   inkscape:version="0.92.3 (2405546, 2018-03-11)"><sodipodi:namedview
   pagecolor="#ffffff"
   bordercolor="#666666"
   borderopacity="1"
   objecttolerance="10"
   gridtolerance="10"
   guidetolerance="10"
   inkscape:pageopacity="0"
   inkscape:pageshadow="2"
   inkscape:window-width="1853"
   inkscape:window-height="1025"
   id="namedview47"
   showgrid="false"
   inkscape:zoom="3.3344608"
   inkscape:cx="231.99291"
   inkscape:cy="46.935753"
   inkscape:window-x="67"
   inkscape:window-y="27"
   inkscape:window-maximized="1"
   inkscape:current-layer="g78" /><metadata
   id="metadata85"><rdf:RDF><cc:Work
       rdf:about=""><dc:format>image/svg+xml</dc:format><dc:type
         rdf:resource="http://purl.org/dc/dcmitype/StillImage" /><dc:title></dc:title></cc:Work></rdf:RDF></metadata><defs
   id="defs83" />
<g
   id="g78"
   transform="translate(0,21)">
	<path
   id="path2"
   d="m 27.934824,-9.4153285 c -18.6000008,0 -27.90000082,9.30000004 -27.90000082,27.9000005 v 45.1 H 72.934824 V -9.4153285 Z"
   inkscape:connector-curvature="0"
   style="clip-rule:evenodd;fill:#388e92;fill-rule:evenodd" />
	<path
   id="path4"
   d="m 313.83482,57.484672 c 0,0 8.8,-0.2 9.9,6.1 h -4.1 c 0,0 -0.2,2.6 -0.8,3.7 l -5.7,-3 v 3 c 0,0 -5.3,-0.9 -5.4,-5.7 -0.2,-4.8 6.1,-4.1 6.1,-4.1 z"
   inkscape:connector-curvature="0"
   style="clip-rule:evenodd;fill:#eac716;fill-rule:evenodd" />
	<path
   id="path6"
   d="m 313.83482,57.484672 c 0,0 8.8,-0.2 9.9,6.1 h -4.1 c 0,0 -0.2,2.6 -0.8,3.7 l -5.7,-3 v 3 c 0,0 -5.3,-0.9 -5.4,-5.7 -0.2,-4.8 6.1,-4.1 6.1,-4.1 z"
   stroke-miterlimit="22.9256"
   inkscape:connector-curvature="0"
   style="fill:none;stroke:#000003;stroke-width:0.0649;stroke-miterlimit:22.92560005" />
	<path
   id="path8"
   d="m 287.13482,57.484672 c 0,0 -10.2,-0.2 -11.5,6.1 h 4.8 c 0,0 0.2,2.6 0.9,3.7 l 6.7,-3 v 3 c 0,0 6.1,-0.9 6.3,-5.7 0.2,-4.8 -7.2,-4.1 -7.2,-4.1 z"
   inkscape:connector-curvature="0"
   style="clip-rule:evenodd;fill:#eac716;fill-rule:evenodd" />
	<path
   id="path10"
   d="m 287.13482,57.484672 c 0,0 -10.2,-0.2 -11.5,6.1 h 4.8 c 0,0 0.2,2.6 0.9,3.7 l 6.7,-3 v 3 c 0,0 6.1,-0.9 6.3,-5.7 0.2,-4.8 -7.2,-4.1 -7.2,-4.1 z"
   stroke-miterlimit="22.9256"
   inkscape:connector-curvature="0"
   style="fill:none;stroke:#000003;stroke-width:0.0649;stroke-miterlimit:22.92560005" />
	<path
   id="path12"
   d="m 300.23482,-6.8153285 c -1.9,0 -17.4,0.7 -22,16.9000005 -2.1,7.4 -2.4,9.1 -2.4,9.9 0,0 0,1.3 0,1.3 -7.2,5.4 -9.9,12.9 -6.7,22.9 0,0 3.2,-9.5 5.7,-9.5 0,0 -3,28.1 27.1,27.6 29.2,0 27.7,-27.6 27.7,-27.6 2.9,0 6.5,9.9 6.5,9.9 5.6,-15 -5.3,-20.6 -7.6,-24.5 0,0 0,-0.1 -0.1,-0.1 0.1,-0.4 -0.4,-2.6 -2.9,-9.9 -5.9,-17.3000005 -25.1,-16.9000005 -25.1,-16.9000005 0,0 -0.1,0 -0.2,0 z"
   inkscape:connector-curvature="0"
   style="clip-rule:evenodd;fill:#000002;fill-rule:evenodd" />
	<path
   id="path14"
   d="m 324.53482,31.984672 c 0,0 8.5,-1 11.6,9.5 0,0 4.7,-8.7 -9.3,-20.5 0,0 -1.3,-28.4000005 -29.1,-27.0000005 V 49.684672 c 0,0 24.1,5.6 26.8,-17.7 z"
   inkscape:connector-curvature="0"
   style="clip-rule:evenodd;fill:#1d333f;fill-rule:evenodd" />
	<path
   id="path16"
   d="m 279.03482,31.984672 c 0,0 -7.2,-1 -9.8,9.5 0,0 -4.4,-10.5 7.8,-19.3 0,0 1.1,-29.6000005 24.5,-28.1000005 V 49.784672 c 0.1,-0.1 -20.3,5.5 -22.5,-17.8 z"
   inkscape:connector-curvature="0"
   style="clip-rule:evenodd;fill:#1d333f;fill-rule:evenodd" />
	<path
   id="path18"
   d="m 288.03482,24.384672 c 0,0 22.6,-0.7 26.8,0 0,0 6.7,4.2 6.7,17.1 0,6.2 -4.2,17.6 -21.1,17.6 0,0 -18.1,-0.9 -18.1,-17.6 -0.1,0 -1.7,-10.1 5.7,-17.1"
   inkscape:connector-curvature="0"
   style="clip-rule:evenodd;fill:#e0e6e9;fill-rule:evenodd" />
	<path
   id="path20"
   d="m 288.03482,24.384672 c 0,0 20.8,-1 25.1,-0.3 0,0 8.2,2.9 8.2,14.1 0,3.6 -3.6,14.3 -19.7,14.3 0,0 -19.5,0.2 -19.5,-14.3 0,0 -0.4,-8.6 5.9,-13.8 z"
   inkscape:connector-curvature="0"
   style="clip-rule:evenodd;fill:#ffffff;fill-rule:evenodd" />
	<path
   id="path22"
   d="m 294.73482,23.584672 c 0,0 7.1,-3.1 14.2,0 0,0 -5.6,7.4 -7.1,7.4 -0.9,0 -4.9,-3 -7.1,-7.4"
   inkscape:connector-curvature="0"
   style="clip-rule:evenodd;fill:#9ba4ae;fill-rule:evenodd" />
	<path
   id="path24"
   d="m 293.23482,23.584672 c 0,0 7.1,-3.1 14.2,0 0,0 -5.6,7.4 -7.1,7.4 -0.9,0 -4.9,-3 -7.1,-7.4"
   inkscape:connector-curvature="0"
   style="clip-rule:evenodd;fill:#000003;fill-rule:evenodd" />
	<path
   id="path26"
   d="m 301.43482,11.084672 c 0,0 -9.7,-4.5000002 -14.5,-4.9000002 -4.7,-0.3 -10.5,11.3000002 -3,16.7000002 6.3,4.5 12,1.3 17.4,-0.6 0,0 6.5,3.3 12.9,2.4 8.9,-1.2 11.7,-19.1000002 1.4,-18.3000002 0.1,0 -5.5,-1.8 -14.2,4.7000002 z"
   inkscape:connector-curvature="0"
   style="clip-rule:evenodd;fill:#000002;fill-rule:evenodd" />
	<path
   id="path28"
   d="m 299.93482,13.984672 c 0,0 -12.1,-4.8000001 -14,-5.2000001 0,0 -4.3,8.1000001 3.6,11.5000001 0,0 7.4,2.6 10.4,-6.3 z"
   inkscape:connector-curvature="0"
   style="clip-rule:evenodd;fill:#ffffff;fill-rule:evenodd" />
	<path
   id="path30"
   d="m 317.23482,8.6846719 c 0,0 -12.3,4.5000001 -13.9,5.5000001 0,0 2.2,8.9 10.3,6.2 0,-0.1 7.3,-3.1 3.6,-11.7000001 z"
   inkscape:connector-curvature="0"
   style="clip-rule:evenodd;fill:#ffffff;fill-rule:evenodd" />
	<path
   id="path32"
   d="m 286.93482,5.9846718 c 0,0 9,2.4000001 14.1,5.0000002 0,0 11.2,-4.8000002 14.7,-4.8000002 0,0 -0.1,-11.3000003 -15.4,-11.3000003 -0.1,0 -13.4,1 -13.4,11.1000003 z"
   inkscape:connector-curvature="0"
   style="clip-rule:evenodd;fill:#4d5b5c;fill-rule:evenodd" />
	<path
   id="path34"
   d="m 293.23482,22.184672 c 0,0 7.1,-3.1 14.2,0 0,0 -5.6,7.4 -7.1,7.4 -0.9,0 -4.9,-3 -7.1,-7.4 z"
   inkscape:connector-curvature="0"
   style="clip-rule:evenodd;fill:#eac716;fill-rule:evenodd" />
	<path
   id="path36"
   d="m 293.23482,22.184672 c 0,0 7.1,-3.1 14.2,0 0,0 -5.6,7.4 -7.1,7.4 -0.9,0 -4.9,-3 -7.1,-7.4 z"
   stroke-miterlimit="22.9256"
   inkscape:connector-curvature="0"
   style="fill:none;stroke:#000003;stroke-width:0.0649;stroke-miterlimit:22.92560005" />
	<path
   id="path38"
   d="m 297.13482,14.084672 c 0,1.7 -1.4,3.1 -3.1,3.1 -1.7,0 -3.1,-1.4 -3.1,-3.1 0,-1.7 1.4,-3.1 3.1,-3.1 1.7,0 3.1,1.4 3.1,3.1"
   inkscape:connector-curvature="0"
   style="clip-rule:evenodd;fill:#000002;fill-rule:evenodd" />
	<path
   id="path40"
   d="m 312.73482,14.084672 c 0,1.7 -1.4,3.1 -3.1,3.1 -1.7,0 -3.1,-1.4 -3.1,-3.1 0,-1.7 1.4,-3.1 3.1,-3.1 1.7,0 3.1,1.4 3.1,3.1"
   inkscape:connector-curvature="0"
   style="clip-rule:evenodd;fill:#000002;fill-rule:evenodd" />
	<path
   id="path42"
   d="m 297.13482,13.184672 c 0,0.6 -0.5,1.1 -1.1,1.1 -0.6,0 -1.1,-0.5 -1.1,-1.1 0,-0.6 0.5,-1.1 1.1,-1.1 0.6,0 1.1,0.5 1.1,1.1"
   inkscape:connector-curvature="0"
   style="clip-rule:evenodd;fill:#ffffff;fill-rule:evenodd" />
	<path
   id="path44"
   d="m 311.63482,12.084672 c 0,0.6 -0.5,1.1 -1.1,1.1 -0.6,0 -1.1,-0.5 -1.1,-1.1 0,-0.6 0.5,-1.1 1.1,-1.1 0.7,0 1.1,0.5 1.1,1.1"
   inkscape:connector-curvature="0"
   style="clip-rule:evenodd;fill:#ffffff;fill-rule:evenodd" />
	<path
   id="path46"
   d="m 300.73482,22.884672 c 0,0 -3.3,-0.6 -5,0.9 l 3.5,3.8 z"
   inkscape:connector-curvature="0"
   style="clip-rule:evenodd;fill:#ffffff;fill-rule:evenodd" />
	<path
   id="path48"
   d="m 277.03482,22.184672 c 0,0 2.4,-1.5 3.3,0 0.9,1.5 -10.9,9.5 -11.1,19.3 0,0 -0.2,1.1 -0.5,-1.7 -0.2,-2.9 -1.9,-10.2 8.3,-17.6 z"
   inkscape:connector-curvature="0"
   style="clip-rule:evenodd;fill:#4d5b5c;fill-rule:evenodd" />
	<path
   id="path50"
   d="m 326.83482,20.984672 c 0,0 -1.7,-0.3 -2.8,1.1 -1,1.5 11.9,9.5 12.1,19.3 0,0 0.2,1.1 0.5,-1.7 0.3,-2.8 1.3,-11.3 -9.8,-18.7 z"
   inkscape:connector-curvature="0"
   style="clip-rule:evenodd;fill:#4d5b5c;fill-rule:evenodd" />
	
	<path
   id="path54"
   d="m 81.934824,-17.715328 h 3.9 c 1,0 1.9,0.3 2.6,1 0.7,0.7 1.1,1.5 1.1,2.5 v 33.6 h -7.6 z"
   inkscape:connector-curvature="0"
   style="fill:#388e92" />
	<path
   id="path56"
   d="m 94.134824,-17.715328 h 3.9 c 1,0 1.900001,0.4 2.599996,1.1 0.7,0.7 1.1,1.6 1.1,2.6 v 2.3 h -7.599996 z m 0,8.3999995 h 3.9 c 1,0 1.900001,0.4 2.599996,1.1 0.7,0.7 1.1,1.6 1.1,2.6 V 19.484672 h -7.599996 z"
   inkscape:connector-curvature="0"
   style="fill:#388e92" />
	<path
   id="path58"
   d="m 129.83482,19.384672 h -3.8 c -1.1,0 -2,-0.3 -2.7,-1 -0.7,-0.7 -1,-1.6 -1,-2.6 V 1.0846715 c 0,-1.69999996 -0.5,-3 -1.6,-3.8 -1,-0.8 -2.2,-1.2 -3.5,-1.2 -1.3,0 -2.4,0.4 -3.5,1.2 -1,0.8 -1.5,2.00000004 -1.5,3.8 V 19.484672 h -7.6 V 2.5846715 c 0,-4.9 1.3,-8.2 3.8,-9.8 2.6,-1.7 5.4,-2.6 8.5,-2.7 3.2,0 6.1,0.8 8.7,2.5 2.7,1.6 4,5 4,10 V 19.384672 Z"
   inkscape:connector-curvature="0"
   style="fill:#388e92" />
	<path
   id="path60"
   d="M 158.83482,-9.3153285 V 7.4846718 c 0,5.1000002 -1.3,8.5000002 -4,10.0000002 -2.7,1.6 -5.6,2.4 -8.7,2.4 -3.1,-0.1 -5.9,-1 -8.5,-2.6 -2.6,-1.6 -3.8,-4.9 -3.8,-9.8000002 V -9.3153285 h 7.6 V 9.0846719 c 0,1.7000001 0.5,3.0000001 1.5,3.8000001 1,0.8 2.2,1.2 3.5,1.2 1.3,0 2.5,-0.4 3.5,-1.2 1.1,-0.8 1.6,-2 1.6,-3.8000001 V -5.6153285 c 0,-1 0.3,-1.9 1,-2.6 0.7,-0.7 1.6,-1.1 2.7,-1.1 z"
   inkscape:connector-curvature="0"
   style="fill:#388e92" />
	<path
   id="path62"
   d="m 190.53482,19.384672 h -8.6 l -5.1,-9.1 -5.3,9.1 h -8.7 l 9.4,-14.8000002 -8.9,-13.9000003 h 8.3 l 5,8.60000004 5.5,-9.29999954 c 0.6,-1.3 1.7,-1.9 3.2,-1.9 h 6.5 l -10.8,16.6999998 z"
   inkscape:connector-curvature="0"
   style="fill:#388e92" />
	<path
   id="path64"
   d="m 77.534824,53.584672 h 7.3 c 0.1,1.4 0.6,2.5 1.6,3.2 1.1,0.7 2.5,1.1 4.3,1.1 1.3,0 2.4,-0.3 3.3,-0.8 0.9,-0.5 1.3,-1.2 1.3,-2.1 0,-1.3 -1.5,-2.3 -4.5,-2.9 -1.3,-0.2 -2.3,-0.4 -2.9,-0.6 -3.8,-0.9 -6.4,-2.1 -7.7,-3.3 -1.4,-1.3 -2.2,-3 -2.2,-5.2 0,-2.7 1,-5 3.1,-6.8 2.2,-1.7 5,-2.5 8.4,-2.5 3.7,0 6.7,0.8 9,2.5 2.099996,1.8 3.199996,4.1 3.299996,7 h -4.599996 c -1.4,0 -2.4,-0.6 -3.1,-1.8 -0.3,-0.3 -0.6,-0.6 -0.9,-0.9 -0.9,-0.6 -2,-1 -3.6,-1 -1.4,0 -2.5,0.2 -3.2,0.6 -0.6,0.4 -1,1.1 -1,1.9 0,1.2 1.9,2.1 5.6,2.9 0.4,0.1 0.8,0.2 1.1,0.3 0.3,0.1 0.6,0.1 0.9,0.1 3.7,0.9 6.2,2 7.699996,3.2 1.4,1.3 2,3 2,5.2 0,3.2 -1.2,5.6 -3.499996,7.3 -2.2,1.6 -5.4,2.4 -9.7,2.4 -4.1,0 -7.2,-0.8 -9.2,-2.5 -2.1,-1.6 -3.1,-4.1 -3.1,-7.2 v -0.1 z"
   inkscape:connector-curvature="0"
   style="fill:#1d333f" />
	<path
   id="path66"
   d="m 114.03482,45.784672 h 11 c -0.1,-1.9 -0.6,-3.4 -1.5,-4.3 -0.9,-1 -2.3,-1.5 -4,-1.5 -1.6,0 -2.9,0.5 -3.9,1.5 -1,1 -1.5,2.4 -1.6,4.3 m 12.9,8.4 h 5.4 c -0.8,3 -2.3,5.3 -4.5,6.9 -2.2,1.7 -5,2.5 -8.4,2.5 -4.1,0 -7.3,-1.3 -9.6,-4 -2.3,-2.6 -3.5,-6.3 -3.5,-11.1 0,-4.6 1.1,-8.2 3.3,-10.8 2.3,-2.7 5.5,-4 9.6,-4 4.3,0 7.7,1.3 10,3.9 2.3,2.7 3.5,6.4 3.5,11.1 0,0.3 0,0.5 0,0.8 0,0.2 0,0.4 0,0.4 0,0.4 0,0.6 -0.1,0.8 h -18.6 c 0.1,2.2 0.6,3.9 1.6,5 0.9,1.2 2.3,1.7 4.2,1.7 1.2,0 2.3,-0.2 3.1,-0.8 0.2,-0.1 0.4,-0.2 0.6,-0.4 0.2,-0.2 0.4,-0.4 0.6,-0.6 0.1,-0.2 0.3,-0.5 0.8,-0.9 0.5,-0.3 1.2,-0.5 2,-0.5 z"
   inkscape:connector-curvature="0"
   style="fill:#1d333f" />
	<path
   id="path68"
   d="m 136.13482,53.584672 h 7.3 c 0.1,1.4 0.6,2.5 1.6,3.2 1.1,0.7 2.5,1.1 4.3,1.1 1.3,0 2.4,-0.3 3.3,-0.8 0.9,-0.5 1.3,-1.2 1.3,-2.1 0,-1.3 -1.5,-2.3 -4.5,-2.9 -1.3,-0.2 -2.3,-0.4 -2.9,-0.6 -3.8,-0.9 -6.4,-2.1 -7.7,-3.3 -1.4,-1.3 -2.2,-3 -2.2,-5.2 0,-2.7 1,-5 3.1,-6.8 2.2,-1.7 5,-2.5 8.4,-2.5 3.7,0 6.7,0.8 9,2.5 2.1,1.8 3.2,4.1 3.3,7 h -4.4 c -1.4,0 -2.4,-0.6 -3.1,-1.8 -0.3,-0.3 -0.6,-0.6 -0.9,-0.9 -0.9,-0.6 -2,-1 -3.6,-1 -1.4,0 -2.5,0.2 -3.2,0.6 -0.6,0.4 -1,1.1 -1,1.9 0,1.2 1.9,2.1 5.6,2.9 0.4,0.1 0.8,0.2 1.1,0.3 0.3,0.1 0.6,0.1 0.9,0.1 3.7,0.9 6.2,2 7.7,3.2 1.4,1.3 2,3 2,5.2 0,3.2 -1.2,5.6 -3.5,7.3 -2.2,1.6 -5.4,2.4 -9.7,2.4 -4.1,0 -7.2,-0.8 -9.2,-2.5 -2.1,-1.6 -3.1,-4.1 -3.1,-7.2 v -0.1 z"
   inkscape:connector-curvature="0"
   style="fill:#1d333f" />
	<path
   id="path70"
   d="m 164.93482,53.584672 h 7.3 c 0.1,1.4 0.6,2.5 1.6,3.2 1.1,0.7 2.5,1.1 4.3,1.1 1.3,0 2.4,-0.3 3.3,-0.8 0.9,-0.5 1.3,-1.2 1.3,-2.1 0,-1.3 -1.5,-2.3 -4.5,-2.9 -1.3,-0.2 -2.3,-0.4 -2.9,-0.6 -3.8,-0.9 -6.4,-2.1 -7.7,-3.3 -1.4,-1.3 -2.2,-3 -2.2,-5.2 0,-2.7 1,-5 3.1,-6.8 2.2,-1.7 5,-2.5 8.4,-2.5 3.7,0 6.7,0.8 9,2.5 2.1,1.8 3.2,4.1 3.3,7 h -4.6 c -1.4,0 -2.4,-0.6 -3.1,-1.8 -0.3,-0.3 -0.6,-0.6 -0.9,-0.9 -0.9,-0.6 -2,-1 -3.6,-1 -1.4,0 -2.5,0.2 -3.2,0.6 -0.6,0.4 -1,1.1 -1,1.9 0,1.2 1.9,2.1 5.6,2.9 0.4,0.1 0.8,0.2 1.1,0.3 0.3,0.1 0.6,0.1 0.9,0.1 3.7,0.9 6.2,2 7.7,3.2 1.4,1.3 2,3 2,5.2 0,3.2 -1.2,5.6 -3.5,7.3 -2.2,1.6 -5.4,2.4 -9.7,2.4 -4.1,0 -7.2,-0.8 -9.2,-2.5 -2.1,-1.6 -3.1,-4.1 -3.1,-7.2 v -0.1 z"
   inkscape:connector-curvature="0"
   style="fill:#1d333f" />
	<path
   id="path72"
   d="m 194.93482,25.884672 h 3.9 c 1,0 1.9,0.4 2.6,1.1 0.7,0.7 1.1,1.6 1.1,2.6 v 2.3 h -7.6 z m 0,8.4 h 3.9 c 1,0 1.9,0.4 2.6,1.1 0.7,0.7 1.1,1.6 1.1,2.6 v 25.1 h -7.6 z"
   inkscape:connector-curvature="0"
   style="fill:#1d333f" />
	<path
   id="path74"
   d="m 214.33482,41.484672 c -1.5,1.7 -2.2,4.1 -2,7.4 0.1,3.3 0.8,5.6 1.8,6.9 0.4,0.6 1.2,1.1 2.3,1.5 1.1,0.4 2.2,0.4 3.3,0.1 1.1,-0.3 2.1,-1.1 3,-2.4 0.9,-1.3 1.3,-3.4 1.4,-6.3 0,-2.6 -0.4,-4.5 -1.2,-5.8 -0.8,-1.3 -1.8,-2.1 -2.9,-2.5 -1.1,-0.4 -2.2,-0.4 -3.2,-0.1 -1.2,0.3 -2,0.7 -2.5,1.2 m -5.1,19 c -1.5,-1.3 -2.6,-3 -3.2,-5.2 -0.6,-2.2 -1,-4.5 -1,-6.9 0,-1.9 0.3,-3.9 0.8,-5.8 0.5,-1.9 1.4,-3.6 2.5,-4.9 1.9,-2.2 4.3,-3.4 7.2,-3.8 2.9,-0.4 5.6,-0.2 8,0.7 2.7,1.1 4.8,3 6.1,5.6 1.2,2.4 1.8,5.1 1.8,8.3 0,2.3 -0.3,4.3 -0.8,5.9 -0.5,1.7 -1.2,3.1 -1.9,4.2 -1.7,2.4 -3.9,3.8 -6.6,4.4 -2.4,0.6 -4.8,0.7 -7.2,0.2 -2.4,-0.5 -4.3,-1.4 -5.7,-2.7 z"
   inkscape:connector-curvature="0"
   style="fill:#1d333f" />
	<path
   id="path76"
   d="m 260.43482,63.084672 h -3.8 c -1.1,0 -2,-0.3 -2.7,-1 -0.7,-0.7 -1,-1.6 -1,-2.6 v -14.8 c 0,-1.7 -0.5,-3 -1.6,-3.8 -1,-0.8 -2.2,-1.2 -3.5,-1.2 -1.3,0 -2.4,0.4 -3.5,1.2 -1,0.8 -1.5,2 -1.5,3.8 v 18.4 h -7.6 v -16.9 c 0,-4.9 1.3,-8.2 3.8,-9.8 2.6,-1.7 5.4,-2.6 8.5,-2.7 3.2,0 6.1,0.8 8.7,2.5 2.7,1.6 4,5 4,10 v 16.9 z"
   inkscape:connector-curvature="0"
   style="fill:#1d333f" />
<flowRoot
   transform="matrix(1.1657122,0,0,1.1574199,-1.407969,3.3338258)"
   style="font-style:normal;font-weight:normal;font-size:5px;line-height:125%;font-family:sans-serif;letter-spacing:0px;word-spacing:0px;fill:#000000;fill-opacity:1;stroke:none;stroke-width:1px;stroke-linecap:butt;stroke-linejoin:miter;stroke-opacity:1"
   id="flowRoot87"
   xml:space="preserve"><flowRegion
     id="flowRegion89"><rect
       y="22.021303"
       x="7.6474133"
       height="50.233009"
       width="61.179306"
       id="rect91" /></flowRegion><flowPara
     style="font-style:normal;font-variant:normal;font-weight:normal;font-stretch:normal;font-size:64px;font-family:Harabara;-inkscape-font-specification:Harabara;letter-spacing:3.88271403px;fill:#ffffff"
     id="flowPara93">16</flowPara></flowRoot><flowRoot
   xml:space="preserve"
   id="flowRoot49"
   style="font-style:normal;font-weight:normal;font-size:5px;line-height:125%;font-family:sans-serif;letter-spacing:0px;word-spacing:0px;fill:#000000;fill-opacity:1;stroke:none;stroke-width:1px;stroke-linecap:butt;stroke-linejoin:miter;stroke-opacity:1"
   transform="translate(3.3929649,-16.341354)"><flowRegion
     id="flowRegion51"><rect
       id="rect53"
       width="218.63417"
       height="22.690453"
       x="73.160805"
       y="89.91658" /></flowRegion><flowPara
     id="flowPara55"
     style="font-size:11.33333302px">6-7th April 2019 | Wroclaw, Poland</flowPara></flowRoot></g>
</svg>