<?xml version="1.0" encoding="UTF-8" standalone="no"?>
<!-- Generator: Adobe Illustrator 18.0.0, SVG Export Plug-In . SVG Version: 6.00 Build 0)  -->

<svg
   xmlns:dc="http://purl.org/dc/elements/1.1/"
   xmlns:cc="http://creativecommons.org/ns#"
   xmlns:rdf="http://www.w3.org/1999/02/22-rdf-syntax-ns#"
   xmlns:svg="http://www.w3.org/2000/svg"
   xmlns="http://www.w3.org/2000/svg"
   xmlns:sodipodi="http://sodipodi.sourceforge.net/DTD/sodipodi-0.dtd"
   xmlns:inkscape="http://www.inkscape.org/namespaces/inkscape"
   version="1.1"
   id="Warstwa_1"
   x="0px"
   y="0px"
   viewBox="0 0 337.6 85"
   enable-background="new 0 0 337.6 85"
   xml:space="preserve"
   sodipodi:docname="logo_16_sesja2.svg"
   inkscape:version="0.92.3 (2405546, 2018-03-11)"><metadata
   id="metadata85"><rdf:RDF><cc:Work
       rdf:about=""><dc:format>image/svg+xml</dc:format><dc:type
         rdf:resource="http://purl.org/dc/dcmitype/StillImage" /><dc:title></dc:title></cc:Work></rdf:RDF></metadata><defs
   id="defs83" /><sodipodi:namedview
   pagecolor="#ffffff"
   bordercolor="#666666"
   borderopacity="1"
   objecttolerance="10"
   gridtolerance="10"
   guidetolerance="10"
   inkscape:pageopacity="0"
   inkscape:pageshadow="2"
   inkscape:window-width="1853"
   inkscape:window-height="1025"
   id="namedview81"
   showgrid="false"
   inkscape:zoom="6.6689216"
   inkscape:cx="101.02683"
   inkscape:cy="54.242657"
   inkscape:window-x="67"
   inkscape:window-y="27"
   inkscape:window-maximized="1"
   inkscape:current-layer="g78" />
<g
   id="g78">
	<path
   fill-rule="evenodd"
   clip-rule="evenodd"
   fill="#388E92"
   d="M27.9,8.3C9.3,8.3,0,17.6,0,36.2v45.1h72.9V8.3H27.9z"
   id="path2" />
	<path
   fill-rule="evenodd"
   clip-rule="evenodd"
   fill="#EAC716"
   d="M313.8,75.2c0,0,8.8-0.2,9.9,6.1h-4.1c0,0-0.2,2.6-0.8,3.7l-5.7-3   v3c0,0-5.3-0.9-5.4-5.7C307.5,74.5,313.8,75.2,313.8,75.2z"
   id="path4" />
	<path
   fill="none"
   stroke="#000003"
   stroke-width="6.490000e-002"
   stroke-miterlimit="22.9256"
   d="M313.8,75.2c0,0,8.8-0.2,9.9,6.1   h-4.1c0,0-0.2,2.6-0.8,3.7l-5.7-3v3c0,0-5.3-0.9-5.4-5.7C307.5,74.5,313.8,75.2,313.8,75.2z"
   id="path6" />
	<path
   fill-rule="evenodd"
   clip-rule="evenodd"
   fill="#EAC716"
   d="M287.1,75.2c0,0-10.2-0.2-11.5,6.1h4.8c0,0,0.2,2.6,0.9,3.7l6.7-3   v3c0,0,6.1-0.9,6.3-5.7C294.5,74.5,287.1,75.2,287.1,75.2z"
   id="path8" />
	<path
   fill="none"
   stroke="#000003"
   stroke-width="6.490000e-002"
   stroke-miterlimit="22.9256"
   d="M287.1,75.2   c0,0-10.2-0.2-11.5,6.1h4.8c0,0,0.2,2.6,0.9,3.7l6.7-3v3c0,0,6.1-0.9,6.3-5.7C294.5,74.5,287.1,75.2,287.1,75.2z"
   id="path10" />
	<path
   fill-rule="evenodd"
   clip-rule="evenodd"
   fill="#000002"
   d="M300.2,10.9c-1.9,0-17.4,0.7-22,16.9c-2.1,7.4-2.4,9.1-2.4,9.9   c0,0,0,1.3,0,1.3c-7.2,5.4-9.9,12.9-6.7,22.9c0,0,3.2-9.5,5.7-9.5c0,0-3,28.1,27.1,27.6c29.2,0,27.7-27.6,27.7-27.6   c2.9,0,6.5,9.9,6.5,9.9c5.6-15-5.3-20.6-7.6-24.5c0,0,0-0.1-0.1-0.1c0.1-0.4-0.4-2.6-2.9-9.9c-5.9-17.3-25.1-16.9-25.1-16.9   S300.3,10.9,300.2,10.9z"
   id="path12" />
	<path
   fill-rule="evenodd"
   clip-rule="evenodd"
   fill="#1D333F"
   d="M324.5,49.7c0,0,8.5-1,11.6,9.5c0,0,4.7-8.7-9.3-20.5   c0,0-1.3-28.4-29.1-27v55.7C297.7,67.4,321.8,73,324.5,49.7z"
   id="path14" />
	<path
   fill-rule="evenodd"
   clip-rule="evenodd"
   fill="#1D333F"
   d="M279,49.7c0,0-7.2-1-9.8,9.5c0,0-4.4-10.5,7.8-19.3   c0,0,1.1-29.6,24.5-28.1v55.7C301.6,67.4,281.2,73,279,49.7z"
   id="path16" />
	<path
   fill-rule="evenodd"
   clip-rule="evenodd"
   fill="#E0E6E9"
   d="M288,42.1c0,0,22.6-0.7,26.8,0c0,0,6.7,4.2,6.7,17.1   c0,6.2-4.2,17.6-21.1,17.6c0,0-18.1-0.9-18.1-17.6C282.2,59.2,280.6,49.1,288,42.1"
   id="path18" />
	<path
   fill-rule="evenodd"
   clip-rule="evenodd"
   fill="#FFFFFF"
   d="M288,42.1c0,0,20.8-1,25.1-0.3c0,0,8.2,2.9,8.2,14.1   c0,3.6-3.6,14.3-19.7,14.3c0,0-19.5,0.2-19.5-14.3C282.1,55.9,281.7,47.3,288,42.1L288,42.1z"
   id="path20" />
	<path
   fill-rule="evenodd"
   clip-rule="evenodd"
   fill="#9BA4AE"
   d="M294.7,41.3c0,0,7.1-3.1,14.2,0c0,0-5.6,7.4-7.1,7.4   C300.9,48.7,296.9,45.7,294.7,41.3"
   id="path22" />
	<path
   fill-rule="evenodd"
   clip-rule="evenodd"
   fill="#000003"
   d="M293.2,41.3c0,0,7.1-3.1,14.2,0c0,0-5.6,7.4-7.1,7.4   C299.4,48.7,295.4,45.7,293.2,41.3"
   id="path24" />
	<path
   fill-rule="evenodd"
   clip-rule="evenodd"
   fill="#000002"
   d="M301.4,28.8c0,0-9.7-4.5-14.5-4.9c-4.7-0.3-10.5,11.3-3,16.7   c6.3,4.5,12,1.3,17.4-0.6c0,0,6.5,3.3,12.9,2.4c8.9-1.2,11.7-19.1,1.4-18.3C315.7,24.1,310.1,22.3,301.4,28.8L301.4,28.8z"
   id="path26" />
	<path
   fill-rule="evenodd"
   clip-rule="evenodd"
   fill="#FFFFFF"
   d="M299.9,31.7c0,0-12.1-4.8-14-5.2c0,0-4.3,8.1,3.6,11.5   C289.5,38,296.9,40.6,299.9,31.7z"
   id="path28" />
	<path
   fill-rule="evenodd"
   clip-rule="evenodd"
   fill="#FFFFFF"
   d="M317.2,26.4c0,0-12.3,4.5-13.9,5.5c0,0,2.2,8.9,10.3,6.2   C313.6,38,320.9,35,317.2,26.4z"
   id="path30" />
	<path
   fill-rule="evenodd"
   clip-rule="evenodd"
   fill="#4D5B5C"
   d="M286.9,23.7c0,0,9,2.4,14.1,5c0,0,11.2-4.8,14.7-4.8   c0,0-0.1-11.3-15.4-11.3C300.2,12.6,286.9,13.6,286.9,23.7z"
   id="path32" />
	<path
   fill-rule="evenodd"
   clip-rule="evenodd"
   fill="#EAC716"
   d="M293.2,39.9c0,0,7.1-3.1,14.2,0c0,0-5.6,7.4-7.1,7.4   C299.4,47.3,295.4,44.3,293.2,39.9z"
   id="path34" />
	<path
   fill="none"
   stroke="#000003"
   stroke-width="6.490000e-002"
   stroke-miterlimit="22.9256"
   d="M293.2,39.9c0,0,7.1-3.1,14.2,0   c0,0-5.6,7.4-7.1,7.4C299.4,47.3,295.4,44.3,293.2,39.9z"
   id="path36" />
	<path
   fill-rule="evenodd"
   clip-rule="evenodd"
   fill="#000002"
   d="M297.1,31.8c0,1.7-1.4,3.1-3.1,3.1c-1.7,0-3.1-1.4-3.1-3.1   c0-1.7,1.4-3.1,3.1-3.1C295.7,28.7,297.1,30.1,297.1,31.8"
   id="path38" />
	<path
   fill-rule="evenodd"
   clip-rule="evenodd"
   fill="#000002"
   d="M312.7,31.8c0,1.7-1.4,3.1-3.1,3.1c-1.7,0-3.1-1.4-3.1-3.1   c0-1.7,1.4-3.1,3.1-3.1C311.3,28.7,312.7,30.1,312.7,31.8"
   id="path40" />
	<path
   fill-rule="evenodd"
   clip-rule="evenodd"
   fill="#FFFFFF"
   d="M297.1,30.9c0,0.6-0.5,1.1-1.1,1.1c-0.6,0-1.1-0.5-1.1-1.1   c0-0.6,0.5-1.1,1.1-1.1C296.6,29.8,297.1,30.3,297.1,30.9"
   id="path42" />
	<path
   fill-rule="evenodd"
   clip-rule="evenodd"
   fill="#FFFFFF"
   d="M311.6,29.8c0,0.6-0.5,1.1-1.1,1.1c-0.6,0-1.1-0.5-1.1-1.1   c0-0.6,0.5-1.1,1.1-1.1C311.2,28.7,311.6,29.2,311.6,29.8"
   id="path44" />
	<path
   fill-rule="evenodd"
   clip-rule="evenodd"
   fill="#FFFFFF"
   d="M300.7,40.6c0,0-3.3-0.6-5,0.9l3.5,3.8L300.7,40.6z"
   id="path46" />
	<path
   fill-rule="evenodd"
   clip-rule="evenodd"
   fill="#4D5B5C"
   d="M277,39.9c0,0,2.4-1.5,3.3,0c0.9,1.5-10.9,9.5-11.1,19.3   c0,0-0.2,1.1-0.5-1.7C268.5,54.6,266.8,47.3,277,39.9z"
   id="path48" />
	<path
   fill-rule="evenodd"
   clip-rule="evenodd"
   fill="#4D5B5C"
   d="M326.8,38.7c0,0-1.7-0.3-2.8,1.1c-1,1.5,11.9,9.5,12.1,19.3   c0,0,0.2,1.1,0.5-1.7C336.9,54.6,337.9,46.1,326.8,38.7L326.8,38.7z"
   id="path50" />
	
	<path
   fill="#388E92"
   d="M81.9,0h3.9c1,0,1.9,0.3,2.6,1c0.7,0.7,1.1,1.5,1.1,2.5v33.6h-7.6V0z"
   id="path54" />
	<path
   fill="#388E92"
   d="M94.1,0H98c1,0,1.9,0.4,2.6,1.1c0.7,0.7,1.1,1.6,1.1,2.6v2.3h-7.6V0z M94.1,8.4H98c1,0,1.9,0.4,2.6,1.1   c0.7,0.7,1.1,1.6,1.1,2.6v25.1h-7.6V8.4z"
   id="path56" />
	<path
   fill="#388E92"
   d="M129.8,37.1h-3.8c-1.1,0-2-0.3-2.7-1c-0.7-0.7-1-1.6-1-2.6V18.8c0-1.7-0.5-3-1.6-3.8   c-1-0.8-2.2-1.2-3.5-1.2c-1.3,0-2.4,0.4-3.5,1.2c-1,0.8-1.5,2-1.5,3.8v18.4h-7.6V20.3c0-4.9,1.3-8.2,3.8-9.8   c2.6-1.7,5.4-2.6,8.5-2.7c3.2,0,6.1,0.8,8.7,2.5c2.7,1.6,4,5,4,10V37.1z"
   id="path58" />
	<path
   fill="#388E92"
   d="M158.8,8.4v16.8c0,5.1-1.3,8.5-4,10c-2.7,1.6-5.6,2.4-8.7,2.4c-3.1-0.1-5.9-1-8.5-2.6   c-2.6-1.6-3.8-4.9-3.8-9.8V8.4h7.6v18.4c0,1.7,0.5,3,1.5,3.8c1,0.8,2.2,1.2,3.5,1.2c1.3,0,2.5-0.4,3.5-1.2c1.1-0.8,1.6-2,1.6-3.8   V12.1c0-1,0.3-1.9,1-2.6c0.7-0.7,1.6-1.1,2.7-1.1H158.8z"
   id="path60" />
	<path
   fill="#388E92"
   d="M190.5,37.1h-8.6l-5.1-9.1l-5.3,9.1h-8.7l9.4-14.8l-8.9-13.9h8.3l5,8.6l5.5-9.3c0.6-1.3,1.7-1.9,3.2-1.9   h6.5L181,22.5L190.5,37.1z"
   id="path62" />
	<path
   fill="#1D333F"
   d="M77.5,71.3h7.3c0.1,1.4,0.6,2.5,1.6,3.2c1.1,0.7,2.5,1.1,4.3,1.1c1.3,0,2.4-0.3,3.3-0.8   c0.9-0.5,1.3-1.2,1.3-2.1c0-1.3-1.5-2.3-4.5-2.9c-1.3-0.2-2.3-0.4-2.9-0.6c-3.8-0.9-6.4-2.1-7.7-3.3c-1.4-1.3-2.2-3-2.2-5.2   c0-2.7,1-5,3.1-6.8c2.2-1.7,5-2.5,8.4-2.5c3.7,0,6.7,0.8,9,2.5c2.1,1.8,3.2,4.1,3.3,7h-4.6c-1.4,0-2.4-0.6-3.1-1.8   c-0.3-0.3-0.6-0.6-0.9-0.9c-0.9-0.6-2-1-3.6-1c-1.4,0-2.5,0.2-3.2,0.6c-0.6,0.4-1,1.1-1,1.9c0,1.2,1.9,2.1,5.6,2.9   c0.4,0.1,0.8,0.2,1.1,0.3c0.3,0.1,0.6,0.1,0.9,0.1c3.7,0.9,6.2,2,7.7,3.2c1.4,1.3,2,3,2,5.2c0,3.2-1.2,5.6-3.5,7.3   c-2.2,1.6-5.4,2.4-9.7,2.4c-4.1,0-7.2-0.8-9.2-2.5c-2.1-1.6-3.1-4.1-3.1-7.2V71.3z"
   id="path64" />
	<path
   fill="#1D333F"
   d="M114,63.5h11c-0.1-1.9-0.6-3.4-1.5-4.3c-0.9-1-2.3-1.5-4-1.5c-1.6,0-2.9,0.5-3.9,1.5   C114.6,60.2,114.1,61.6,114,63.5 M126.9,71.9h5.4c-0.8,3-2.3,5.3-4.5,6.9c-2.2,1.7-5,2.5-8.4,2.5c-4.1,0-7.3-1.3-9.6-4   c-2.3-2.6-3.5-6.3-3.5-11.1c0-4.6,1.1-8.2,3.3-10.8c2.3-2.7,5.5-4,9.6-4c4.3,0,7.7,1.3,10,3.9c2.3,2.7,3.5,6.4,3.5,11.1   c0,0.3,0,0.5,0,0.8c0,0.2,0,0.4,0,0.4c0,0.4,0,0.6-0.1,0.8H114c0.1,2.2,0.6,3.9,1.6,5c0.9,1.2,2.3,1.7,4.2,1.7   c1.2,0,2.3-0.2,3.1-0.8c0.2-0.1,0.4-0.2,0.6-0.4c0.2-0.2,0.4-0.4,0.6-0.6c0.1-0.2,0.3-0.5,0.8-0.9   C125.4,72.1,126.1,71.9,126.9,71.9z"
   id="path66" />
	<path
   fill="#1D333F"
   d="M136.1,71.3h7.3c0.1,1.4,0.6,2.5,1.6,3.2c1.1,0.7,2.5,1.1,4.3,1.1c1.3,0,2.4-0.3,3.3-0.8   c0.9-0.5,1.3-1.2,1.3-2.1c0-1.3-1.5-2.3-4.5-2.9c-1.3-0.2-2.3-0.4-2.9-0.6c-3.8-0.9-6.4-2.1-7.7-3.3c-1.4-1.3-2.2-3-2.2-5.2   c0-2.7,1-5,3.1-6.8c2.2-1.7,5-2.5,8.4-2.5c3.7,0,6.7,0.8,9,2.5c2.1,1.8,3.2,4.1,3.3,7H156c-1.4,0-2.4-0.6-3.1-1.8   c-0.3-0.3-0.6-0.6-0.9-0.9c-0.9-0.6-2-1-3.6-1c-1.4,0-2.5,0.2-3.2,0.6c-0.6,0.4-1,1.1-1,1.9c0,1.2,1.9,2.1,5.6,2.9   c0.4,0.1,0.8,0.2,1.1,0.3c0.3,0.1,0.6,0.1,0.9,0.1c3.7,0.9,6.2,2,7.7,3.2c1.4,1.3,2,3,2,5.2c0,3.2-1.2,5.6-3.5,7.3   c-2.2,1.6-5.4,2.4-9.7,2.4c-4.1,0-7.2-0.8-9.2-2.5c-2.1-1.6-3.1-4.1-3.1-7.2V71.3z"
   id="path68" />
	<path
   fill="#1D333F"
   d="M164.9,71.3h7.3c0.1,1.4,0.6,2.5,1.6,3.2c1.1,0.7,2.5,1.1,4.3,1.1c1.3,0,2.4-0.3,3.3-0.8   c0.9-0.5,1.3-1.2,1.3-2.1c0-1.3-1.5-2.3-4.5-2.9c-1.3-0.2-2.3-0.4-2.9-0.6c-3.8-0.9-6.4-2.1-7.7-3.3c-1.4-1.3-2.2-3-2.2-5.2   c0-2.7,1-5,3.1-6.8c2.2-1.7,5-2.5,8.4-2.5c3.7,0,6.7,0.8,9,2.5c2.1,1.8,3.2,4.1,3.3,7h-4.6c-1.4,0-2.4-0.6-3.1-1.8   c-0.3-0.3-0.6-0.6-0.9-0.9c-0.9-0.6-2-1-3.6-1c-1.4,0-2.5,0.2-3.2,0.6c-0.6,0.4-1,1.1-1,1.9c0,1.2,1.9,2.1,5.6,2.9   c0.4,0.1,0.8,0.2,1.1,0.3c0.3,0.1,0.6,0.1,0.9,0.1c3.7,0.9,6.2,2,7.7,3.2c1.4,1.3,2,3,2,5.2c0,3.2-1.2,5.6-3.5,7.3   c-2.2,1.6-5.4,2.4-9.7,2.4c-4.1,0-7.2-0.8-9.2-2.5c-2.1-1.6-3.1-4.1-3.1-7.2V71.3z"
   id="path70" />
	<path
   fill="#1D333F"
   d="M194.9,43.6h3.9c1,0,1.9,0.4,2.6,1.1c0.7,0.7,1.1,1.6,1.1,2.6v2.3h-7.6V43.6z M194.9,52h3.9   c1,0,1.9,0.4,2.6,1.1c0.7,0.7,1.1,1.6,1.1,2.6v25.1h-7.6V52z"
   id="path72" />
	<path
   fill="#1D333F"
   d="M214.3,59.2c-1.5,1.7-2.2,4.1-2,7.4c0.1,3.3,0.8,5.6,1.8,6.9c0.4,0.6,1.2,1.1,2.3,1.5   c1.1,0.4,2.2,0.4,3.3,0.1c1.1-0.3,2.1-1.1,3-2.4c0.9-1.3,1.3-3.4,1.4-6.3c0-2.6-0.4-4.5-1.2-5.8c-0.8-1.3-1.8-2.1-2.9-2.5   c-1.1-0.4-2.2-0.4-3.2-0.1C215.6,58.3,214.8,58.7,214.3,59.2 M209.2,78.2c-1.5-1.3-2.6-3-3.2-5.2c-0.6-2.2-1-4.5-1-6.9   c0-1.9,0.3-3.9,0.8-5.8c0.5-1.9,1.4-3.6,2.5-4.9c1.9-2.2,4.3-3.4,7.2-3.8c2.9-0.4,5.6-0.2,8,0.7c2.7,1.1,4.8,3,6.1,5.6   c1.2,2.4,1.8,5.1,1.8,8.3c0,2.3-0.3,4.3-0.8,5.9c-0.5,1.7-1.2,3.1-1.9,4.2c-1.7,2.4-3.9,3.8-6.6,4.4c-2.4,0.6-4.8,0.7-7.2,0.2   C212.5,80.4,210.6,79.5,209.2,78.2z"
   id="path74" />
	<path
   fill="#1D333F"
   d="M260.4,80.8h-3.8c-1.1,0-2-0.3-2.7-1c-0.7-0.7-1-1.6-1-2.6V62.4c0-1.7-0.5-3-1.6-3.8   c-1-0.8-2.2-1.2-3.5-1.2c-1.3,0-2.4,0.4-3.5,1.2c-1,0.8-1.5,2-1.5,3.8v18.4h-7.6V63.9c0-4.9,1.3-8.2,3.8-9.8   c2.6-1.7,5.4-2.6,8.5-2.7c3.2,0,6.1,0.8,8.7,2.5c2.7,1.6,4,5,4,10V80.8z"
   id="path76" />
<g
   aria-label="16"
   transform="scale(1.0035758,0.9964369)"
   style="font-style:normal;font-weight:normal;font-size:5.80779314px;line-height:125%;font-family:sans-serif;letter-spacing:0px;word-spacing:0px;fill:#000000;fill-opacity:1;stroke:none;stroke-width:1.16155863px;stroke-linecap:butt;stroke-linejoin:miter;stroke-opacity:1"
   id="text183"><path
     id="path253"
     style="font-style:normal;font-variant:normal;font-weight:normal;font-stretch:normal;font-size:74.3397522px;font-family:Harabara;-inkscape-font-specification:Harabara;letter-spacing:4.51000023px;fill:#ffffff;stroke-width:1.16155863px"
     d="m 42.154713,55.75768 q 0,4.21065 2.177923,6.824157 2.032727,2.468312 5.952988,2.468312 3.775065,0 5.662598,-2.468312 2.032728,-2.468312 2.032728,-6.824157 0,-4.065455 -2.177923,-6.243377 -2.032727,-2.177923 -5.807793,-2.177923 -3.629871,0 -5.807793,2.177923 -2.032728,2.323117 -2.032728,6.243377 z M 42.009519,42.690146 q 1.597143,-1.597143 4.21065,-2.613507 3.049091,-1.016364 5.517403,-1.016364 7.404936,0 12.196366,4.50104 4.501039,4.791429 4.501039,11.905976 0,7.84052 -4.936624,12.922339 -4.936624,4.646235 -13.212729,4.646235 -9.437664,0 -14.229093,-6.098183 -4.646235,-6.098183 -4.646235,-18.439743 0,-13.21273 5.081819,-20.036886 5.227014,-6.969352 14.955067,-6.969352 6.824157,0 11.034807,3.484676 4.065456,3.62987 4.646235,9.437664 h -7.550131 q -1.451948,0 -2.323117,-0.871169 -0.725975,-0.871169 -1.597144,-1.887533 -0.871169,-0.725974 -2.032727,-1.451949 -1.161559,-0.725974 -3.339481,-0.725974 -3.775066,0 -5.952988,3.339481 -2.177923,3.194287 -2.323117,9.873249 z M 16.881852,72.309891 v -33.6852 H 7.4441886 v -7.259742 q 3.1942864,0 6.5337674,-2.032727 3.484676,-2.177923 4.791429,-6.969352 h 2.903897 v 0 q 2.177922,0 3.629871,1.451948 1.597143,1.451948 1.597143,3.629871 v 44.865202 z" /></g></g>
</svg>