<?xml version="1.0" encoding="UTF-8" standalone="no"?>
<!-- Generator: Adobe Illustrator 19.0.0, SVG Export Plug-In . SVG Version: 6.00 Build 0)  -->

<svg
   xmlns:osb="http://www.openswatchbook.org/uri/2009/osb"
   xmlns:dc="http://purl.org/dc/elements/1.1/"
   xmlns:cc="http://creativecommons.org/ns#"
   xmlns:rdf="http://www.w3.org/1999/02/22-rdf-syntax-ns#"
   xmlns:svg="http://www.w3.org/2000/svg"
   xmlns="http://www.w3.org/2000/svg"
   xmlns:sodipodi="http://sodipodi.sourceforge.net/DTD/sodipodi-0.dtd"
   xmlns:inkscape="http://www.inkscape.org/namespaces/inkscape"
   version="1.1"
   id="svg8376"
   x="0px"
   y="0px"
   viewBox="0 0 595.3 841.9"
   style="enable-background:new 0 0 595.3 841.9;"
   xml:space="preserve"
   sodipodi:docname="16_sesja_logo_data_pl_white_organizator.svg"
   inkscape:version="0.92.4 (5da689c313, 2019-01-14)"><metadata
   id="metadata92"><rdf:RDF><cc:Work
       rdf:about=""><dc:format>image/svg+xml</dc:format><dc:type
         rdf:resource="http://purl.org/dc/dcmitype/StillImage" /><dc:title></dc:title></cc:Work></rdf:RDF></metadata><defs
   id="defs90"><linearGradient
     id="linearGradient6122"
     osb:paint="solid"><stop
       style="stop-color:#000000;stop-opacity:1;"
       offset="0"
       id="stop6120" /></linearGradient></defs><sodipodi:namedview
   pagecolor="#ffffff"
   bordercolor="#666666"
   borderopacity="1"
   objecttolerance="10"
   gridtolerance="10"
   guidetolerance="10"
   inkscape:pageopacity="0"
   inkscape:pageshadow="2"
   inkscape:window-width="1600"
   inkscape:window-height="837"
   id="namedview88"
   showgrid="false"
   inkscape:zoom="1.0801277"
   inkscape:cx="289.29942"
   inkscape:cy="772.5914"
   inkscape:window-x="-8"
   inkscape:window-y="-8"
   inkscape:window-maximized="1"
   inkscape:current-layer="text6561" />
<style
   type="text/css"
   id="style2">
	.st0{fill:#5B6565;stroke:#FCFCFC;stroke-width:3;stroke-miterlimit:10;}
	.st1{fill:#FFFFFF;stroke:#000000;stroke-width:0.1;}
	.st2{fill:#439197;}
	.st3{fill:#EFCC17;stroke:#010101;stroke-width:0.25;}
	.st4{opacity:0.83;fill:#FFFFFF;enable-background:new    ;}
	.st5{opacity:0.81;fill:#FFFFFF;enable-background:new    ;}
	.st6{fill:#121B1C;}
	.st7{fill:#33404A;}
	.st8{fill:#242C36;}
	.st9{fill:#E7EBEF;}
	.st10{fill:#FFFFFF;}
	.st11{fill:#A9AFB8;}
	.st12{fill:#030303;}
	.st13{fill:#111A1A;}
	.st14{fill:#5B6565;}
	.st15{enable-background:new    ;}
</style>
<g
   inkscape:groupmode="layer"
   id="layer1"
   inkscape:label="tekst"><g
   aria-label="6-7 kwietnia 2019 | Wrocław, Polska"
   style="font-style:normal;font-weight:normal;font-size:1.46602392px;line-height:125%;font-family:sans-serif;letter-spacing:0px;word-spacing:0px;fill:none;fill-opacity:1;stroke:#000000;stroke-width:0.29320475px;stroke-linecap:butt;stroke-linejoin:miter;stroke-opacity:1"
   id="text120"><path
     d="m 141.66026,161.83949 q 0,1.29995 -0.859,2.12459 -0.85327,0.81892 -2.09595,0.81892 -0.62994,0 -1.14534,-0.19471 -0.51539,-0.19471 -0.91053,-0.57839 -0.4925,-0.47532 -0.76165,-1.25987 -0.26342,-0.78455 -0.26342,-1.88979 0,-1.13388 0.24051,-2.01006 0.24625,-0.87618 0.77883,-1.55765 0.50395,-0.64711 1.29995,-1.00789 0.79601,-0.36651 1.85544,-0.36651 0.33787,0 0.56694,0.0286 0.22906,0.0286 0.46386,0.10308 v 1.0938 h -0.0573 q -0.16035,-0.0859 -0.48677,-0.16035 -0.32069,-0.0802 -0.65856,-0.0802 -1.23123,0 -1.96425,0.7731 -0.73301,0.76737 -0.85327,2.07877 0.48104,-0.29206 0.9449,-0.44095 0.46959,-0.15462 1.08234,-0.15462 0.54403,0 0.95635,0.10308 0.41805,0.0974 0.85327,0.40086 0.50395,0.34933 0.75592,0.88191 0.2577,0.53258 0.2577,1.29422 z m -1.16251,0.0458 q 0,-0.53258 -0.16035,-0.88191 -0.15462,-0.34932 -0.5154,-0.60702 -0.26342,-0.18326 -0.58412,-0.24052 -0.32069,-0.0573 -0.67001,-0.0573 -0.48677,0 -0.90482,0.11453 -0.41804,0.11454 -0.85899,0.35506 -0.0115,0.12598 -0.0172,0.24624 -0.006,0.11454 -0.006,0.29206 0,0.90481 0.18325,1.43167 0.18898,0.52112 0.5154,0.82463 0.26343,0.25198 0.56694,0.37224 0.30924,0.11453 0.67002,0.11453 0.83036,0 1.30568,-0.50395 0.47531,-0.50967 0.47531,-1.46029 z"
     style="font-size:11.72819138px;fill:none;fill-opacity:1;stroke:#000000;stroke-width:0.29320475px;stroke-opacity:1"
     id="path149" /><path
     d="m 146.75698,161.39281 h -3.57343 v -1.03652 h 3.57343 z"
     style="font-size:11.72819138px;fill:none;fill-opacity:1;stroke:#000000;stroke-width:0.29320475px;stroke-opacity:1"
     id="path151" /><path
     d="m 154.36198,157.35552 -3.85976,7.24995 h -1.22551 l 4.10602,-7.52483 h -4.85621 v -1.00216 h 5.83546 z"
     style="font-size:11.72819138px;fill:none;fill-opacity:1;stroke:#000000;stroke-width:0.29320475px;stroke-opacity:1"
     id="path153" /><path
     d="m 166.10163,164.60547 h -1.42021 l -2.56555,-2.80034 -0.69865,0.6643 v 2.13604 h -1.07661 v -8.91068 h 1.07661 v 5.7152 l 3.10958,-3.2012 h 1.35721 l -2.97213,2.95496 z"
     style="font-size:11.72819138px;fill:none;fill-opacity:1;stroke:#000000;stroke-width:0.29320475px;stroke-opacity:1"
     id="path155" /><path
     d="m 175.28146,158.20879 -1.66646,6.39668 h -0.99644 l -1.64355,-4.93065 -1.63209,4.93065 h -0.99072 l -1.68363,-6.39668 h 1.12242 l 1.17397,4.95356 1.59773,-4.95356 h 0.88764 l 1.63782,4.95356 1.11097,-4.95356 z"
     style="font-size:11.72819138px;fill:none;fill-opacity:1;stroke:#000000;stroke-width:0.29320475px;stroke-opacity:1"
     id="path157" /><path
     d="m 177.99016,157.13791 h -1.21405 v -1.1167 h 1.21405 z m -0.0687,7.46756 h -1.07661 v -6.39668 h 1.07661 z"
     style="font-size:11.72819138px;fill:none;fill-opacity:1;stroke:#000000;stroke-width:0.29320475px;stroke-opacity:1"
     id="path159" /><path
     d="m 185.41764,161.5188 h -4.71304 q 0,0.58985 0.17753,1.0308 0.17752,0.43523 0.48676,0.71583 0.29779,0.27488 0.70438,0.41232 0.41232,0.13744 0.90481,0.13744 0.65284,0 1.31141,-0.2577 0.66429,-0.26343 0.9449,-0.5154 h 0.0573 v 1.17397 q -0.54403,0.22906 -1.11097,0.38368 -0.56694,0.15462 -1.19114,0.15462 -1.59201,0 -2.48537,-0.859 -0.89336,-0.86472 -0.89336,-2.45101 0,-1.5691 0.85327,-2.49109 0.859,-0.92199 2.2563,-0.92199 1.29423,0 1.99288,0.75592 0.70438,0.75591 0.70438,2.14749 z m -1.04798,-0.82464 q -0.006,-0.84754 -0.4295,-1.3114 -0.41804,-0.46386 -1.27704,-0.46386 -0.86473,0 -1.38013,0.50967 -0.50967,0.50967 -0.57839,1.26559 z"
     style="font-size:11.72819138px;fill:none;fill-opacity:1;stroke:#000000;stroke-width:0.29320475px;stroke-opacity:1"
     id="path161" /><path
     d="m 190.37119,164.5482 q -0.30351,0.0802 -0.66429,0.13172 -0.35505,0.0515 -0.63566,0.0515 -0.97925,0 -1.48893,-0.52686 -0.50967,-0.52685 -0.50967,-1.68936 v -3.40163 h -0.72728 v -0.90482 h 0.72728 v -1.83825 h 1.07661 v 1.83825 h 2.22194 v 0.90482 h -2.22194 v 2.91486 q 0,0.50395 0.0229,0.79028 0.0229,0.28061 0.16035,0.52685 0.12598,0.22907 0.34359,0.33788 0.22334,0.10308 0.67575,0.10308 0.26343,0 0.54976,-0.0745 0.28633,-0.0802 0.41232,-0.13171 h 0.0573 z"
     style="font-size:11.72819138px;fill:none;fill-opacity:1;stroke:#000000;stroke-width:0.29320475px;stroke-opacity:1"
     id="path163" /><path
     d="m 197.02557,164.60547 h -1.07661 v -3.64215 q 0,-0.44096 -0.0515,-0.82464 -0.0515,-0.38942 -0.18898,-0.60703 -0.14317,-0.24052 -0.41232,-0.35505 -0.26915,-0.12026 -0.69865,-0.12026 -0.44095,0 -0.92199,0.21761 -0.48104,0.21761 -0.92199,0.55549 v 4.77603 h -1.07662 v -6.39668 h 1.07662 v 0.71011 q 0.50394,-0.41805 1.04225,-0.65284 0.5383,-0.23479 1.10524,-0.23479 1.03653,0 1.58056,0.6242 0.54403,0.62421 0.54403,1.79817 z"
     style="font-size:11.72819138px;fill:none;fill-opacity:1;stroke:#000000;stroke-width:0.29320475px;stroke-opacity:1"
     id="path165" /><path
     d="m 200.2554,157.13791 h -1.21405 v -1.1167 h 1.21405 z m -0.0687,7.46756 h -1.07661 v -6.39668 h 1.07661 z"
     style="font-size:11.72819138px;fill:none;fill-opacity:1;stroke:#000000;stroke-width:0.29320475px;stroke-opacity:1"
     id="path167" /><path
     d="M 207.29919,164.60547 H 206.2283 V 163.924 q -0.14316,0.0974 -0.38941,0.27488 -0.24052,0.1718 -0.46958,0.27488 -0.26916,0.13171 -0.61848,0.21761 -0.34933,0.0916 -0.81891,0.0916 -0.86473,0 -1.46603,-0.57267 -0.6013,-0.57267 -0.6013,-1.4603 0,-0.72728 0.30924,-1.17396 0.31497,-0.45241 0.89336,-0.71011 0.58412,-0.2577 1.40303,-0.34932 0.81891,-0.0916 1.75808,-0.13744 v -0.16608 q 0,-0.3665 -0.13171,-0.60702 -0.12599,-0.24052 -0.3665,-0.37796 -0.22907,-0.13171 -0.54976,-0.17753 -0.3207,-0.0458 -0.67002,-0.0458 -0.42378,0 -0.9449,0.11453 -0.52113,0.10881 -1.07661,0.3207 h -0.0573 v -1.0938 q 0.31497,-0.0859 0.91054,-0.18898 0.59557,-0.10308 1.17396,-0.10308 0.67575,0 1.17397,0.11454 0.50394,0.1088 0.87045,0.37796 0.36078,0.26342 0.54976,0.68147 0.18898,0.41804 0.18898,1.03652 z m -1.07089,-1.57483 v -1.78099 q -0.49249,0.0286 -1.16251,0.0859 -0.66429,0.0573 -1.0537,0.16607 -0.46386,0.13171 -0.75019,0.41232 -0.28634,0.27488 -0.28634,0.76165 0,0.54975 0.33215,0.83036 0.33215,0.27488 1.01362,0.27488 0.56694,0 1.03652,-0.21761 0.46959,-0.22334 0.87045,-0.53258 z"
     style="font-size:11.72819138px;fill:none;fill-opacity:1;stroke:#000000;stroke-width:0.29320475px;stroke-opacity:1"
     id="path169" /><path
     d="m 219.14192,164.60547 h -5.77247 v -1.19687 q 0.6013,-0.5154 1.2026,-1.0308 0.60702,-0.5154 1.12815,-1.02507 1.09951,-1.06516 1.50611,-1.68937 0.40659,-0.62993 0.40659,-1.35721 0,-0.66429 -0.44095,-1.03653 -0.43523,-0.37796 -1.21978,-0.37796 -0.52113,0 -1.12815,0.18326 -0.60703,0.18325 -1.18542,0.56121 h -0.0573 v -1.2026 q 0.4066,-0.20043 1.08234,-0.36651 0.68147,-0.16607 1.31713,-0.16607 1.31141,0 2.05587,0.63566 0.74447,0.62993 0.74447,1.71227 0,0.48677 -0.12599,0.91054 -0.12026,0.41804 -0.36078,0.796 -0.22334,0.35506 -0.52685,0.69866 -0.29779,0.3436 -0.72729,0.76164 -0.61275,0.6013 -1.26559,1.16824 -0.65284,0.56121 -1.21977,1.04225 h 4.58705 z"
     style="font-size:11.72819138px;fill:none;fill-opacity:1;stroke:#000000;stroke-width:0.29320475px;stroke-opacity:1"
     id="path171" /><path
     d="m 226.59802,160.33911 q 0,2.29639 -0.72155,3.373 -0.71584,1.07089 -2.22767,1.07089 -1.53475,0 -2.24485,-1.08807 -0.70438,-1.08806 -0.70438,-3.34437 0,-2.27348 0.71583,-3.35582 0.71583,-1.08806 2.2334,-1.08806 1.53474,0 2.23912,1.10524 0.7101,1.09952 0.7101,3.32719 z m -1.50611,2.5999 q 0.20044,-0.46386 0.26916,-1.08806 0.0744,-0.62993 0.0744,-1.51184 0,-0.87045 -0.0744,-1.51184 -0.0687,-0.64138 -0.27488,-1.08806 -0.20044,-0.44095 -0.54976,-0.66429 -0.3436,-0.22334 -0.88763,-0.22334 -0.53831,0 -0.89336,0.22334 -0.34933,0.22334 -0.55549,0.67574 -0.1947,0.42377 -0.26915,1.10525 -0.0687,0.68147 -0.0687,1.49465 0,0.89336 0.063,1.49466 0.063,0.6013 0.26916,1.07661 0.18897,0.44668 0.53257,0.68147 0.34933,0.2348 0.922,0.2348 0.5383,0 0.89335,-0.22334 0.35506,-0.22334 0.54976,-0.67575 z"
     style="font-size:11.72819138px;fill:none;fill-opacity:1;stroke:#000000;stroke-width:0.29320475px;stroke-opacity:1"
     id="path173" /><path
     d="m 233.59027,164.60547 h -4.61568 v -0.87045 h 1.77526 v -5.71521 h -1.77526 v -0.77882 q 0.36078,0 0.77309,-0.0573 0.41232,-0.063 0.62421,-0.17752 0.26343,-0.14317 0.41232,-0.36078 0.15462,-0.22334 0.17753,-0.59558 h 0.88763 v 7.68518 h 1.7409 z"
     style="font-size:11.72819138px;fill:none;fill-opacity:1;stroke:#000000;stroke-width:0.29320475px;stroke-opacity:1"
     id="path175" /><path
     d="m 241.53314,159.82944 q 0,1.1167 -0.2577,2.02723 -0.25197,0.91054 -0.76737,1.55193 -0.52112,0.65284 -1.30568,1.00789 -0.78455,0.35505 -1.84398,0.35505 -0.29779,0 -0.56121,-0.0344 -0.26343,-0.0286 -0.46959,-0.0974 v -1.09379 h 0.0573 q 0.16607,0.0859 0.46959,0.16607 0.30351,0.0745 0.67574,0.0745 1.26559,0 1.98142,-0.75592 0.72156,-0.76165 0.8361,-2.09596 -0.53258,0.3207 -1.00217,0.45813 -0.46959,0.13744 -1.02507,0.13744 -0.52685,0 -0.95635,-0.10308 -0.42377,-0.10308 -0.85327,-0.40086 -0.50395,-0.34933 -0.76165,-0.88763 -0.25197,-0.53831 -0.25197,-1.2885 0,-1.30568 0.859,-2.12459 0.85899,-0.81891 2.09595,-0.81891 0.61848,0 1.14533,0.1947 0.52686,0.18898 0.922,0.57267 0.48676,0.47531 0.75019,1.2255 0.26342,0.74447 0.26342,1.92989 z m -1.15678,-0.24625 q 0,-0.88763 -0.18325,-1.42594 -0.18326,-0.5383 -0.50395,-0.83609 -0.26915,-0.2577 -0.57839,-0.3665 -0.30924,-0.11454 -0.67002,-0.11454 -0.82464,0 -1.30568,0.5154 -0.47531,0.5154 -0.47531,1.44885 0,0.54403 0.15462,0.88763 0.15462,0.3436 0.52112,0.6013 0.2577,0.17752 0.56694,0.24052 0.30924,0.0573 0.6872,0.0573 0.44668,0 0.90481,-0.12026 0.45814,-0.12026 0.859,-0.34932 0.006,-0.12026 0.0115,-0.2348 0.0114,-0.12026 0.0114,-0.30351 z"
     style="font-size:11.72819138px;fill:none;fill-opacity:1;stroke:#000000;stroke-width:0.29320475px;stroke-opacity:1"
     id="path177" /><path
     d="m 249.602,166.85032 h -0.99644 v -11.15553 h 0.99644 z"
     style="font-size:11.72819138px;fill:none;fill-opacity:1;stroke:#000000;stroke-width:0.29320475px;stroke-opacity:1"
     id="path179" /><path
     d="m 266.97095,156.07848 -2.21622,8.52699 h -1.27704 l -1.79245,-7.07815 -1.75235,7.07815 h -1.24841 l -2.25631,-8.52699 h 1.16251 l 1.79245,7.0896 1.76381,-7.0896 h 1.15106 l 1.78099,7.15832 1.78099,-7.15832 z"
     style="font-size:11.72819138px;fill:none;fill-opacity:1;stroke:#000000;stroke-width:0.29320475px;stroke-opacity:1"
     id="path181" /><path
     d="m 272.19938,159.38276 h -0.0573 q -0.24052,-0.0573 -0.46958,-0.0802 -0.22334,-0.0286 -0.53258,-0.0286 -0.49822,0 -0.96208,0.22334 -0.46386,0.21761 -0.89336,0.56694 v 4.54124 h -1.07661 v -6.39668 h 1.07661 v 0.9449 q 0.64139,-0.5154 1.12815,-0.72728 0.49249,-0.21762 1.00217,-0.21762 0.2806,0 0.40659,0.0172 0.12599,0.0115 0.37796,0.0515 z"
     style="font-size:11.72819138px;fill:none;fill-opacity:1;stroke:#000000;stroke-width:0.29320475px;stroke-opacity:1"
     id="path183" /><path
     d="m 278.67623,161.40999 q 0,1.56338 -0.80173,2.46819 -0.80173,0.90482 -2.1475,0.90482 -1.35721,0 -2.15895,-0.90482 -0.796,-0.90481 -0.796,-2.46819 0,-1.56337 0.796,-2.46818 0.80174,-0.91054 2.15895,-0.91054 1.34577,0 2.1475,0.91054 0.80173,0.90481 0.80173,2.46818 z m -1.11097,0 q 0,-1.24268 -0.48677,-1.84398 -0.48676,-0.60702 -1.35149,-0.60702 -0.87617,0 -1.36294,0.60702 -0.48104,0.6013 -0.48104,1.84398 0,1.2026 0.48677,1.82681 0.48676,0.61848 1.35721,0.61848 0.859,0 1.34577,-0.61276 0.49249,-0.61847 0.49249,-1.83253 z"
     style="font-size:11.72819138px;fill:none;fill-opacity:1;stroke:#000000;stroke-width:0.29320475px;stroke-opacity:1"
     id="path185" /><path
     d="m 285.07864,164.2046 q -0.53831,0.2577 -1.02508,0.40087 -0.48104,0.14317 -1.02507,0.14317 -0.69292,0 -1.27132,-0.20044 -0.57839,-0.20616 -0.99071,-0.61848 -0.41804,-0.41232 -0.64711,-1.04225 -0.22906,-0.62993 -0.22906,-1.47175 0,-1.5691 0.85899,-2.46246 0.86473,-0.89336 2.27921,-0.89336 0.54976,0 1.07661,0.15462 0.53258,0.15462 0.97354,0.37796 v 1.19687 h -0.0573 q -0.49249,-0.38368 -1.01935,-0.58984 -0.52112,-0.20616 -1.01934,-0.20616 -0.91627,0 -1.44884,0.61847 -0.52686,0.61276 -0.52686,1.8039 0,1.15679 0.5154,1.78099 0.52113,0.61848 1.4603,0.61848 0.32642,0 0.66429,-0.0859 0.33787,-0.0859 0.60703,-0.22334 0.23479,-0.12026 0.44095,-0.25197 0.20616,-0.13744 0.32642,-0.23479 h 0.0573 z"
     style="font-size:11.72819138px;fill:none;fill-opacity:1;stroke:#000000;stroke-width:0.29320475px;stroke-opacity:1"
     id="path187" /><path
     d="m 288.64635,159.50874 -1.03653,0.83037 v 4.26636 h -1.07661 v -3.48181 l -0.99071,0.80746 v -0.91054 l 0.99071,-0.79028 v -4.53551 h 1.07661 v 3.75096 l 1.03653,-0.84754 z"
     style="font-size:11.72819138px;fill:none;fill-opacity:1;stroke:#000000;stroke-width:0.29320475px;stroke-opacity:1"
     id="path189" /><path
     d="M 294.77959,164.60547 H 293.7087 V 163.924 q -0.14316,0.0974 -0.38941,0.27488 -0.24052,0.1718 -0.46958,0.27488 -0.26916,0.13171 -0.61848,0.21761 -0.34933,0.0916 -0.81891,0.0916 -0.86473,0 -1.46603,-0.57267 -0.6013,-0.57267 -0.6013,-1.4603 0,-0.72728 0.30924,-1.17396 0.31497,-0.45241 0.89336,-0.71011 0.58412,-0.2577 1.40303,-0.34932 0.81891,-0.0916 1.75808,-0.13744 v -0.16608 q 0,-0.3665 -0.13171,-0.60702 -0.12599,-0.24052 -0.3665,-0.37796 -0.22907,-0.13171 -0.54976,-0.17753 -0.3207,-0.0458 -0.67002,-0.0458 -0.42378,0 -0.9449,0.11453 -0.52113,0.10881 -1.07661,0.3207 h -0.0573 v -1.0938 q 0.31497,-0.0859 0.91054,-0.18898 0.59557,-0.10308 1.17396,-0.10308 0.67575,0 1.17397,0.11454 0.50394,0.1088 0.87045,0.37796 0.36078,0.26342 0.54976,0.68147 0.18898,0.41804 0.18898,1.03652 z m -1.07089,-1.57483 v -1.78099 q -0.49249,0.0286 -1.16251,0.0859 -0.66429,0.0573 -1.0537,0.16607 -0.46386,0.13171 -0.75019,0.41232 -0.28634,0.27488 -0.28634,0.76165 0,0.54975 0.33215,0.83036 0.33215,0.27488 1.01362,0.27488 0.56694,0 1.03652,-0.21761 0.46959,-0.22334 0.87045,-0.53258 z"
     style="font-size:11.72819138px;fill:none;fill-opacity:1;stroke:#000000;stroke-width:0.29320475px;stroke-opacity:1"
     id="path191" /><path
     d="m 304.86423,158.20879 -1.66645,6.39668 h -0.99644 l -1.64355,-4.93065 -1.6321,4.93065 h -0.99071 l -1.68364,-6.39668 h 1.12243 l 1.17396,4.95356 1.59774,-4.95356 h 0.88763 l 1.63782,4.95356 1.11098,-4.95356 z"
     style="font-size:11.72819138px;fill:none;fill-opacity:1;stroke:#000000;stroke-width:0.29320475px;stroke-opacity:1"
     id="path193" /><path
     d="m 308.26014,162.97337 -1.61491,3.75096 h -0.8361 l 0.99644,-3.75096 z"
     style="font-size:11.72819138px;fill:none;fill-opacity:1;stroke:#000000;stroke-width:0.29320475px;stroke-opacity:1"
     id="path195" /><path
     d="m 320.07423,158.65547 q 0,0.56694 -0.20043,1.05371 -0.19471,0.48104 -0.54976,0.83609 -0.44096,0.44095 -1.04225,0.66429 -0.6013,0.21761 -1.51757,0.21761 h -1.13388 v 3.1783 h -1.13387 v -8.52699 h 2.31357 q 0.76737,0 1.29995,0.13171 0.53258,0.12599 0.94489,0.40087 0.48677,0.32642 0.7502,0.81318 0.26915,0.48677 0.26915,1.23123 z m -1.17969,0.0286 q 0,-0.44096 -0.15462,-0.76738 -0.15462,-0.32641 -0.46959,-0.53257 -0.27488,-0.17753 -0.62993,-0.25198 -0.34933,-0.0802 -0.88763,-0.0802 h -1.12243 v 3.40736 h 0.95636 q 0.68719,0 1.11669,-0.12026 0.4295,-0.12599 0.69866,-0.39514 0.26915,-0.27488 0.37796,-0.57839 0.11453,-0.30351 0.11453,-0.68147 z"
     style="font-size:11.72819138px;fill:none;fill-opacity:1;stroke:#000000;stroke-width:0.29320475px;stroke-opacity:1"
     id="path197" /><path
     d="m 326.66561,161.40999 q 0,1.56338 -0.80173,2.46819 -0.80173,0.90482 -2.1475,0.90482 -1.35721,0 -2.15895,-0.90482 -0.796,-0.90481 -0.796,-2.46819 0,-1.56337 0.796,-2.46818 0.80174,-0.91054 2.15895,-0.91054 1.34577,0 2.1475,0.91054 0.80173,0.90481 0.80173,2.46818 z m -1.11097,0 q 0,-1.24268 -0.48677,-1.84398 -0.48676,-0.60702 -1.35149,-0.60702 -0.87617,0 -1.36294,0.60702 -0.48104,0.6013 -0.48104,1.84398 0,1.2026 0.48677,1.82681 0.48676,0.61848 1.35721,0.61848 0.859,0 1.34577,-0.61276 0.49249,-0.61847 0.49249,-1.83253 z"
     style="font-size:11.72819138px;fill:none;fill-opacity:1;stroke:#000000;stroke-width:0.29320475px;stroke-opacity:1"
     id="path199" /><path
     d="m 329.42586,164.60547 h -1.07661 v -8.91068 h 1.07661 z"
     style="font-size:11.72819138px;fill:none;fill-opacity:1;stroke:#000000;stroke-width:0.29320475px;stroke-opacity:1"
     id="path201" /><path
     d="m 336.1375,162.76149 q 0,0.87617 -0.72729,1.43739 -0.72156,0.56121 -1.97569,0.56121 -0.71011,0 -1.30568,-0.16607 -0.58985,-0.1718 -0.99071,-0.37224 v -1.20832 h 0.0573 q 0.50968,0.38368 1.13388,0.61275 0.62421,0.22334 1.19687,0.22334 0.71011,0 1.11097,-0.22907 0.40087,-0.22906 0.40087,-0.72155 0,-0.37796 -0.21761,-0.57267 -0.21762,-0.19471 -0.8361,-0.33215 -0.22906,-0.0515 -0.60129,-0.12026 -0.36651,-0.0687 -0.67002,-0.14889 -0.84182,-0.22334 -1.19687,-0.65284 -0.34933,-0.43522 -0.34933,-1.06516 0,-0.39514 0.16035,-0.74446 0.16607,-0.34933 0.49821,-0.62421 0.3207,-0.26915 0.81319,-0.42377 0.49822,-0.16035 1.11097,-0.16035 0.57267,0 1.15679,0.14317 0.58984,0.13744 0.97925,0.33787 v 1.15106 h -0.0573 q -0.41232,-0.30351 -1.00217,-0.50967 -0.58984,-0.21189 -1.15678,-0.21189 -0.58985,0 -0.99644,0.22907 -0.40659,0.22334 -0.40659,0.67002 0,0.39514 0.24624,0.59557 0.24052,0.20043 0.77883,0.32642 0.29778,0.0687 0.66429,0.13744 0.37223,0.0687 0.61848,0.12599 0.75019,0.1718 1.15678,0.58984 0.4066,0.42377 0.4066,1.12243 z"
     style="font-size:11.72819138px;fill:none;fill-opacity:1;stroke:#000000;stroke-width:0.29320475px;stroke-opacity:1"
     id="path203" /><path
     d="m 343.49053,164.60547 h -1.42021 l -2.56554,-2.80034 -0.69866,0.6643 v 2.13604 h -1.07661 v -8.91068 h 1.07661 v 5.7152 l 3.10958,-3.2012 h 1.35722 l -2.97214,2.95496 z"
     style="font-size:11.72819138px;fill:none;fill-opacity:1;stroke:#000000;stroke-width:0.29320475px;stroke-opacity:1"
     id="path205" /><path
     d="m 349.59514,164.60547 h -1.07088 V 163.924 q -0.14317,0.0974 -0.38942,0.27488 -0.24052,0.1718 -0.46958,0.27488 -0.26916,0.13171 -0.61848,0.21761 -0.34933,0.0916 -0.81891,0.0916 -0.86473,0 -1.46603,-0.57267 -0.6013,-0.57267 -0.6013,-1.4603 0,-0.72728 0.30924,-1.17396 0.31497,-0.45241 0.89336,-0.71011 0.58412,-0.2577 1.40303,-0.34932 0.81891,-0.0916 1.75809,-0.13744 v -0.16608 q 0,-0.3665 -0.13172,-0.60702 -0.12598,-0.24052 -0.3665,-0.37796 -0.22907,-0.13171 -0.54976,-0.17753 -0.32069,-0.0458 -0.67002,-0.0458 -0.42377,0 -0.9449,0.11453 -0.52112,0.10881 -1.07661,0.3207 h -0.0573 v -1.0938 q 0.31497,-0.0859 0.91054,-0.18898 0.59557,-0.10308 1.17397,-0.10308 0.67574,0 1.17396,0.11454 0.50395,0.1088 0.87045,0.37796 0.36078,0.26342 0.54976,0.68147 0.18898,0.41804 0.18898,1.03652 z m -1.07088,-1.57483 v -1.78099 q -0.4925,0.0286 -1.16252,0.0859 -0.66429,0.0573 -1.0537,0.16607 -0.46386,0.13171 -0.75019,0.41232 -0.28633,0.27488 -0.28633,0.76165 0,0.54975 0.33214,0.83036 0.33215,0.27488 1.01362,0.27488 0.56694,0 1.03652,-0.21761 0.46959,-0.22334 0.87046,-0.53258 z"
     style="font-size:11.72819138px;fill:none;fill-opacity:1;stroke:#000000;stroke-width:0.29320475px;stroke-opacity:1"
     id="path207" /></g>

</g><g
   inkscape:label="tekst copy"
   id="g6563"
   inkscape:groupmode="layer"
   style="display:inline"><g
   aria-label="6-7 kwietnia 2019 | Wrocław, Polska"
   style="font-style:normal;font-weight:normal;font-size:1.46602392px;line-height:125%;font-family:sans-serif;letter-spacing:0px;word-spacing:0px;fill:#ffffff;fill-opacity:1;stroke:none;stroke-width:0.29320475px;stroke-linecap:butt;stroke-linejoin:miter;stroke-opacity:1"
   id="text6561"><path
     d="m 141.66026,161.83949 q 0,1.29995 -0.859,2.12459 -0.85327,0.81892 -2.09595,0.81892 -0.62994,0 -1.14534,-0.19471 -0.51539,-0.19471 -0.91053,-0.57839 -0.4925,-0.47532 -0.76165,-1.25987 -0.26342,-0.78455 -0.26342,-1.88979 0,-1.13388 0.24051,-2.01006 0.24625,-0.87618 0.77883,-1.55765 0.50395,-0.64711 1.29995,-1.00789 0.79601,-0.36651 1.85544,-0.36651 0.33787,0 0.56694,0.0286 0.22906,0.0286 0.46386,0.10308 v 1.0938 h -0.0573 q -0.16035,-0.0859 -0.48677,-0.16035 -0.32069,-0.0802 -0.65856,-0.0802 -1.23123,0 -1.96425,0.7731 -0.73301,0.76737 -0.85327,2.07877 0.48104,-0.29206 0.9449,-0.44095 0.46959,-0.15462 1.08234,-0.15462 0.54403,0 0.95635,0.10308 0.41805,0.0974 0.85327,0.40086 0.50395,0.34933 0.75592,0.88191 0.2577,0.53258 0.2577,1.29422 z m -1.16251,0.0458 q 0,-0.53258 -0.16035,-0.88191 -0.15462,-0.34932 -0.5154,-0.60702 -0.26342,-0.18326 -0.58412,-0.24052 -0.32069,-0.0573 -0.67001,-0.0573 -0.48677,0 -0.90482,0.11453 -0.41804,0.11454 -0.85899,0.35506 -0.0115,0.12598 -0.0172,0.24624 -0.006,0.11454 -0.006,0.29206 0,0.90481 0.18325,1.43167 0.18898,0.52112 0.5154,0.82463 0.26343,0.25198 0.56694,0.37224 0.30924,0.11453 0.67002,0.11453 0.83036,0 1.30568,-0.50395 0.47531,-0.50967 0.47531,-1.46029 z"
     style="font-size:11.72819138px;fill:#ffffff;fill-opacity:1;stroke-width:0.29320475px"
     id="path88" /><path
     d="m 146.75698,161.39281 h -3.57343 v -1.03652 h 3.57343 z"
     style="font-size:11.72819138px;fill:#ffffff;fill-opacity:1;stroke-width:0.29320475px"
     id="path90" /><path
     d="m 154.36198,157.35552 -3.85976,7.24995 h -1.22551 l 4.10602,-7.52483 h -4.85621 v -1.00216 h 5.83546 z"
     style="font-size:11.72819138px;fill:#ffffff;fill-opacity:1;stroke-width:0.29320475px"
     id="path92" /><path
     d="m 166.10163,164.60547 h -1.42021 l -2.56555,-2.80034 -0.69865,0.6643 v 2.13604 h -1.07661 v -8.91068 h 1.07661 v 5.7152 l 3.10958,-3.2012 h 1.35721 l -2.97213,2.95496 z"
     style="font-size:11.72819138px;fill:#ffffff;fill-opacity:1;stroke-width:0.29320475px"
     id="path94" /><path
     d="m 175.28146,158.20879 -1.66646,6.39668 h -0.99644 l -1.64355,-4.93065 -1.63209,4.93065 h -0.99072 l -1.68363,-6.39668 h 1.12242 l 1.17397,4.95356 1.59773,-4.95356 h 0.88764 l 1.63782,4.95356 1.11097,-4.95356 z"
     style="font-size:11.72819138px;fill:#ffffff;fill-opacity:1;stroke-width:0.29320475px"
     id="path96" /><path
     d="m 177.99016,157.13791 h -1.21405 v -1.1167 h 1.21405 z m -0.0687,7.46756 h -1.07661 v -6.39668 h 1.07661 z"
     style="font-size:11.72819138px;fill:#ffffff;fill-opacity:1;stroke-width:0.29320475px"
     id="path98" /><path
     d="m 185.41764,161.5188 h -4.71304 q 0,0.58985 0.17753,1.0308 0.17752,0.43523 0.48676,0.71583 0.29779,0.27488 0.70438,0.41232 0.41232,0.13744 0.90481,0.13744 0.65284,0 1.31141,-0.2577 0.66429,-0.26343 0.9449,-0.5154 h 0.0573 v 1.17397 q -0.54403,0.22906 -1.11097,0.38368 -0.56694,0.15462 -1.19114,0.15462 -1.59201,0 -2.48537,-0.859 -0.89336,-0.86472 -0.89336,-2.45101 0,-1.5691 0.85327,-2.49109 0.859,-0.92199 2.2563,-0.92199 1.29423,0 1.99288,0.75592 0.70438,0.75591 0.70438,2.14749 z m -1.04798,-0.82464 q -0.006,-0.84754 -0.4295,-1.3114 -0.41804,-0.46386 -1.27704,-0.46386 -0.86473,0 -1.38013,0.50967 -0.50967,0.50967 -0.57839,1.26559 z"
     style="font-size:11.72819138px;fill:#ffffff;fill-opacity:1;stroke-width:0.29320475px"
     id="path100" /><path
     d="m 190.37119,164.5482 q -0.30351,0.0802 -0.66429,0.13172 -0.35505,0.0515 -0.63566,0.0515 -0.97925,0 -1.48893,-0.52686 -0.50967,-0.52685 -0.50967,-1.68936 v -3.40163 h -0.72728 v -0.90482 h 0.72728 v -1.83825 h 1.07661 v 1.83825 h 2.22194 v 0.90482 h -2.22194 v 2.91486 q 0,0.50395 0.0229,0.79028 0.0229,0.28061 0.16035,0.52685 0.12598,0.22907 0.34359,0.33788 0.22334,0.10308 0.67575,0.10308 0.26343,0 0.54976,-0.0745 0.28633,-0.0802 0.41232,-0.13171 h 0.0573 z"
     style="font-size:11.72819138px;fill:#ffffff;fill-opacity:1;stroke-width:0.29320475px"
     id="path102" /><path
     d="m 197.02557,164.60547 h -1.07661 v -3.64215 q 0,-0.44096 -0.0515,-0.82464 -0.0515,-0.38942 -0.18898,-0.60703 -0.14317,-0.24052 -0.41232,-0.35505 -0.26915,-0.12026 -0.69865,-0.12026 -0.44095,0 -0.92199,0.21761 -0.48104,0.21761 -0.92199,0.55549 v 4.77603 h -1.07662 v -6.39668 h 1.07662 v 0.71011 q 0.50394,-0.41805 1.04225,-0.65284 0.5383,-0.23479 1.10524,-0.23479 1.03653,0 1.58056,0.6242 0.54403,0.62421 0.54403,1.79817 z"
     style="font-size:11.72819138px;fill:#ffffff;fill-opacity:1;stroke-width:0.29320475px"
     id="path104" /><path
     d="m 200.2554,157.13791 h -1.21405 v -1.1167 h 1.21405 z m -0.0687,7.46756 h -1.07661 v -6.39668 h 1.07661 z"
     style="font-size:11.72819138px;fill:#ffffff;fill-opacity:1;stroke-width:0.29320475px"
     id="path106" /><path
     d="M 207.29919,164.60547 H 206.2283 V 163.924 q -0.14316,0.0974 -0.38941,0.27488 -0.24052,0.1718 -0.46958,0.27488 -0.26916,0.13171 -0.61848,0.21761 -0.34933,0.0916 -0.81891,0.0916 -0.86473,0 -1.46603,-0.57267 -0.6013,-0.57267 -0.6013,-1.4603 0,-0.72728 0.30924,-1.17396 0.31497,-0.45241 0.89336,-0.71011 0.58412,-0.2577 1.40303,-0.34932 0.81891,-0.0916 1.75808,-0.13744 v -0.16608 q 0,-0.3665 -0.13171,-0.60702 -0.12599,-0.24052 -0.3665,-0.37796 -0.22907,-0.13171 -0.54976,-0.17753 -0.3207,-0.0458 -0.67002,-0.0458 -0.42378,0 -0.9449,0.11453 -0.52113,0.10881 -1.07661,0.3207 h -0.0573 v -1.0938 q 0.31497,-0.0859 0.91054,-0.18898 0.59557,-0.10308 1.17396,-0.10308 0.67575,0 1.17397,0.11454 0.50394,0.1088 0.87045,0.37796 0.36078,0.26342 0.54976,0.68147 0.18898,0.41804 0.18898,1.03652 z m -1.07089,-1.57483 v -1.78099 q -0.49249,0.0286 -1.16251,0.0859 -0.66429,0.0573 -1.0537,0.16607 -0.46386,0.13171 -0.75019,0.41232 -0.28634,0.27488 -0.28634,0.76165 0,0.54975 0.33215,0.83036 0.33215,0.27488 1.01362,0.27488 0.56694,0 1.03652,-0.21761 0.46959,-0.22334 0.87045,-0.53258 z"
     style="font-size:11.72819138px;fill:#ffffff;fill-opacity:1;stroke-width:0.29320475px"
     id="path108" /><path
     d="m 219.14192,164.60547 h -5.77247 v -1.19687 q 0.6013,-0.5154 1.2026,-1.0308 0.60702,-0.5154 1.12815,-1.02507 1.09951,-1.06516 1.50611,-1.68937 0.40659,-0.62993 0.40659,-1.35721 0,-0.66429 -0.44095,-1.03653 -0.43523,-0.37796 -1.21978,-0.37796 -0.52113,0 -1.12815,0.18326 -0.60703,0.18325 -1.18542,0.56121 h -0.0573 v -1.2026 q 0.4066,-0.20043 1.08234,-0.36651 0.68147,-0.16607 1.31713,-0.16607 1.31141,0 2.05587,0.63566 0.74447,0.62993 0.74447,1.71227 0,0.48677 -0.12599,0.91054 -0.12026,0.41804 -0.36078,0.796 -0.22334,0.35506 -0.52685,0.69866 -0.29779,0.3436 -0.72729,0.76164 -0.61275,0.6013 -1.26559,1.16824 -0.65284,0.56121 -1.21977,1.04225 h 4.58705 z"
     style="font-size:11.72819138px;fill:#ffffff;fill-opacity:1;stroke-width:0.29320475px"
     id="path110" /><path
     d="m 226.59802,160.33911 q 0,2.29639 -0.72155,3.373 -0.71584,1.07089 -2.22767,1.07089 -1.53475,0 -2.24485,-1.08807 -0.70438,-1.08806 -0.70438,-3.34437 0,-2.27348 0.71583,-3.35582 0.71583,-1.08806 2.2334,-1.08806 1.53474,0 2.23912,1.10524 0.7101,1.09952 0.7101,3.32719 z m -1.50611,2.5999 q 0.20044,-0.46386 0.26916,-1.08806 0.0744,-0.62993 0.0744,-1.51184 0,-0.87045 -0.0744,-1.51184 -0.0687,-0.64138 -0.27488,-1.08806 -0.20044,-0.44095 -0.54976,-0.66429 -0.3436,-0.22334 -0.88763,-0.22334 -0.53831,0 -0.89336,0.22334 -0.34933,0.22334 -0.55549,0.67574 -0.1947,0.42377 -0.26915,1.10525 -0.0687,0.68147 -0.0687,1.49465 0,0.89336 0.063,1.49466 0.063,0.6013 0.26916,1.07661 0.18897,0.44668 0.53257,0.68147 0.34933,0.2348 0.922,0.2348 0.5383,0 0.89335,-0.22334 0.35506,-0.22334 0.54976,-0.67575 z"
     style="font-size:11.72819138px;fill:#ffffff;fill-opacity:1;stroke-width:0.29320475px"
     id="path112" /><path
     d="m 233.59027,164.60547 h -4.61568 v -0.87045 h 1.77526 v -5.71521 h -1.77526 v -0.77882 q 0.36078,0 0.77309,-0.0573 0.41232,-0.063 0.62421,-0.17752 0.26343,-0.14317 0.41232,-0.36078 0.15462,-0.22334 0.17753,-0.59558 h 0.88763 v 7.68518 h 1.7409 z"
     style="font-size:11.72819138px;fill:#ffffff;fill-opacity:1;stroke-width:0.29320475px"
     id="path114" /><path
     d="m 241.53314,159.82944 q 0,1.1167 -0.2577,2.02723 -0.25197,0.91054 -0.76737,1.55193 -0.52112,0.65284 -1.30568,1.00789 -0.78455,0.35505 -1.84398,0.35505 -0.29779,0 -0.56121,-0.0344 -0.26343,-0.0286 -0.46959,-0.0974 v -1.09379 h 0.0573 q 0.16607,0.0859 0.46959,0.16607 0.30351,0.0745 0.67574,0.0745 1.26559,0 1.98142,-0.75592 0.72156,-0.76165 0.8361,-2.09596 -0.53258,0.3207 -1.00217,0.45813 -0.46959,0.13744 -1.02507,0.13744 -0.52685,0 -0.95635,-0.10308 -0.42377,-0.10308 -0.85327,-0.40086 -0.50395,-0.34933 -0.76165,-0.88763 -0.25197,-0.53831 -0.25197,-1.2885 0,-1.30568 0.859,-2.12459 0.85899,-0.81891 2.09595,-0.81891 0.61848,0 1.14533,0.1947 0.52686,0.18898 0.922,0.57267 0.48676,0.47531 0.75019,1.2255 0.26342,0.74447 0.26342,1.92989 z m -1.15678,-0.24625 q 0,-0.88763 -0.18325,-1.42594 -0.18326,-0.5383 -0.50395,-0.83609 -0.26915,-0.2577 -0.57839,-0.3665 -0.30924,-0.11454 -0.67002,-0.11454 -0.82464,0 -1.30568,0.5154 -0.47531,0.5154 -0.47531,1.44885 0,0.54403 0.15462,0.88763 0.15462,0.3436 0.52112,0.6013 0.2577,0.17752 0.56694,0.24052 0.30924,0.0573 0.6872,0.0573 0.44668,0 0.90481,-0.12026 0.45814,-0.12026 0.859,-0.34932 0.006,-0.12026 0.0115,-0.2348 0.0114,-0.12026 0.0114,-0.30351 z"
     style="font-size:11.72819138px;fill:#ffffff;fill-opacity:1;stroke-width:0.29320475px"
     id="path116" /><path
     d="m 249.602,166.85032 h -0.99644 v -11.15553 h 0.99644 z"
     style="font-size:11.72819138px;fill:#ffffff;fill-opacity:1;stroke-width:0.29320475px"
     id="path118" /><path
     d="m 266.97095,156.07848 -2.21622,8.52699 h -1.27704 l -1.79245,-7.07815 -1.75235,7.07815 h -1.24841 l -2.25631,-8.52699 h 1.16251 l 1.79245,7.0896 1.76381,-7.0896 h 1.15106 l 1.78099,7.15832 1.78099,-7.15832 z"
     style="font-size:11.72819138px;fill:#ffffff;fill-opacity:1;stroke-width:0.29320475px"
     id="path120" /><path
     d="m 272.19938,159.38276 h -0.0573 q -0.24052,-0.0573 -0.46958,-0.0802 -0.22334,-0.0286 -0.53258,-0.0286 -0.49822,0 -0.96208,0.22334 -0.46386,0.21761 -0.89336,0.56694 v 4.54124 h -1.07661 v -6.39668 h 1.07661 v 0.9449 q 0.64139,-0.5154 1.12815,-0.72728 0.49249,-0.21762 1.00217,-0.21762 0.2806,0 0.40659,0.0172 0.12599,0.0115 0.37796,0.0515 z"
     style="font-size:11.72819138px;fill:#ffffff;fill-opacity:1;stroke-width:0.29320475px"
     id="path122" /><path
     d="m 278.67623,161.40999 q 0,1.56338 -0.80173,2.46819 -0.80173,0.90482 -2.1475,0.90482 -1.35721,0 -2.15895,-0.90482 -0.796,-0.90481 -0.796,-2.46819 0,-1.56337 0.796,-2.46818 0.80174,-0.91054 2.15895,-0.91054 1.34577,0 2.1475,0.91054 0.80173,0.90481 0.80173,2.46818 z m -1.11097,0 q 0,-1.24268 -0.48677,-1.84398 -0.48676,-0.60702 -1.35149,-0.60702 -0.87617,0 -1.36294,0.60702 -0.48104,0.6013 -0.48104,1.84398 0,1.2026 0.48677,1.82681 0.48676,0.61848 1.35721,0.61848 0.859,0 1.34577,-0.61276 0.49249,-0.61847 0.49249,-1.83253 z"
     style="font-size:11.72819138px;fill:#ffffff;fill-opacity:1;stroke-width:0.29320475px"
     id="path124" /><path
     d="m 285.07864,164.2046 q -0.53831,0.2577 -1.02508,0.40087 -0.48104,0.14317 -1.02507,0.14317 -0.69292,0 -1.27132,-0.20044 -0.57839,-0.20616 -0.99071,-0.61848 -0.41804,-0.41232 -0.64711,-1.04225 -0.22906,-0.62993 -0.22906,-1.47175 0,-1.5691 0.85899,-2.46246 0.86473,-0.89336 2.27921,-0.89336 0.54976,0 1.07661,0.15462 0.53258,0.15462 0.97354,0.37796 v 1.19687 h -0.0573 q -0.49249,-0.38368 -1.01935,-0.58984 -0.52112,-0.20616 -1.01934,-0.20616 -0.91627,0 -1.44884,0.61847 -0.52686,0.61276 -0.52686,1.8039 0,1.15679 0.5154,1.78099 0.52113,0.61848 1.4603,0.61848 0.32642,0 0.66429,-0.0859 0.33787,-0.0859 0.60703,-0.22334 0.23479,-0.12026 0.44095,-0.25197 0.20616,-0.13744 0.32642,-0.23479 h 0.0573 z"
     style="font-size:11.72819138px;fill:#ffffff;fill-opacity:1;stroke-width:0.29320475px"
     id="path126" /><path
     d="m 288.64635,159.50874 -1.03653,0.83037 v 4.26636 h -1.07661 v -3.48181 l -0.99071,0.80746 v -0.91054 l 0.99071,-0.79028 v -4.53551 h 1.07661 v 3.75096 l 1.03653,-0.84754 z"
     style="font-size:11.72819138px;fill:#ffffff;fill-opacity:1;stroke-width:0.29320475px"
     id="path128" /><path
     d="M 294.77959,164.60547 H 293.7087 V 163.924 q -0.14316,0.0974 -0.38941,0.27488 -0.24052,0.1718 -0.46958,0.27488 -0.26916,0.13171 -0.61848,0.21761 -0.34933,0.0916 -0.81891,0.0916 -0.86473,0 -1.46603,-0.57267 -0.6013,-0.57267 -0.6013,-1.4603 0,-0.72728 0.30924,-1.17396 0.31497,-0.45241 0.89336,-0.71011 0.58412,-0.2577 1.40303,-0.34932 0.81891,-0.0916 1.75808,-0.13744 v -0.16608 q 0,-0.3665 -0.13171,-0.60702 -0.12599,-0.24052 -0.3665,-0.37796 -0.22907,-0.13171 -0.54976,-0.17753 -0.3207,-0.0458 -0.67002,-0.0458 -0.42378,0 -0.9449,0.11453 -0.52113,0.10881 -1.07661,0.3207 h -0.0573 v -1.0938 q 0.31497,-0.0859 0.91054,-0.18898 0.59557,-0.10308 1.17396,-0.10308 0.67575,0 1.17397,0.11454 0.50394,0.1088 0.87045,0.37796 0.36078,0.26342 0.54976,0.68147 0.18898,0.41804 0.18898,1.03652 z m -1.07089,-1.57483 v -1.78099 q -0.49249,0.0286 -1.16251,0.0859 -0.66429,0.0573 -1.0537,0.16607 -0.46386,0.13171 -0.75019,0.41232 -0.28634,0.27488 -0.28634,0.76165 0,0.54975 0.33215,0.83036 0.33215,0.27488 1.01362,0.27488 0.56694,0 1.03652,-0.21761 0.46959,-0.22334 0.87045,-0.53258 z"
     style="font-size:11.72819138px;fill:#ffffff;fill-opacity:1;stroke-width:0.29320475px"
     id="path130" /><path
     d="m 304.86423,158.20879 -1.66645,6.39668 h -0.99644 l -1.64355,-4.93065 -1.6321,4.93065 h -0.99071 l -1.68364,-6.39668 h 1.12243 l 1.17396,4.95356 1.59774,-4.95356 h 0.88763 l 1.63782,4.95356 1.11098,-4.95356 z"
     style="font-size:11.72819138px;fill:#ffffff;fill-opacity:1;stroke-width:0.29320475px"
     id="path132" /><path
     d="m 308.26014,162.97337 -1.61491,3.75096 h -0.8361 l 0.99644,-3.75096 z"
     style="font-size:11.72819138px;fill:#ffffff;fill-opacity:1;stroke-width:0.29320475px"
     id="path134" /><path
     d="m 320.07423,158.65547 q 0,0.56694 -0.20043,1.05371 -0.19471,0.48104 -0.54976,0.83609 -0.44096,0.44095 -1.04225,0.66429 -0.6013,0.21761 -1.51757,0.21761 h -1.13388 v 3.1783 h -1.13387 v -8.52699 h 2.31357 q 0.76737,0 1.29995,0.13171 0.53258,0.12599 0.94489,0.40087 0.48677,0.32642 0.7502,0.81318 0.26915,0.48677 0.26915,1.23123 z m -1.17969,0.0286 q 0,-0.44096 -0.15462,-0.76738 -0.15462,-0.32641 -0.46959,-0.53257 -0.27488,-0.17753 -0.62993,-0.25198 -0.34933,-0.0802 -0.88763,-0.0802 h -1.12243 v 3.40736 h 0.95636 q 0.68719,0 1.11669,-0.12026 0.4295,-0.12599 0.69866,-0.39514 0.26915,-0.27488 0.37796,-0.57839 0.11453,-0.30351 0.11453,-0.68147 z"
     style="font-size:11.72819138px;fill:#ffffff;fill-opacity:1;stroke-width:0.29320475px"
     id="path136" /><path
     d="m 326.66561,161.40999 q 0,1.56338 -0.80173,2.46819 -0.80173,0.90482 -2.1475,0.90482 -1.35721,0 -2.15895,-0.90482 -0.796,-0.90481 -0.796,-2.46819 0,-1.56337 0.796,-2.46818 0.80174,-0.91054 2.15895,-0.91054 1.34577,0 2.1475,0.91054 0.80173,0.90481 0.80173,2.46818 z m -1.11097,0 q 0,-1.24268 -0.48677,-1.84398 -0.48676,-0.60702 -1.35149,-0.60702 -0.87617,0 -1.36294,0.60702 -0.48104,0.6013 -0.48104,1.84398 0,1.2026 0.48677,1.82681 0.48676,0.61848 1.35721,0.61848 0.859,0 1.34577,-0.61276 0.49249,-0.61847 0.49249,-1.83253 z"
     style="font-size:11.72819138px;fill:#ffffff;fill-opacity:1;stroke-width:0.29320475px"
     id="path138" /><path
     d="m 329.42586,164.60547 h -1.07661 v -8.91068 h 1.07661 z"
     style="font-size:11.72819138px;fill:#ffffff;fill-opacity:1;stroke-width:0.29320475px"
     id="path140" /><path
     d="m 336.1375,162.76149 q 0,0.87617 -0.72729,1.43739 -0.72156,0.56121 -1.97569,0.56121 -0.71011,0 -1.30568,-0.16607 -0.58985,-0.1718 -0.99071,-0.37224 v -1.20832 h 0.0573 q 0.50968,0.38368 1.13388,0.61275 0.62421,0.22334 1.19687,0.22334 0.71011,0 1.11097,-0.22907 0.40087,-0.22906 0.40087,-0.72155 0,-0.37796 -0.21761,-0.57267 -0.21762,-0.19471 -0.8361,-0.33215 -0.22906,-0.0515 -0.60129,-0.12026 -0.36651,-0.0687 -0.67002,-0.14889 -0.84182,-0.22334 -1.19687,-0.65284 -0.34933,-0.43522 -0.34933,-1.06516 0,-0.39514 0.16035,-0.74446 0.16607,-0.34933 0.49821,-0.62421 0.3207,-0.26915 0.81319,-0.42377 0.49822,-0.16035 1.11097,-0.16035 0.57267,0 1.15679,0.14317 0.58984,0.13744 0.97925,0.33787 v 1.15106 h -0.0573 q -0.41232,-0.30351 -1.00217,-0.50967 -0.58984,-0.21189 -1.15678,-0.21189 -0.58985,0 -0.99644,0.22907 -0.40659,0.22334 -0.40659,0.67002 0,0.39514 0.24624,0.59557 0.24052,0.20043 0.77883,0.32642 0.29778,0.0687 0.66429,0.13744 0.37223,0.0687 0.61848,0.12599 0.75019,0.1718 1.15678,0.58984 0.4066,0.42377 0.4066,1.12243 z"
     style="font-size:11.72819138px;fill:#ffffff;fill-opacity:1;stroke-width:0.29320475px"
     id="path142" /><path
     d="m 343.49053,164.60547 h -1.42021 l -2.56554,-2.80034 -0.69866,0.6643 v 2.13604 h -1.07661 v -8.91068 h 1.07661 v 5.7152 l 3.10958,-3.2012 h 1.35722 l -2.97214,2.95496 z"
     style="font-size:11.72819138px;fill:#ffffff;fill-opacity:1;stroke-width:0.29320475px"
     id="path144" /><path
     d="m 349.59514,164.60547 h -1.07088 V 163.924 q -0.14317,0.0974 -0.38942,0.27488 -0.24052,0.1718 -0.46958,0.27488 -0.26916,0.13171 -0.61848,0.21761 -0.34933,0.0916 -0.81891,0.0916 -0.86473,0 -1.46603,-0.57267 -0.6013,-0.57267 -0.6013,-1.4603 0,-0.72728 0.30924,-1.17396 0.31497,-0.45241 0.89336,-0.71011 0.58412,-0.2577 1.40303,-0.34932 0.81891,-0.0916 1.75809,-0.13744 v -0.16608 q 0,-0.3665 -0.13172,-0.60702 -0.12598,-0.24052 -0.3665,-0.37796 -0.22907,-0.13171 -0.54976,-0.17753 -0.32069,-0.0458 -0.67002,-0.0458 -0.42377,0 -0.9449,0.11453 -0.52112,0.10881 -1.07661,0.3207 h -0.0573 v -1.0938 q 0.31497,-0.0859 0.91054,-0.18898 0.59557,-0.10308 1.17397,-0.10308 0.67574,0 1.17396,0.11454 0.50395,0.1088 0.87045,0.37796 0.36078,0.26342 0.54976,0.68147 0.18898,0.41804 0.18898,1.03652 z m -1.07088,-1.57483 v -1.78099 q -0.4925,0.0286 -1.16252,0.0859 -0.66429,0.0573 -1.0537,0.16607 -0.46386,0.13171 -0.75019,0.41232 -0.28633,0.27488 -0.28633,0.76165 0,0.54975 0.33214,0.83036 0.33215,0.27488 1.01362,0.27488 0.56694,0 1.03652,-0.21761 0.46959,-0.22334 0.87046,-0.53258 z"
     style="font-size:11.72819138px;fill:#ffffff;fill-opacity:1;stroke-width:0.29320475px"
     id="path146" /></g>

<g
   aria-label="organizator"
   style="font-size:75.02739716px;fill:#439197;stroke-width:6.25228357"
   id="text87"><path
     d="m 98.933648,207.30208 q 0,10.00121 -5.128826,15.78945 -5.128826,5.78825 -13.737927,5.78825 -8.682369,0 -13.811195,-5.78825 -5.092192,-5.78824 -5.092192,-15.78945 0,-10.00122 5.092192,-15.78946 5.128826,-5.82488 13.811195,-5.82488 8.609101,0 13.737927,5.82488 5.128826,5.78824 5.128826,15.78946 z m -7.107087,0 q 0,-7.94969 -3.11393,-11.7963 -3.11393,-3.88326 -8.645736,-3.88326 -5.605074,0 -8.719004,3.88326 -3.077295,3.84661 -3.077295,11.7963 0,7.69323 3.11393,11.68639 3.11393,3.95652 8.682369,3.95652 5.495171,0 8.609101,-3.91988 3.150565,-3.95653 3.150565,-11.72303 z"
     style="font-size:75.02739716px;fill:#439197;stroke-width:6.25228357"
     id="path65" /><path
     d="m 135.16514,194.33347 h -0.36634 q -1.53865,-0.36634 -3.00403,-0.51288 -1.42874,-0.18317 -3.40701,-0.18317 -3.18719,0 -6.15459,1.42874 -2.96739,1.39211 -5.71497,3.62681 v 29.05114 h -6.88728 v -40.9207 h 6.88728 v 6.04468 q 4.10306,-3.2971 7.21699,-4.65257 3.15056,-1.39211 6.41103,-1.39211 1.79509,0 2.60105,0.1099 0.80596,0.0733 2.41787,0.32971 z"
     style="font-size:75.02739716px;fill:#439197;stroke-width:6.25228357"
     id="path67" /><path
     d="m 174.91355,223.09153 q 0,10.40419 -4.72585,15.27658 -4.72585,4.87238 -14.54388,4.87238 -3.26047,0 -6.3744,-0.47625 -3.0773,-0.43961 -6.08132,-1.2822 v -7.03382 h 0.36634 q 1.68519,0.65942 5.34863,1.61192 3.66345,0.98913 7.3269,0.98913 3.51691,0 5.82488,-0.8426 2.30797,-0.84259 3.59018,-2.3446 1.2822,-1.42875 1.83172,-3.44364 0.54952,-2.0149 0.54952,-4.50604 v -3.73672 q -3.11393,2.49114 -5.97142,3.73672 -2.82086,1.20893 -7.21699,1.20893 -7.3269,0 -11.64976,-5.27536 -4.28624,-5.312 -4.28624,-14.94686 0,-5.27537 1.46538,-9.08535 1.50201,-3.84662 4.06643,-6.63084 2.38124,-2.60105 5.78824,-4.02979 3.40701,-1.46538 6.77738,-1.46538 3.55354,0 5.93479,0.73269 2.41787,0.69605 5.09219,2.16143 l 0.43961,-1.75845 h 6.44767 z m -6.88728,-6.5942 v -22.3104 q -2.74759,-1.24557 -5.12883,-1.75845 -2.34461,-0.54952 -4.68921,-0.54952 -5.67834,0 -8.93881,3.80999 -3.26047,3.80998 -3.26047,11.06361 0,6.88728 2.41787,10.44082 2.41788,3.55355 8.02295,3.55355 3.00403,0 6.00806,-1.13567 3.04066,-1.17231 5.56844,-3.11393 z"
     style="font-size:75.02739716px;fill:#439197;stroke-width:6.25228357"
     id="path69" /><path
     d="m 220.26702,227.74411 h -6.85065 v -4.3595 q -0.91586,0.62278 -2.49114,1.75845 -1.53865,1.09904 -3.00403,1.75846 -1.72182,0.84259 -3.95652,1.39211 -2.2347,0.58615 -5.23873,0.58615 -5.5318,0 -9.37842,-3.66345 -3.84662,-3.66345 -3.84662,-9.34179 0,-4.65258 1.97826,-7.51007 2.01489,-2.89412 5.71498,-4.54267 3.73671,-1.64855 8.97544,-2.2347 5.23873,-0.58615 11.24678,-0.87923 v -1.0624 q 0,-2.34461 -0.84259,-3.88325 -0.80596,-1.53865 -2.34461,-2.41788 -1.46537,-0.84259 -3.5169,-1.13567 -2.05153,-0.29307 -4.28624,-0.29307 -2.71095,0 -6.04469,0.73269 -3.33373,0.69605 -6.88728,2.05153 h -0.36634 v -6.99719 q 2.0149,-0.54951 5.82488,-1.20893 3.80999,-0.65943 7.51007,-0.65943 4.32286,0 7.51006,0.73269 3.22384,0.69606 5.56844,2.41788 2.30797,1.68519 3.51691,4.3595 1.20894,2.67432 1.20894,6.63084 z m -6.85065,-10.07448 v -11.39332 q -3.15056,0.18317 -7.43679,0.54952 -4.2496,0.36634 -6.74075,1.0624 -2.96739,0.84259 -4.79911,2.63768 -1.83173,1.75845 -1.83173,4.87238 0,3.51691 2.1248,5.312 2.1248,1.75846 6.4843,1.75846 3.62682,0 6.63084,-1.39211 3.00403,-1.42875 5.56844,-3.40701 z"
     style="font-size:75.02739716px;fill:#439197;stroke-width:6.25228357"
     id="path71" /><path
     d="m 267.81857,227.74411 h -6.88728 v -23.29952 q 0,-2.82086 -0.32971,-5.27537 -0.32971,-2.49114 -1.20894,-3.88325 -0.91586,-1.53865 -2.63768,-2.27134 -1.72182,-0.76932 -4.46941,-0.76932 -2.82085,0 -5.89815,1.39211 -3.07729,1.39211 -5.89815,3.55354 v 30.55315 h -6.88728 v -40.9207 h 6.88728 v 4.54267 q 3.22384,-2.67432 6.66748,-4.17633 3.44364,-1.50201 7.07045,-1.50201 6.63084,0 10.11111,3.99315 3.48028,3.99316 3.48028,11.50323 z"
     style="font-size:75.02739716px;fill:#439197;stroke-width:6.25228357"
     id="path73" /><path
     d="m 288.48041,179.97276 h -7.76651 v -7.14372 h 7.76651 z m -0.43962,47.77135 h -6.88728 v -40.9207 h 6.88728 z"
     style="font-size:75.02739716px;fill:#439197;stroke-width:6.25228357"
     id="path75" /><path
     d="m 331.416,227.74411 h -33.04429 v -5.09219 l 23.84904,-30.0769 h -23.33616 v -5.75161 h 31.90863 v 4.90901 l -23.95895,30.18681 H 331.416 Z"
     style="font-size:75.02739716px;fill:#439197;stroke-width:6.25228357"
     id="path77" /><path
     d="m 372.9595,227.74411 h -6.85064 v -4.3595 q -0.91587,0.62278 -2.49115,1.75845 -1.53865,1.09904 -3.00402,1.75846 -1.72182,0.84259 -3.95653,1.39211 -2.2347,0.58615 -5.23873,0.58615 -5.5318,0 -9.37842,-3.66345 -3.84662,-3.66345 -3.84662,-9.34179 0,-4.65258 1.97826,-7.51007 2.0149,-2.89412 5.71498,-4.54267 3.73671,-1.64855 8.97544,-2.2347 5.23873,-0.58615 11.24679,-0.87923 v -1.0624 q 0,-2.34461 -0.8426,-3.88325 -0.80596,-1.53865 -2.3446,-2.41788 -1.46538,-0.84259 -3.51691,-1.13567 -2.05153,-0.29307 -4.28624,-0.29307 -2.71095,0 -6.04468,0.73269 -3.33374,0.69605 -6.88728,2.05153 h -0.36635 v -6.99719 q 2.0149,-0.54951 5.82488,-1.20893 3.80999,-0.65943 7.51007,-0.65943 4.32287,0 7.51007,0.73269 3.22383,0.69606 5.56844,2.41788 2.30797,1.68519 3.5169,4.3595 1.20894,2.67432 1.20894,6.63084 z m -6.85064,-10.07448 v -11.39332 q -3.15057,0.18317 -7.4368,0.54952 -4.2496,0.36634 -6.74074,1.0624 -2.9674,0.84259 -4.79912,2.63768 -1.83172,1.75845 -1.83172,4.87238 0,3.51691 2.1248,5.312 2.12479,1.75846 6.4843,1.75846 3.62681,0 6.63084,-1.39211 3.00402,-1.42875 5.56844,-3.40701 z"
     style="font-size:75.02739716px;fill:#439197;stroke-width:6.25228357"
     id="path79" /><path
     d="m 407.54244,227.37777 q -1.94163,0.51288 -4.2496,0.84259 -2.27133,0.32971 -4.06642,0.32971 -6.2645,0 -9.52497,-3.37037 -3.26046,-3.37037 -3.26046,-10.80717 v -21.76088 h -4.65258 v -5.78824 h 4.65258 v -11.75967 h 6.88728 v 11.75967 h 14.21417 v 5.78824 h -14.21417 v 18.64695 q 0,3.22383 0.14653,5.05556 0.14654,1.79508 1.02577,3.37037 0.80596,1.46538 2.19807,2.16143 1.42874,0.65942 4.32287,0.65942 1.68518,0 3.5169,-0.47625 1.83173,-0.51288 2.63769,-0.84259 h 0.36634 z"
     style="font-size:75.02739716px;fill:#439197;stroke-width:6.25228357"
     id="path81" /><path
     d="m 450.77111,207.30208 q 0,10.00121 -5.12882,15.78945 -5.12883,5.78825 -13.73793,5.78825 -8.68237,0 -13.8112,-5.78825 -5.09219,-5.78824 -5.09219,-15.78945 0,-10.00122 5.09219,-15.78946 5.12883,-5.82488 13.8112,-5.82488 8.6091,0 13.73793,5.82488 5.12882,5.78824 5.12882,15.78946 z m -7.10709,0 q 0,-7.94969 -3.11393,-11.7963 -3.11393,-3.88326 -8.64573,-3.88326 -5.60508,0 -8.71901,3.88326 -3.07729,3.84661 -3.07729,11.7963 0,7.69323 3.11393,11.68639 3.11393,3.95652 8.68237,3.95652 5.49517,0 8.6091,-3.91988 3.15056,-3.95653 3.15056,-11.72303 z"
     style="font-size:75.02739716px;fill:#439197;stroke-width:6.25228357"
     id="path83" /><path
     d="m 487.00259,194.33347 h -0.36634 q -1.53865,-0.36634 -3.00403,-0.51288 -1.42874,-0.18317 -3.407,-0.18317 -3.1872,0 -6.15459,1.42874 -2.9674,1.39211 -5.71498,3.62681 v 29.05114 h -6.88728 v -40.9207 h 6.88728 v 6.04468 q 4.10306,-3.2971 7.21699,-4.65257 3.15056,-1.39211 6.41103,-1.39211 1.79509,0 2.60105,0.1099 0.80596,0.0733 2.41787,0.32971 z"
     style="font-size:75.02739716px;fill:#439197;stroke-width:6.25228357"
     id="path85" /></g>
</g><g
   inkscape:groupmode="layer"
   id="layer2"
   inkscape:label="default"><g
     style="enable-background:new 0 0 595.29999999999995453 841.89999999999997726"
     id="g85">
	<path
   class="st0"
   d="M404.5,112.5L404.5,112.5c0.1-0.5-0.4-2.4-2.6-9c-5.2-15.5-22.5-15.1-22.5-15.1s-0.1,0-0.2,0   c-1.7,0-15.6,0.7-19.7,15.1c-1.9,6.6-2.1,8.2-2.2,8.9v1.2c-6.5,4.9-8.8,11.6-6,20.5c0,0,2.9-8.5,5.1-8.5c0,0-1.4,13.5,8.4,20.6   c-2.8,0.4-6.8,1.6-7.6,5.3h4.3c0,0,0.2,2.3,0.8,3.3l6-2.6v2.6c0,0,5.3-0.8,5.6-4.9c2,0.4,4.2,0.5,6.7,0.5c1.9,0,3.6-0.1,5.2-0.4   c0.4,4,4.8,4.8,4.8,4.8v-2.6l5.1,2.6c0.6-1,0.7-3.3,0.7-3.3h3.7c-0.5-2.8-2.8-4.2-4.9-4.9c10.8-6.9,10.1-21,10.1-21   c2.6,0,5.8,8.8,5.8,8.8C416.4,121,406.6,116.1,404.5,112.5z"
   id="path4" />
	<path
   id="path67_3_"
   class="st1"
   d="M140.5,104.1h6.7c0.1,1.3,0.6,2.3,1.5,2.9c0.9,0.7,2.3,0.9,3.9,0.9c1.1,0,2.2-0.2,3-0.7   s1.1-1,1.1-1.9c0-1.1-1.4-2.1-4.1-2.6c-1.1-0.2-2.1-0.4-2.6-0.6c-3.5-0.8-5.7-1.9-6.9-3c-1.3-1.1-2-2.7-2-4.7   c0-2.4,0.9-4.5,2.8-6.2c2-1.5,4.5-2.3,7.6-2.3c3.4,0,6.1,0.8,8.1,2.3c1.9,1.6,2.9,3.8,3,6.4h-4.2c-1.2,0-2.2-0.6-2.8-1.7   c-0.3-0.3-0.6-0.6-0.8-0.8c-0.8-0.6-1.9-0.8-3.2-0.8s-2.3,0.2-2.9,0.6c-0.6,0.4-0.8,0.9-0.8,1.8c0,1,1.7,1.9,5.1,2.6   c0.4,0.1,0.8,0.2,1,0.3c0.3,0.1,0.6,0.1,0.8,0.1c3.3,0.8,5.6,1.8,6.9,2.9c1.2,1.1,1.9,2.7,1.9,4.7c0,2.9-1,5.1-3.1,6.7   c-2,1.4-4.9,2.2-8.8,2.2c-3.8,0-6.5-0.8-8.3-2.3c-1.9-1.5-2.8-3.7-2.8-6.6L140.5,104.1L140.5,104.1z" />
	<path
   id="path69_3_"
   class="st1"
   d="M185.2,104.6h4.9c-0.8,2.7-2.1,4.8-4.1,6.3s-4.6,2.3-7.6,2.3c-3.8,0-6.6-1.2-8.7-3.6   c-2.1-2.3-3.1-5.7-3.1-10c0-4.1,1-7.4,3-9.8c2.1-2.4,5-3.6,8.7-3.6c3.9,0,6.9,1.1,9.1,3.5c2.1,2.4,3.1,5.7,3.1,10   c0,0.3,0,0.5,0,0.7s0,0.3,0,0.4c0,0.3,0,0.6-0.1,0.7h-16.9c0.1,2,0.6,3.5,1.5,4.5c0.8,1,2.2,1.6,3.8,1.6c1.1,0,2.1-0.2,2.8-0.7   c0.2-0.1,0.4-0.2,0.6-0.4c0.2-0.2,0.4-0.4,0.6-0.6c0.1-0.2,0.3-0.5,0.8-0.8C183.8,104.8,184.5,104.6,185.2,104.6L185.2,104.6z    M173.5,97h9.9c-0.1-1.8-0.6-3.1-1.4-3.9c-0.8-0.9-2.1-1.4-3.6-1.4c-1.4,0-2.6,0.5-3.5,1.4S173.6,95.3,173.5,97z" />
	<path
   id="path71_3_"
   class="st1"
   d="M193.5,104.1h6.7c0.1,1.3,0.6,2.3,1.5,2.9c0.9,0.7,2.3,0.9,3.9,0.9c1.1,0,2.2-0.2,3-0.7   s1.1-1,1.1-1.9c0-1.1-1.4-2.1-4.1-2.6c-1.1-0.2-2.1-0.4-2.6-0.6c-3.5-0.8-5.7-1.9-6.9-3c-1.3-1.1-2-2.7-2-4.7   c0-2.4,0.9-4.5,2.8-6.2c2-1.5,4.5-2.3,7.6-2.3c3.4,0,6.1,0.8,8.1,2.3c1.9,1.6,2.9,3.8,3,6.4h-4.2c-1.2,0-2.2-0.6-2.8-1.7   c-0.3-0.3-0.6-0.6-0.8-0.8c-0.8-0.6-1.9-0.8-3.2-0.8s-2.3,0.2-2.9,0.6c-0.6,0.4-0.8,0.9-0.8,1.8c0,1,1.7,1.9,5.1,2.6   c0.4,0.1,0.8,0.2,1,0.3c0.3,0.1,0.6,0.1,0.8,0.1c3.3,0.8,5.6,1.8,6.9,2.9c1.2,1.1,1.9,2.7,1.9,4.7c0,2.9-1,5.1-3.1,6.7   c-2,1.4-4.9,2.2-8.8,2.2c-3.8,0-6.5-0.8-8.3-2.3c-1.9-1.5-2.8-3.7-2.8-6.6L193.5,104.1z" />
	<path
   id="path73_3_"
   class="st1"
   d="M217.9,123.5v-5.6h1.3c0.6,0,0.9-0.2,1.1-0.5c0.3-0.2,0.4-0.7,0.4-1.3v-3.4V93.1v-6.4h3.5   c0.9,0,1.7,0.3,2.3,0.9c0.7,0.7,0.9,1.4,0.9,2.3v22.6v4.5c0,2.3-0.7,3.8-2,4.9c-1.3,0.9-3.5,1.5-6.5,1.5L217.9,123.5z M220.7,79.1   h3.5c0.9,0,1.7,0.3,2.3,0.9c0.7,0.7,0.9,1.4,0.9,2.3v2.1h-6.9L220.7,79.1z" />
	<path
   id="path75_3_"
   class="st1"
   d="M248.1,111.6c-1.4,0.8-2.8,1.1-4.3,1.3s-2.9,0.3-4,0.3c-2.3,0-4.4-0.7-6.2-1.9   c-1.8-1.3-2.6-3.4-2.6-6.3c0-2.7,0.8-4.7,2.3-5.8s3.7-2,6.1-2.3c0.3,0,0.8-0.1,1.1-0.2c0.5-0.1,0.9-0.2,1.6-0.3   c2.9-0.4,4.3-1.2,4.3-2.5c0-0.9-0.5-1.6-1.5-1.9s-2-0.5-2.8-0.5c-0.9,0-1.7,0.1-2.4,0.4c-0.8,0.3-1.2,0.8-1.6,1.5h-6.6   c0.3-2,1.1-3.7,2.7-5c1.8-1.5,4.2-2.3,7.5-2.3c3.7,0,6.4,0.7,8.2,1.9c1.9,1.3,2.8,3.1,2.8,5.4v8.9c0,2.6-0.5,4.6-1.4,6.1   C250.4,109.9,249.3,110.9,248.1,111.6L248.1,111.6z M246.5,99.6c-0.9,0.5-2.2,0.8-3.8,1.3l-2.3,0.5c-1.1,0.3-2,0.8-2.5,1.3   c-0.5,0.8-0.7,1.4-0.7,2.2c0,0.9,0.3,1.8,0.8,2.3s1.4,0.8,2.5,0.8c1.8,0,3.3-0.6,4.3-1.6s1.6-2.4,1.6-4.3L246.5,99.6L246.5,99.6z" />
	<path
   id="path79_3_"
   class="st1"
   d="M135.8,117.8h3.5c0.9,0,1.7,0.3,2.3,0.9c0.7,0.7,0.9,1.4,0.9,2.3v30.4h-6.9L135.8,117.8z" />
	<path
   id="path81_3_"
   class="st1"
   d="M146.3,117.8h3.5c0.9,0,1.7,0.3,2.3,0.9c0.7,0.7,0.9,1.4,0.9,2.3v2.1h-6.9L146.3,117.8   L146.3,117.8z M146.3,125.4h3.5c0.9,0,1.7,0.3,2.3,0.9c0.7,0.7,0.9,1.4,0.9,2.3v22.7h-6.9L146.3,125.4L146.3,125.4z" />
	<path
   id="path83_3_"
   class="st1"
   d="M179.2,151.4h-3.4c-0.9,0-1.8-0.3-2.3-0.9c-0.7-0.7-0.9-1.4-0.9-2.3V135c0-1.6-0.5-2.7-1.4-3.4   c-0.9-0.8-2-1-3.2-1c-1.1,0-2.3,0.4-3.1,1c-0.9,0.8-1.4,1.9-1.4,3.4v16.5h-6.9v-15.2c0-4.4,1.1-7.4,3.5-8.9s4.9-2.3,7.7-2.4   c2.9,0,5.5,0.8,7.9,2.3s3.6,4.5,3.6,9.1L179.2,151.4z" />
	<path
   id="path85_3_"
   class="st1"
   d="M205.5,125.4v15.2c0,4.6-1.2,7.6-3.6,9.1c-2.4,1.4-5.1,2.2-7.9,2.2c-2.8-0.1-5.4-0.9-7.7-2.3   c-2.3-1.4-3.5-4.4-3.5-8.9v-15.2h6.9V142c0,1.6,0.5,2.7,1.4,3.4c0.9,0.8,2,1,3.1,1s2.3-0.4,3.2-1c0.9-0.8,1.4-1.9,1.4-3.4v-13.2   c0-0.9,0.3-1.7,0.9-2.3c0.7-0.7,1.4-0.9,2.3-0.9L205.5,125.4z" />
	<path
   id="path87_3_"
   class="st1"
   d="M216.2,125.4v9.6l8.3-9.6h8.2l-9.3,9.9l9.4,16.1h-8.2l-4.8-8.8c-0.9-1.8-1.8-2.5-2.5-2.3   c-0.8,0.3-1,0.7-1,1.1v3.6v6.3h-6.9v-33.6h3.5c0.9,0,1.7,0.3,2.3,0.9c0.7,0.7,0.9,1.4,0.9,2.3L216.2,125.4z" />
	<path
   id="path89_3_"
   class="st1"
   d="M234.6,142.7h6.7c0.1,1.3,0.6,2.3,1.5,2.9c0.9,0.7,2.3,0.9,3.9,0.9c1.1,0,2.2-0.2,3-0.7   s1.1-1,1.1-1.9c0-1.1-1.4-2.1-4.1-2.6c-1.1-0.2-2.1-0.4-2.6-0.6c-3.5-0.8-5.7-1.9-6.9-3c-1.3-1.1-2-2.7-2-4.7   c0-2.4,0.9-4.5,2.8-6.2c2-1.5,4.5-2.3,7.6-2.3c3.4,0,6.1,0.8,8.1,2.3c1.9,1.6,2.9,3.8,3,6.4h-4.2c-1.2,0-2.2-0.6-2.8-1.7   c-0.3-0.3-0.6-0.6-0.8-0.8c-0.8-0.6-1.9-0.8-3.2-0.8s-2.3,0.2-2.9,0.6c-0.6,0.4-0.8,0.9-0.8,1.8c0,1,1.7,1.9,5.1,2.6   c0.4,0.1,0.8,0.2,1,0.3c0.3,0.1,0.6,0.1,0.8,0.1c3.3,0.8,5.6,1.8,6.9,2.9c1.2,1.1,1.9,2.7,1.9,4.7c0,2.9-1,5.1-3.1,6.7   c-2,1.4-4.9,2.2-8.8,2.2c-3.8,0-6.5-0.8-8.3-2.3c-1.9-1.5-2.8-3.7-2.8-6.6L234.6,142.7z" />
	<path
   id="path91_3_"
   class="st1"
   d="M264.7,149c-1.4-1.1-2.3-2.7-2.9-4.7s-0.8-4-0.8-6.2c0-1.8,0.3-3.5,0.8-5.3s1.2-3.2,2.3-4.4   c1.7-2,3.8-3.1,6.6-3.5c2.6-0.4,5.1-0.2,7.2,0.7c2.4,0.9,4.3,2.6,5.4,5.1c1.1,2.2,1.7,4.7,1.7,7.5c0,2.1-0.2,3.8-0.7,5.4   c-0.5,1.5-1,2.7-1.8,3.8c-1.6,2.2-3.6,3.5-5.9,4c-2.2,0.6-4.3,0.7-6.5,0.2C267.7,151,266,150.1,264.7,149L264.7,149z M269.4,131.8   c-1.4,1.5-2,3.8-1.9,6.7c0.1,3,0.7,5.1,1.7,6.2c0.4,0.6,1,0.9,2.1,1.3c0.9,0.4,2,0.4,3,0.1s1.9-1,2.7-2.2c0.8-1.1,1.2-3.1,1.3-5.6   c0-2.3-0.4-4.1-1.1-5.3c-0.8-1.1-1.6-1.9-2.6-2.3c-0.9-0.3-2-0.4-2.9-0.1C270.5,131,269.9,131.4,269.4,131.8z" />
	<path
   id="path93_3_"
   class="st1"
   d="M314.3,151.4h-6.9l-4-18.6l-4,18.6h-6.9l-7.1-26h6.7l4.1,17.9l3.8-17.9h6.9l3.5,17.9l3.6-15.6   c0.4-1.6,1.4-2.3,3.1-2.3h4.3L314.3,151.4z" />
	<path
   id="path95_3_"
   class="st1"
   d="M340.3,150.2c-1.4,0.8-2.8,1.1-4.3,1.3s-2.9,0.3-4,0.3c-2.3,0-4.4-0.7-6.2-1.9   c-1.8-1.3-2.6-3.4-2.6-6.3c0-2.7,0.8-4.7,2.3-5.8c1.6-1.1,3.7-2,6.1-2.3c0.3,0,0.8-0.1,1.1-0.2c0.5-0.1,0.9-0.2,1.6-0.3   c2.9-0.4,4.3-1.2,4.3-2.5c0-0.9-0.5-1.6-1.5-1.9c-1-0.3-2-0.5-2.8-0.5c-0.9,0-1.7,0.1-2.4,0.4c-0.8,0.3-1.2,0.8-1.6,1.5h-6.6   c0.3-2,1.1-3.7,2.7-5c1.8-1.5,4.2-2.3,7.5-2.3c3.7,0,6.4,0.7,8.2,1.9c1.9,1.3,2.8,3.1,2.8,5.4v8.9c0,2.6-0.5,4.6-1.4,6.1   C342.7,148.6,341.6,149.6,340.3,150.2L340.3,150.2z M338.7,138.2c-0.9,0.5-2.2,0.8-3.8,1.3l-2.3,0.5c-1.1,0.3-2.1,0.8-2.5,1.3   c-0.5,0.8-0.7,1.4-0.7,2.2c0,0.9,0.3,1.8,0.8,2.3c0.6,0.6,1.4,0.8,2.5,0.8c1.8,0,3.3-0.6,4.3-1.6s1.6-2.4,1.6-4.3v-2.5H338.7z" />
	<g
   id="g3063_3_"
   transform="matrix(1.5410585,0,0,1.5410585,-650.35528,114.9297)">
		<g
   id="text3035_3_"
   transform="matrix(1.3550558,0,0,1.3550558,-191.22155,31.12899)">
			<path
   id="path3044_3_"
   class="st2"
   d="M495.7-36.8c-8,0-11.9,3.9-11.9,11.9v19.3H515v-31.3L495.7-36.8" />
		</g>
	</g>
	<g
   id="g3109_3_"
   transform="matrix(0.34688695,0,0,0.34688695,904.74796,-41.317344)">
		<g
   id="g7_3_">
			<path
   id="path9_3_"
   class="st3"
   d="M-1479.6,540.1c0,0,22.6-0.5,25.5,15.8h-10.7c0,0-0.4,6.7-2.1,9.6l-14.8-7.6v7.6     c0,0-13.6-2.3-14-14.8C-1496,538.2-1479.6,540.1-1479.6,540.1L-1479.6,540.1z" />
			<path
   id="path11_3_"
   class="st4"
   d="M-1458.6,550.4h-8.7l-0.9,9.1l-14.6-6.7l-1.7,6.7c0,0-10-11.7,5.7-17.2     C-1466.6,538-1458.6,548.4-1458.6,550.4" />
		</g>
		<g
   id="g13_3_">
			<path
   id="path15_2_"
   class="st3"
   d="M-1548.5,540.1c0,0-26.3-0.5-29.6,15.8h12.4c0,0,0.5,6.7,2.3,9.6l17.2-7.6v7.6     c0,0,15.8-2.3,16.2-14.8C-1529.3,538.2-1548.5,540.1-1548.5,540.1z" />
			<path
   id="path17_2_"
   class="st5"
   d="M-1572.7,550.4h10.1l1.1,9.1l17-6.7l2,6.7c0,0,11.6-11.7-6.7-17.2     C-1563.4,538-1572.7,548.4-1572.7,550.4" />
		</g>
		<path
   id="path19_2_"
   class="st6"
   d="M-1514.9,374.1c-5,0.1-44.9,1.9-56.8,43.6c-5.4,19.1-6.1,23.6-6.3,25.6c0,0.1,0,3.4-0.1,3.5    c-18.7,14-25.4,33.4-17.3,59c0,0,8.4-24.5,14.7-24.5c0,0-7.7,72.6,70,71.3c75.4,0,71.5-71.3,71.5-71.3c7.6,0,16.7,25.4,16.7,25.4    c14.4-38.9-13.6-53.1-19.7-63.3c-0.1-0.1-0.1-0.2-0.1-0.3c0.3-1-1-6.7-7.4-25.6c-15.1-44.6-64.8-43.6-64.8-43.6    S-1514.5,374.1-1514.9,374.1z" />
		<path
   id="path21_2_"
   class="st7"
   d="M-1452.1,474.2c0,0,22-2.5,29.9,24.6l0,0c0,0,12.2-22.3-23.9-52.9c0,0-3.3-73.4-75.2-69.6V520    C-1521.3,520.1-1458.9,534.3-1452.1,474.2L-1452.1,474.2z" />
		<path
   id="path25_2_"
   class="st7"
   d="M-1569.5,474.2c0,0-18.5-2.5-25.2,24.6l0,0c0,0-11.5-27.2,20.1-49.9c0,0,2.9-76.3,63.4-72.6    v143.8C-1511.2,520.1-1563.8,534.3-1569.5,474.2z" />
		<path
   id="path27_2_"
   class="st8"
   d="M-1555.9,391.4" />
		<path
   id="path29_2_"
   class="st9"
   d="M-1546.3,454.5c0,0,58.3-1.9,69.3,0c0,0,17.2,10.8,17.2,44.2c0,16-10.9,45.5-54.5,45.5    c0,0-46.7-2.3-46.7-45.5C-1561.1,498.8-1565.3,472.8-1546.3,454.5L-1546.3,454.5z" />
		<path
   id="path31_2_"
   class="st10"
   d="M-1546.3,454.5c0,0,53.7-2.5,64.9-0.8c0,0,21.2,7.4,21.2,36.4c0,9.3-9.2,37-50.8,37    c0,0-50.4,0.6-50.4-37C-1561.5,490.1-1562.4,468.1-1546.3,454.5z" />
		<path
   id="path33_2_"
   class="st11"
   d="M-1528.8,452.5c0,0,18.4-8.1,36.8,0c0,0-14.4,19.1-18.4,19.1    C-1512.8,471.6-1523.1,463.9-1528.8,452.5z" />
		<path
   id="path35_2_"
   class="st12"
   d="M-1532.7,452.5c0,0,18.4-8.1,36.8,0c0,0-14.4,19.1-18.4,19.1    C-1516.6,471.6-1527,463.9-1532.7,452.5z" />
		<path
   id="path37_2_"
   class="st13"
   d="M-1511.7,420.2c0,0-25.2-11.7-37.4-12.6c-12.2-0.8-27,29.2-7.7,43.1    c16.2,11.6,31.1,3.3,45-1.4c0,0,16.7,8.5,33.4,6.2c23.1-3.2,30.3-49.2,3.6-47.3l0,0C-1474.8,408.3-1489.2,403.5-1511.7,420.2z" />
		<path
   id="path39_2_"
   class="st10"
   d="M-1515.5,427.9c0,0-31.3-12.4-36.2-13.3c0,0-11.1,21,9.3,29.6    C-1542.4,444.1-1523.1,450.8-1515.5,427.9z" />
		<path
   id="path41_2_"
   class="st10"
   d="M-1470.8,414.1c0,0-31.6,11.6-35.9,14.2c0,0,5.8,23,26.7,16    C-1480,444.1-1461.3,436.2-1470.8,414.1L-1470.8,414.1z" />
		<path
   id="path43_2_"
   class="st14"
   d="M-1549,407.2c0,0,23.3,6.1,36.3,12.9c0,0,28.8-12.3,37.9-12.3l0,0c0,0-0.2-29.3-39.8-29.3    C-1514.6,378.6-1549,381-1549,407.2z" />
		<path
   id="path45_2_"
   class="st3"
   d="M-1532.7,448.9c0,0,18.4-8.1,36.8,0c0,0-14.4,19.1-18.4,19.1    C-1516.6,468.1-1527,460.4-1532.7,448.9z" />
		<path
   id="path47_2_"
   class="st13"
   d="M-1522.8,428.2c0,4.4-3.6,8.1-8.1,8.1c-4.4,0-8.1-3.6-8.1-8.1c0-4.4,3.6-8.1,8.1-8.1    S-1522.8,423.8-1522.8,428.2z" />
		<path
   id="path49_2_"
   class="st13"
   d="M-1482.4,428.2c0,4.4-3.6,8.1-8.1,8.1c-4.4,0-8.1-3.6-8.1-8.1c0-4.4,3.6-8.1,8.1-8.1    S-1482.4,423.8-1482.4,428.2z" />
		<path
   id="path51_3_"
   class="st10"
   d="M-1522.8,425.6c0,1.5-1.2,2.8-2.7,2.8s-2.8-1.2-2.8-2.8c0-1.5,1.2-2.7,2.8-2.7    C-1524,422.8-1522.8,424-1522.8,425.6z" />
		<path
   id="path53_3_"
   class="st10"
   d="M-1485.2,422.8c0,1.5-1.2,2.7-2.8,2.7c-1.5,0-2.7-1.2-2.7-2.7s1.2-2.8,2.7-2.8    C-1486.4,420.1-1485.2,421.3-1485.2,422.8z" />
		<path
   id="path55_3_"
   class="st10"
   d="M-1513.3,450.7c0,0-8.6-1.4-12.9,2.3l9.1,9.9L-1513.3,450.7z" />
		<path
   id="path57_3_"
   class="st14"
   d="M-1574.5,448.8c0,0,6.1-3.8,8.5,0c2.4,3.8-28.2,24.5-28.6,49.9c0,0-0.6,2.7-1.3-4.5    C-1596.6,487-1600.8,468-1574.5,448.8z" />
		<path
   id="path59_3_"
   class="st14"
   d="M-1446,445.9c0,0-4.5-0.8-7.1,2.9c-2.6,3.8,30.7,24.5,31.2,49.9c0,0,0.6,2.7,1.4-4.5    C-1419.9,487-1417.5,465.1-1446,445.9z" />
	</g>
	
	
<g
   aria-label="16"
   transform="matrix(0.37661836,0,0,0.37450321,56.480073,97.611422)"
   style="font-style:normal;font-weight:normal;font-size:5px;line-height:125%;font-family:sans-serif;letter-spacing:0px;word-spacing:0px;fill:#000000;fill-opacity:1;stroke:none;stroke-width:1px;stroke-linecap:butt;stroke-linejoin:miter;stroke-opacity:1"
   id="flowRoot94"><path
     inkscape:connector-curvature="0"
     id="path407"
     style="font-style:normal;font-variant:normal;font-weight:normal;font-stretch:normal;font-size:192px;font-family:Harabara;-inkscape-font-specification:Harabara;letter-spacing:6.9486227px;fill:#ffffff"
     d="m 118.1244,82.735686 q 0,10.875 5.625,17.625004 5.25,6.375 15.375,6.375 9.75,0 14.625,-6.375 5.25,-6.375004 5.25,-17.625004 0,-10.5 -5.625,-16.125 -5.25,-5.625 -15,-5.625 -9.375,0 -15,5.625 -5.25,6 -5.25,16.125 z m -0.375,-33.75 q 4.125,-4.125 10.875,-6.75 7.875,-2.625 14.25,-2.625 19.125,0 31.5,11.625 11.625,12.375 11.625,30.75 0,20.250004 -12.75,33.375004 -12.75,12 -34.125,12 -24.375,0 -36.75,-15.75 -11.999995,-15.750004 -11.999995,-47.625004 0,-34.125 13.124995,-51.75 13.5,-17.9999995 38.625,-17.9999995 17.625,0 28.5,9 10.5,9.3749995 12,24.3749995 h -19.5 q -3.75,0 -6,-2.25 -1.875,-2.25 -4.125,-4.875 -2.25,-1.875 -5.25,-3.75 -3,-1.875 -8.625,-1.875 -9.75,0 -15.375,8.625 -5.625,8.25 -6,25.5 z M 57.550781,125.48569 V 38.485686 h -24.375 v -18.75 q 8.25,0 16.875,-5.25 9,-5.6249995 12.375,-17.9999995 h 7.5 v 0 q 5.625,0 9.375,3.74999997 4.125,3.75000003 4.125,9.37500003 V 125.48569 Z" /></g></g></g>
</svg>