<?xml version="1.0" encoding="UTF-8" standalone="no"?>
<svg
   xmlns:dc="http://purl.org/dc/elements/1.1/"
   xmlns:cc="http://creativecommons.org/ns#"
   xmlns:rdf="http://www.w3.org/1999/02/22-rdf-syntax-ns#"
   xmlns:svg="http://www.w3.org/2000/svg"
   xmlns="http://www.w3.org/2000/svg"
   xmlns:sodipodi="http://sodipodi.sourceforge.net/DTD/sodipodi-0.dtd"
   xmlns:inkscape="http://www.inkscape.org/namespaces/inkscape"
   xml:space="preserve"
   enable-background="new 0 0 337.6 85"
   viewBox="0 0 337.6 106"
   y="0px"
   x="0px"
   id="Warstwa_1"
   version="1.1"
   sodipodi:docname="16_sesja_logo_data_eng.svg"
   width="337.60001"
   height="106"
   inkscape:version="0.92.3 (2405546, 2018-03-11)"><sodipodi:namedview
   pagecolor="#ffffff"
   bordercolor="#666666"
   borderopacity="1"
   objecttolerance="10"
   gridtolerance="10"
   guidetolerance="10"
   inkscape:pageopacity="0"
   inkscape:pageshadow="2"
   inkscape:window-width="1853"
   inkscape:window-height="1025"
   id="namedview47"
   showgrid="false"
   inkscape:zoom="3.3344608"
   inkscape:cx="231.99291"
   inkscape:cy="46.935753"
   inkscape:window-x="67"
   inkscape:window-y="27"
   inkscape:window-maximized="1"
   inkscape:current-layer="g78" /><metadata
   id="metadata85"><rdf:RDF><cc:Work
       rdf:about=""><dc:format>image/svg+xml</dc:format><dc:type
         rdf:resource="http://purl.org/dc/dcmitype/StillImage" /><dc:title></dc:title></cc:Work></rdf:RDF></metadata><defs
   id="defs83" />
<g
   id="g78"
   transform="translate(0,21)">
	<path
   id="path2"
   d="m 27.934824,-9.4153285 c -18.6000008,0 -27.90000082,9.30000004 -27.90000082,27.9000005 v 45.1 H 72.934824 V -9.4153285 Z"
   inkscape:connector-curvature="0"
   style="clip-rule:evenodd;fill:#388e92;fill-rule:evenodd" />
	<path
   id="path4"
   d="m 313.83482,57.484672 c 0,0 8.8,-0.2 9.9,6.1 h -4.1 c 0,0 -0.2,2.6 -0.8,3.7 l -5.7,-3 v 3 c 0,0 -5.3,-0.9 -5.4,-5.7 -0.2,-4.8 6.1,-4.1 6.1,-4.1 z"
   inkscape:connector-curvature="0"
   style="clip-rule:evenodd;fill:#eac716;fill-rule:evenodd" />
	<path
   id="path6"
   d="m 313.83482,57.484672 c 0,0 8.8,-0.2 9.9,6.1 h -4.1 c 0,0 -0.2,2.6 -0.8,3.7 l -5.7,-3 v 3 c 0,0 -5.3,-0.9 -5.4,-5.7 -0.2,-4.8 6.1,-4.1 6.1,-4.1 z"
   stroke-miterlimit="22.9256"
   inkscape:connector-curvature="0"
   style="fill:none;stroke:#000003;stroke-width:0.0649;stroke-miterlimit:22.92560005" />
	<path
   id="path8"
   d="m 287.13482,57.484672 c 0,0 -10.2,-0.2 -11.5,6.1 h 4.8 c 0,0 0.2,2.6 0.9,3.7 l 6.7,-3 v 3 c 0,0 6.1,-0.9 6.3,-5.7 0.2,-4.8 -7.2,-4.1 -7.2,-4.1 z"
   inkscape:connector-curvature="0"
   style="clip-rule:evenodd;fill:#eac716;fill-rule:evenodd" />
	<path
   id="path10"
   d="m 287.13482,57.484672 c 0,0 -10.2,-0.2 -11.5,6.1 h 4.8 c 0,0 0.2,2.6 0.9,3.7 l 6.7,-3 v 3 c 0,0 6.1,-0.9 6.3,-5.7 0.2,-4.8 -7.2,-4.1 -7.2,-4.1 z"
   stroke-miterlimit="22.9256"
   inkscape:connector-curvature="0"
   style="fill:none;stroke:#000003;stroke-width:0.0649;stroke-miterlimit:22.92560005" />
	<path
   id="path12"
   d="m 300.23482,-6.8153285 c -1.9,0 -17.4,0.7 -22,16.9000005 -2.1,7.4 -2.4,9.1 -2.4,9.9 0,0 0,1.3 0,1.3 -7.2,5.4 -9.9,12.9 -6.7,22.9 0,0 3.2,-9.5 5.7,-9.5 0,0 -3,28.1 27.1,27.6 29.2,0 27.7,-27.6 27.7,-27.6 2.9,0 6.5,9.9 6.5,9.9 5.6,-15 -5.3,-20.6 -7.6,-24.5 0,0 0,-0.1 -0.1,-0.1 0.1,-0.4 -0.4,-2.6 -2.9,-9.9 -5.9,-17.3000005 -25.1,-16.9000005 -25.1,-16.9000005 0,0 -0.1,0 -0.2,0 z"
   inkscape:connector-curvature="0"
   style="clip-rule:evenodd;fill:#000002;fill-rule:evenodd" />
	<path
   id="path14"
   d="m 324.53482,31.984672 c 0,0 8.5,-1 11.6,9.5 0,0 4.7,-8.7 -9.3,-20.5 0,0 -1.3,-28.4000005 -29.1,-27.0000005 V 49.684672 c 0,0 24.1,5.6 26.8,-17.7 z"
   inkscape:connector-curvature="0"
   style="clip-rule:evenodd;fill:#1d333f;fill-rule:evenodd" />
	<path
   id="path16"
   d="m 279.03482,31.984672 c 0,0 -7.2,-1 -9.8,9.5 0,0 -4.4,-10.5 7.8,-19.3 0,0 1.1,-29.6000005 24.5,-28.1000005 V 49.784672 c 0.1,-0.1 -20.3,5.5 -22.5,-17.8 z"
   inkscape:connector-curvature="0"
   style="clip-rule:evenodd;fill:#1d333f;fill-rule:evenodd" />
	<path
   id="path18"
   d="m 288.03482,24.384672 c 0,0 22.6,-0.7 26.8,0 0,0 6.7,4.2 6.7,17.1 0,6.2 -4.2,17.6 -21.1,17.6 0,0 -18.1,-0.9 -18.1,-17.6 -0.1,0 -1.7,-10.1 5.7,-17.1"
   inkscape:connector-curvature="0"
   style="clip-rule:evenodd;fill:#e0e6e9;fill-rule:evenodd" />
	<path
   id="path20"
   d="m 288.03482,24.384672 c 0,0 20.8,-1 25.1,-0.3 0,0 8.2,2.9 8.2,14.1 0,3.6 -3.6,14.3 -19.7,14.3 0,0 -19.5,0.2 -19.5,-14.3 0,0 -0.4,-8.6 5.9,-13.8 z"
   inkscape:connector-curvature="0"
   style="clip-rule:evenodd;fill:#ffffff;fill-rule:evenodd" />
	<path
   id="path22"
   d="m 294.73482,23.584672 c 0,0 7.1,-3.1 14.2,0 0,0 -5.6,7.4 -7.1,7.4 -0.9,0 -4.9,-3 -7.1,-7.4"
   inkscape:connector-curvature="0"
   style="clip-rule:evenodd;fill:#9ba4ae;fill-rule:evenodd" />
	<path
   id="path24"
   d="m 293.23482,23.584672 c 0,0 7.1,-3.1 14.2,0 0,0 -5.6,7.4 -7.1,7.4 -0.9,0 -4.9,-3 -7.1,-7.4"
   inkscape:connector-curvature="0"
   style="clip-rule:evenodd;fill:#000003;fill-rule:evenodd" />
	<path
   id="path26"
   d="m 301.43482,11.084672 c 0,0 -9.7,-4.5000002 -14.5,-4.9000002 -4.7,-0.3 -10.5,11.3000002 -3,16.7000002 6.3,4.5 12,1.3 17.4,-0.6 0,0 6.5,3.3 12.9,2.4 8.9,-1.2 11.7,-19.1000002 1.4,-18.3000002 0.1,0 -5.5,-1.8 -14.2,4.7000002 z"
   inkscape:connector-curvature="0"
   style="clip-rule:evenodd;fill:#000002;fill-rule:evenodd" />
	<path
   id="path28"
   d="m 299.93482,13.984672 c 0,0 -12.1,-4.8000001 -14,-5.2000001 0,0 -4.3,8.1000001 3.6,11.5000001 0,0 7.4,2.6 10.4,-6.3 z"
   inkscape:connector-curvature="0"
   style="clip-rule:evenodd;fill:#ffffff;fill-rule:evenodd" />
	<path
   id="path30"
   d="m 317.23482,8.6846719 c 0,0 -12.3,4.5000001 -13.9,5.5000001 0,0 2.2,8.9 10.3,6.2 0,-0.1 7.3,-3.1 3.6,-11.7000001 z"
   inkscape:connector-curvature="0"
   style="clip-rule:evenodd;fill:#ffffff;fill-rule:evenodd" />
	<path
   id="path32"
   d="m 286.93482,5.9846718 c 0,0 9,2.4000001 14.1,5.0000002 0,0 11.2,-4.8000002 14.7,-4.8000002 0,0 -0.1,-11.3000003 -15.4,-11.3000003 -0.1,0 -13.4,1 -13.4,11.1000003 z"
   inkscape:connector-curvature="0"
   style="clip-rule:evenodd;fill:#4d5b5c;fill-rule:evenodd" />
	<path
   id="path34"
   d="m 293.23482,22.184672 c 0,0 7.1,-3.1 14.2,0 0,0 -5.6,7.4 -7.1,7.4 -0.9,0 -4.9,-3 -7.1,-7.4 z"
   inkscape:connector-curvature="0"
   style="clip-rule:evenodd;fill:#eac716;fill-rule:evenodd" />
	<path
   id="path36"
   d="m 293.23482,22.184672 c 0,0 7.1,-3.1 14.2,0 0,0 -5.6,7.4 -7.1,7.4 -0.9,0 -4.9,-3 -7.1,-7.4 z"
   stroke-miterlimit="22.9256"
   inkscape:connector-curvature="0"
   style="fill:none;stroke:#000003;stroke-width:0.0649;stroke-miterlimit:22.92560005" />
	<path
   id="path38"
   d="m 297.13482,14.084672 c 0,1.7 -1.4,3.1 -3.1,3.1 -1.7,0 -3.1,-1.4 -3.1,-3.1 0,-1.7 1.4,-3.1 3.1,-3.1 1.7,0 3.1,1.4 3.1,3.1"
   inkscape:connector-curvature="0"
   style="clip-rule:evenodd;fill:#000002;fill-rule:evenodd" />
	<path
   id="path40"
   d="m 312.73482,14.084672 c 0,1.7 -1.4,3.1 -3.1,3.1 -1.7,0 -3.1,-1.4 -3.1,-3.1 0,-1.7 1.4,-3.1 3.1,-3.1 1.7,0 3.1,1.4 3.1,3.1"
   inkscape:connector-curvature="0"
   style="clip-rule:evenodd;fill:#000002;fill-rule:evenodd" />
	<path
   id="path42"
   d="m 297.13482,13.184672 c 0,0.6 -0.5,1.1 -1.1,1.1 -0.6,0 -1.1,-0.5 -1.1,-1.1 0,-0.6 0.5,-1.1 1.1,-1.1 0.6,0 1.1,0.5 1.1,1.1"
   inkscape:connector-curvature="0"
   style="clip-rule:evenodd;fill:#ffffff;fill-rule:evenodd" />
	<path
   id="path44"
   d="m 311.63482,12.084672 c 0,0.6 -0.5,1.1 -1.1,1.1 -0.6,0 -1.1,-0.5 -1.1,-1.1 0,-0.6 0.5,-1.1 1.1,-1.1 0.7,0 1.1,0.5 1.1,1.1"
   inkscape:connector-curvature="0"
   style="clip-rule:evenodd;fill:#ffffff;fill-rule:evenodd" />
	<path
   id="path46"
   d="m 300.73482,22.884672 c 0,0 -3.3,-0.6 -5,0.9 l 3.5,3.8 z"
   inkscape:connector-curvature="0"
   style="clip-rule:evenodd;fill:#ffffff;fill-rule:evenodd" />
	<path
   id="path48"
   d="m 277.03482,22.184672 c 0,0 2.4,-1.5 3.3,0 0.9,1.5 -10.9,9.5 -11.1,19.3 0,0 -0.2,1.1 -0.5,-1.7 -0.2,-2.9 -1.9,-10.2 8.3,-17.6 z"
   inkscape:connector-curvature="0"
   style="clip-rule:evenodd;fill:#4d5b5c;fill-rule:evenodd" />
	<path
   id="path50"
   d="m 326.83482,20.984672 c 0,0 -1.7,-0.3 -2.8,1.1 -1,1.5 11.9,9.5 12.1,19.3 0,0 0.2,1.1 0.5,-1.7 0.3,-2.8 1.3,-11.3 -9.8,-18.7 z"
   inkscape:connector-curvature="0"
   style="clip-rule:evenodd;fill:#4d5b5c;fill-rule:evenodd" />
	
	<path
   id="path54"
   d="m 81.934824,-17.715328 h 3.9 c 1,0 1.9,0.3 2.6,1 0.7,0.7 1.1,1.5 1.1,2.5 v 33.6 h -7.6 z"
   inkscape:connector-curvature="0"
   style="fill:#FFFFFF;fill-opacity:1;stroke:#000000;stroke-width:0.75px;stroke-opacity:1"  />
	<path
   id="path56"
   d="m 94.134824,-17.715328 h 3.9 c 1,0 1.900001,0.4 2.599996,1.1 0.7,0.7 1.1,1.6 1.1,2.6 v 2.3 h -7.599996 z m 0,8.3999995 h 3.9 c 1,0 1.900001,0.4 2.599996,1.1 0.7,0.7 1.1,1.6 1.1,2.6 V 19.484672 h -7.599996 z"
   inkscape:connector-curvature="0"
   style="fill:#FFFFFF;fill-opacity:1;stroke:#000000;stroke-width:0.75px;stroke-opacity:1"  />
	<path
   id="path58"
   d="m 129.83482,19.384672 h -3.8 c -1.1,0 -2,-0.3 -2.7,-1 -0.7,-0.7 -1,-1.6 -1,-2.6 V 1.0846715 c 0,-1.69999996 -0.5,-3 -1.6,-3.8 -1,-0.8 -2.2,-1.2 -3.5,-1.2 -1.3,0 -2.4,0.4 -3.5,1.2 -1,0.8 -1.5,2.00000004 -1.5,3.8 V 19.484672 h -7.6 V 2.5846715 c 0,-4.9 1.3,-8.2 3.8,-9.8 2.6,-1.7 5.4,-2.6 8.5,-2.7 3.2,0 6.1,0.8 8.7,2.5 2.7,1.6 4,5 4,10 V 19.384672 Z"
   inkscape:connector-curvature="0"
   style="fill:#FFFFFF;fill-opacity:1;stroke:#000000;stroke-width:0.75px;stroke-opacity:1"  />
	<path
   id="path60"
   d="M 158.83482,-9.3153285 V 7.4846718 c 0,5.1000002 -1.3,8.5000002 -4,10.0000002 -2.7,1.6 -5.6,2.4 -8.7,2.4 -3.1,-0.1 -5.9,-1 -8.5,-2.6 -2.6,-1.6 -3.8,-4.9 -3.8,-9.8000002 V -9.3153285 h 7.6 V 9.0846719 c 0,1.7000001 0.5,3.0000001 1.5,3.8000001 1,0.8 2.2,1.2 3.5,1.2 1.3,0 2.5,-0.4 3.5,-1.2 1.1,-0.8 1.6,-2 1.6,-3.8000001 V -5.6153285 c 0,-1 0.3,-1.9 1,-2.6 0.7,-0.7 1.6,-1.1 2.7,-1.1 z"
   inkscape:connector-curvature="0"
   style="fill:#FFFFFF;fill-opacity:1;stroke:#000000;stroke-width:0.75px;stroke-opacity:1"  />
	<path
   id="path62"
   d="m 190.53482,19.384672 h -8.6 l -5.1,-9.1 -5.3,9.1 h -8.7 l 9.4,-14.8000002 -8.9,-13.9000003 h 8.3 l 5,8.60000004 5.5,-9.29999954 c 0.6,-1.3 1.7,-1.9 3.2,-1.9 h 6.5 l -10.8,16.6999998 z"
   inkscape:connector-curvature="0"
   style="fill:#FFFFFF;fill-opacity:1;stroke:#000000;stroke-width:0.75px;stroke-opacity:1"  />
	<path
   id="path64"
   d="m 77.534824,53.584672 h 7.3 c 0.1,1.4 0.6,2.5 1.6,3.2 1.1,0.7 2.5,1.1 4.3,1.1 1.3,0 2.4,-0.3 3.3,-0.8 0.9,-0.5 1.3,-1.2 1.3,-2.1 0,-1.3 -1.5,-2.3 -4.5,-2.9 -1.3,-0.2 -2.3,-0.4 -2.9,-0.6 -3.8,-0.9 -6.4,-2.1 -7.7,-3.3 -1.4,-1.3 -2.2,-3 -2.2,-5.2 0,-2.7 1,-5 3.1,-6.8 2.2,-1.7 5,-2.5 8.4,-2.5 3.7,0 6.7,0.8 9,2.5 2.099996,1.8 3.199996,4.1 3.299996,7 h -4.599996 c -1.4,0 -2.4,-0.6 -3.1,-1.8 -0.3,-0.3 -0.6,-0.6 -0.9,-0.9 -0.9,-0.6 -2,-1 -3.6,-1 -1.4,0 -2.5,0.2 -3.2,0.6 -0.6,0.4 -1,1.1 -1,1.9 0,1.2 1.9,2.1 5.6,2.9 0.4,0.1 0.8,0.2 1.1,0.3 0.3,0.1 0.6,0.1 0.9,0.1 3.7,0.9 6.2,2 7.699996,3.2 1.4,1.3 2,3 2,5.2 0,3.2 -1.2,5.6 -3.499996,7.3 -2.2,1.6 -5.4,2.4 -9.7,2.4 -4.1,0 -7.2,-0.8 -9.2,-2.5 -2.1,-1.6 -3.1,-4.1 -3.1,-7.2 v -0.1 z"
   inkscape:connector-curvature="0"
   style="fill:#FFFFFF;fill-opacity:1;stroke:#000000;stroke-width:0.75px;stroke-opacity:1"  />
	<path
   id="path66"
   d="m 114.03482,45.784672 h 11 c -0.1,-1.9 -0.6,-3.4 -1.5,-4.3 -0.9,-1 -2.3,-1.5 -4,-1.5 -1.6,0 -2.9,0.5 -3.9,1.5 -1,1 -1.5,2.4 -1.6,4.3 m 12.9,8.4 h 5.4 c -0.8,3 -2.3,5.3 -4.5,6.9 -2.2,1.7 -5,2.5 -8.4,2.5 -4.1,0 -7.3,-1.3 -9.6,-4 -2.3,-2.6 -3.5,-6.3 -3.5,-11.1 0,-4.6 1.1,-8.2 3.3,-10.8 2.3,-2.7 5.5,-4 9.6,-4 4.3,0 7.7,1.3 10,3.9 2.3,2.7 3.5,6.4 3.5,11.1 0,0.3 0,0.5 0,0.8 0,0.2 0,0.4 0,0.4 0,0.4 0,0.6 -0.1,0.8 h -18.6 c 0.1,2.2 0.6,3.9 1.6,5 0.9,1.2 2.3,1.7 4.2,1.7 1.2,0 2.3,-0.2 3.1,-0.8 0.2,-0.1 0.4,-0.2 0.6,-0.4 0.2,-0.2 0.4,-0.4 0.6,-0.6 0.1,-0.2 0.3,-0.5 0.8,-0.9 0.5,-0.3 1.2,-0.5 2,-0.5 z"
   inkscape:connector-curvature="0"
   style="fill:#FFFFFF;fill-opacity:1;stroke:#000000;stroke-width:0.75px;stroke-opacity:1"  />
	<path
   id="path68"
   d="m 136.13482,53.584672 h 7.3 c 0.1,1.4 0.6,2.5 1.6,3.2 1.1,0.7 2.5,1.1 4.3,1.1 1.3,0 2.4,-0.3 3.3,-0.8 0.9,-0.5 1.3,-1.2 1.3,-2.1 0,-1.3 -1.5,-2.3 -4.5,-2.9 -1.3,-0.2 -2.3,-0.4 -2.9,-0.6 -3.8,-0.9 -6.4,-2.1 -7.7,-3.3 -1.4,-1.3 -2.2,-3 -2.2,-5.2 0,-2.7 1,-5 3.1,-6.8 2.2,-1.7 5,-2.5 8.4,-2.5 3.7,0 6.7,0.8 9,2.5 2.1,1.8 3.2,4.1 3.3,7 h -4.4 c -1.4,0 -2.4,-0.6 -3.1,-1.8 -0.3,-0.3 -0.6,-0.6 -0.9,-0.9 -0.9,-0.6 -2,-1 -3.6,-1 -1.4,0 -2.5,0.2 -3.2,0.6 -0.6,0.4 -1,1.1 -1,1.9 0,1.2 1.9,2.1 5.6,2.9 0.4,0.1 0.8,0.2 1.1,0.3 0.3,0.1 0.6,0.1 0.9,0.1 3.7,0.9 6.2,2 7.7,3.2 1.4,1.3 2,3 2,5.2 0,3.2 -1.2,5.6 -3.5,7.3 -2.2,1.6 -5.4,2.4 -9.7,2.4 -4.1,0 -7.2,-0.8 -9.2,-2.5 -2.1,-1.6 -3.1,-4.1 -3.1,-7.2 v -0.1 z"
   inkscape:connector-curvature="0"
   style="fill:#FFFFFF;fill-opacity:1;stroke:#000000;stroke-width:0.75px;stroke-opacity:1"  />
	<path
   id="path70"
   d="m 164.93482,53.584672 h 7.3 c 0.1,1.4 0.6,2.5 1.6,3.2 1.1,0.7 2.5,1.1 4.3,1.1 1.3,0 2.4,-0.3 3.3,-0.8 0.9,-0.5 1.3,-1.2 1.3,-2.1 0,-1.3 -1.5,-2.3 -4.5,-2.9 -1.3,-0.2 -2.3,-0.4 -2.9,-0.6 -3.8,-0.9 -6.4,-2.1 -7.7,-3.3 -1.4,-1.3 -2.2,-3 -2.2,-5.2 0,-2.7 1,-5 3.1,-6.8 2.2,-1.7 5,-2.5 8.4,-2.5 3.7,0 6.7,0.8 9,2.5 2.1,1.8 3.2,4.1 3.3,7 h -4.6 c -1.4,0 -2.4,-0.6 -3.1,-1.8 -0.3,-0.3 -0.6,-0.6 -0.9,-0.9 -0.9,-0.6 -2,-1 -3.6,-1 -1.4,0 -2.5,0.2 -3.2,0.6 -0.6,0.4 -1,1.1 -1,1.9 0,1.2 1.9,2.1 5.6,2.9 0.4,0.1 0.8,0.2 1.1,0.3 0.3,0.1 0.6,0.1 0.9,0.1 3.7,0.9 6.2,2 7.7,3.2 1.4,1.3 2,3 2,5.2 0,3.2 -1.2,5.6 -3.5,7.3 -2.2,1.6 -5.4,2.4 -9.7,2.4 -4.1,0 -7.2,-0.8 -9.2,-2.5 -2.1,-1.6 -3.1,-4.1 -3.1,-7.2 v -0.1 z"
   inkscape:connector-curvature="0"
   style="fill:#FFFFFF;fill-opacity:1;stroke:#000000;stroke-width:0.75px;stroke-opacity:1"  />
	<path
   id="path72"
   d="m 194.93482,25.884672 h 3.9 c 1,0 1.9,0.4 2.6,1.1 0.7,0.7 1.1,1.6 1.1,2.6 v 2.3 h -7.6 z m 0,8.4 h 3.9 c 1,0 1.9,0.4 2.6,1.1 0.7,0.7 1.1,1.6 1.1,2.6 v 25.1 h -7.6 z"
   inkscape:connector-curvature="0"
   style="fill:#FFFFFF;fill-opacity:1;stroke:#000000;stroke-width:0.75px;stroke-opacity:1"  />
	<path
   id="path74"
   d="m 214.33482,41.484672 c -1.5,1.7 -2.2,4.1 -2,7.4 0.1,3.3 0.8,5.6 1.8,6.9 0.4,0.6 1.2,1.1 2.3,1.5 1.1,0.4 2.2,0.4 3.3,0.1 1.1,-0.3 2.1,-1.1 3,-2.4 0.9,-1.3 1.3,-3.4 1.4,-6.3 0,-2.6 -0.4,-4.5 -1.2,-5.8 -0.8,-1.3 -1.8,-2.1 -2.9,-2.5 -1.1,-0.4 -2.2,-0.4 -3.2,-0.1 -1.2,0.3 -2,0.7 -2.5,1.2 m -5.1,19 c -1.5,-1.3 -2.6,-3 -3.2,-5.2 -0.6,-2.2 -1,-4.5 -1,-6.9 0,-1.9 0.3,-3.9 0.8,-5.8 0.5,-1.9 1.4,-3.6 2.5,-4.9 1.9,-2.2 4.3,-3.4 7.2,-3.8 2.9,-0.4 5.6,-0.2 8,0.7 2.7,1.1 4.8,3 6.1,5.6 1.2,2.4 1.8,5.1 1.8,8.3 0,2.3 -0.3,4.3 -0.8,5.9 -0.5,1.7 -1.2,3.1 -1.9,4.2 -1.7,2.4 -3.9,3.8 -6.6,4.4 -2.4,0.6 -4.8,0.7 -7.2,0.2 -2.4,-0.5 -4.3,-1.4 -5.7,-2.7 z"
   inkscape:connector-curvature="0"
   style="fill:#FFFFFF;fill-opacity:1;stroke:#000000;stroke-width:0.75px;stroke-opacity:1"  />
	<path
   id="path76"
   d="m 260.43482,63.084672 h -3.8 c -1.1,0 -2,-0.3 -2.7,-1 -0.7,-0.7 -1,-1.6 -1,-2.6 v -14.8 c 0,-1.7 -0.5,-3 -1.6,-3.8 -1,-0.8 -2.2,-1.2 -3.5,-1.2 -1.3,0 -2.4,0.4 -3.5,1.2 -1,0.8 -1.5,2 -1.5,3.8 v 18.4 h -7.6 v -16.9 c 0,-4.9 1.3,-8.2 3.8,-9.8 2.6,-1.7 5.4,-2.6 8.5,-2.7 3.2,0 6.1,0.8 8.7,2.5 2.7,1.6 4,5 4,10 v 16.9 z"
   inkscape:connector-curvature="0"
   style="fill:#FFFFFF;fill-opacity:1;stroke:#000000;stroke-width:0.75px;stroke-opacity:1"  />
<g
   aria-label="16"
   transform="matrix(1.1657122,0,0,1.1574199,-1.407969,3.3338258)"
   style="font-style:normal;font-weight:normal;font-size:5px;line-height:125%;font-family:sans-serif;letter-spacing:0px;word-spacing:0px;fill:#000000;fill-opacity:1;stroke:none;stroke-width:1px;stroke-linecap:butt;stroke-linejoin:miter;stroke-opacity:1"
   id="flowRoot87"><path
     id="path79"
     style="font-style:normal;font-variant:normal;font-weight:normal;font-stretch:normal;font-size:64px;font-family:Harabara;-inkscape-font-specification:Harabara;letter-spacing:3.88271403px;fill:#ffffff"
     d="m 37.529198,29.816192 q 0,3.625 1.875,5.875 1.75,2.125 5.125,2.125 3.25,0 4.875,-2.125 1.75,-2.125 1.75,-5.875 0,-3.5 -1.875,-5.375 -1.75,-1.875 -5,-1.875 -3.125,0 -5,1.875 -1.75,2 -1.75,5.375 z m -0.125,-11.25 q 1.375,-1.375 3.625,-2.25 2.625,-0.875 4.75,-0.875 6.375,0 10.5,3.875 3.875,4.125 3.875,10.25 0,6.75 -4.25,11.125 -4.25,4 -11.375,4 -8.125,0 -12.25,-5.25 -4,-5.25 -4,-15.875 0,-11.375 4.375,-17.2499996 4.5,-6 12.875,-6 5.875,0 9.5,3 3.5,3.125 4,8.1249996 h -6.5 q -1.25,0 -2,-0.75 -0.625,-0.7499996 -1.375,-1.6249996 -0.75,-0.625 -1.75,-1.25 -1,-0.625 -2.875,-0.625 -3.25,0 -5.125,2.8749996 -1.875,2.75 -2,8.5 z m -21.632714,25.5 v -29 H 7.6464844 V 8.8161924 q 2.7499996,0 5.6249996,-1.75 3,-1.875 4.125,-6 h 2.5 v 0 q 1.875,0 3.125,1.25 1.375,1.25 1.375,3.125 V 44.066192 Z" /></g><g
   aria-label="6-7th April 2019 | Wroclaw, Poland"
   transform="translate(3.3929649,-16.341354)"
   style="font-style:normal;font-weight:normal;font-size:5px;line-height:125%;font-family:sans-serif;letter-spacing:0px;word-spacing:0px;fill:#000000;fill-opacity:1;stroke:none;stroke-width:1px;stroke-linecap:butt;stroke-linejoin:miter;stroke-opacity:1"
   id="flowRoot49"><path
     id="path139"
     style="font-size:11.33333302px;fill:#FFFFFF;fill-opacity:1;stroke:#000000;stroke-width:0.25px;stroke-opacity:1"
     d="m 267.0332,90.727865 v -3.353516 h 1.01823 v 8.610677 h -1.01823 v -0.929688 q -0.32096,0.553386 -0.81347,0.824545 -0.48698,0.265625 -1.17318,0.265625 -1.12337,0 -1.83171,-0.896485 -0.7028,-0.896484 -0.7028,-2.357422 0,-1.460937 0.7028,-2.357421 0.70834,-0.896485 1.83171,-0.896485 0.6862,0 1.17318,0.271159 0.49251,0.265625 0.81347,0.819011 z m -3.46972,2.163736 q 0,1.123373 0.45931,1.7653 0.46484,0.636393 1.27278,0.636393 0.80795,0 1.27279,-0.636393 0.46484,-0.641927 0.46484,-1.7653 0,-1.123372 -0.46484,-1.759765 -0.46484,-0.641927 -1.27279,-0.641927 -0.80794,0 -1.27278,0.641927 -0.45931,0.636393 -0.45931,1.759765 z m -2.65072,-0.64746 v 3.740885 h -1.01823 v -3.707682 q 0,-0.879883 -0.3431,-1.317058 -0.3431,-0.437174 -1.0293,-0.437174 -0.82454,0 -1.30046,0.525716 -0.47591,0.525716 -0.47591,1.433268 v 3.50293 H 255.722 v -6.197917 h 1.02376 V 90.75 q 0.36524,-0.558919 0.85775,-0.835612 0.49805,-0.276693 1.14551,-0.276693 1.06803,0 1.61588,0.664063 0.54786,0.658528 0.54786,1.942383 z m -9.28581,0.625325 q -1.23405,0 -1.70996,0.282227 -0.47591,0.282226 -0.47591,0.96289 0,0.542318 0.35417,0.863281 0.3597,0.31543 0.97396,0.31543 0.84668,0 1.35579,-0.597656 0.51465,-0.60319 0.51465,-1.599284 v -0.226888 z m 2.03093,-0.420573 v 3.536133 h -1.01823 v -0.940755 q -0.34863,0.564453 -0.86882,0.835612 -0.52018,0.265625 -1.27278,0.265625 -0.95183,0 -1.51628,-0.53125 -0.55892,-0.536784 -0.55892,-1.433269 0,-1.045898 0.69727,-1.577148 0.7028,-0.53125 2.09179,-0.53125 h 1.42774 v -0.09961 q 0,-0.7028 -0.46485,-1.084636 -0.45931,-0.38737 -1.29492,-0.38737 -0.53125,0 -1.03483,0.127279 -0.50358,0.127279 -0.96842,0.381836 v -0.940755 q 0.55892,-0.21582 1.08463,-0.320964 0.52572,-0.110677 1.02377,-0.110677 1.34472,0 2.00878,0.697266 0.66407,0.697265 0.66407,2.113933 z m -7.99089,-5.074544 h 1.01823 v 8.610677 h -1.01823 z m -4.5267,3.126627 q -0.81901,0 -1.29492,0.641928 -0.47591,0.636393 -0.47591,1.748697 0,1.112305 0.47037,1.754232 0.47591,0.636393 1.30046,0.636393 0.81348,0 1.28939,-0.641927 0.47591,-0.641927 0.47591,-1.748698 0,-1.101237 -0.47591,-1.743164 -0.47591,-0.647461 -1.28939,-0.647461 z m 0,-0.863281 q 1.32812,0 2.08626,0.863281 0.75814,0.863282 0.75814,2.390625 0,1.52181 -0.75814,2.390625 -0.75814,0.863282 -2.08626,0.863282 -1.33366,0 -2.0918,-0.863282 -0.7526,-0.868815 -0.7526,-2.390625 0,-1.527343 0.7526,-2.390625 0.75814,-0.863281 2.0918,-0.863281 z m -7.68099,-0.996093 v 3.104492 h 1.4056 q 0.78027,0 1.20638,-0.403972 0.42611,-0.403971 0.42611,-1.151041 0,-0.741537 -0.42611,-1.145508 -0.42611,-0.403971 -1.20638,-0.403971 z m -1.11784,-0.91862 h 2.52344 q 1.389,0 2.09733,0.630859 0.71387,0.625326 0.71387,1.83724 0,1.222981 -0.71387,1.848307 -0.70833,0.625325 -2.09733,0.625325 h -1.4056 v 3.320313 h -1.11784 z m -7.00032,6.856445 h 1.16764 v 0.951823 l -0.90755,1.770833 h -0.71387 l 0.45378,-1.770833 z m -10.12695,-4.792318 h 1.01823 l 1.27279,4.836589 1.26725,-4.836589 h 1.20085 l 1.27278,4.836589 1.26726,-4.836589 h 1.01823 l -1.62142,6.197917 h -1.20085 l -1.33366,-5.080078 -1.33919,5.080078 h -1.20085 z m -3.54167,3.082357 q -1.23405,0 -1.70997,0.282227 -0.47591,0.282226 -0.47591,0.96289 0,0.542318 0.35417,0.863281 0.3597,0.31543 0.97396,0.31543 0.84668,0 1.35579,-0.597656 0.51465,-0.60319 0.51465,-1.599284 v -0.226888 z m 2.03092,-0.420573 v 3.536133 h -1.01823 v -0.940755 q -0.34863,0.564453 -0.86881,0.835612 -0.52019,0.265625 -1.27279,0.265625 -0.95182,0 -1.51628,-0.53125 -0.55892,-0.536784 -0.55892,-1.433269 0,-1.045898 0.69727,-1.577148 0.7028,-0.53125 2.0918,-0.53125 h 1.42773 v -0.09961 q 0,-0.7028 -0.46484,-1.084636 -0.45931,-0.38737 -1.29492,-0.38737 -0.53125,0 -1.03484,0.127279 -0.50358,0.127279 -0.96842,0.381836 v -0.940755 q 0.55892,-0.21582 1.08464,-0.320964 0.52571,-0.110677 1.02376,-0.110677 1.34473,0 2.00879,0.697266 0.66406,0.697265 0.66406,2.113933 z m -7.99087,-5.074544 h 1.01822 v 8.610677 h -1.01822 z m -1.78191,2.650716 v 0.951823 q -0.43164,-0.237956 -0.86882,-0.354167 -0.43164,-0.121745 -0.87435,-0.121745 -0.99056,0 -1.53841,0.63086 -0.54785,0.625325 -0.54785,1.759765 0,1.13444 0.54785,1.7653 0.54785,0.625325 1.53841,0.625325 0.44271,0 0.87435,-0.116211 0.43718,-0.121744 0.86882,-0.3597 v 0.940755 q -0.42611,0.199219 -0.88542,0.298828 -0.45378,0.09961 -0.96842,0.09961 -1.40007,0 -2.22461,-0.879883 -0.82455,-0.879883 -0.82455,-2.374024 0,-1.516276 0.83008,-2.385091 0.83561,-0.868815 2.28548,-0.868815 0.47038,0 0.91862,0.09961 0.44824,0.09407 0.86882,0.28776 z m -8.98698,0.475911 q -0.81901,0 -1.29492,0.641928 -0.47591,0.636393 -0.47591,1.748697 0,1.112305 0.47037,1.754232 0.47592,0.636393 1.30046,0.636393 0.81348,0 1.28939,-0.641927 0.47591,-0.641927 0.47591,-1.748698 0,-1.101237 -0.47591,-1.743164 -0.47591,-0.647461 -1.28939,-0.647461 z m 0,-0.863281 q 1.32812,0 2.08626,0.863281 0.75814,0.863282 0.75814,2.390625 0,1.52181 -0.75814,2.390625 -0.75814,0.863282 -2.08626,0.863282 -1.33366,0 -2.0918,-0.863282 -0.7526,-0.868815 -0.7526,-2.390625 0,-1.527343 0.7526,-2.390625 0.75814,-0.863281 2.0918,-0.863281 z m -3.23731,1.101237 q -0.17155,-0.09961 -0.3763,-0.14388 -0.19922,-0.0498 -0.44271,-0.0498 -0.86328,0 -1.32812,0.564453 -0.45931,0.55892 -0.45931,1.610352 v 3.264974 h -1.02377 v -6.197917 h 1.02377 V 90.75 q 0.32096,-0.564453 0.83561,-0.835612 0.51465,-0.276693 1.25065,-0.276693 0.10514,0 0.23242,0.0166 0.12728,0.01107 0.28223,0.03874 z m -14.97461,-3.01595 h 1.12891 l 1.73763,6.983724 1.7321,-6.983724 h 1.25618 l 1.73763,6.983724 1.7321,-6.983724 h 1.13444 l -2.0752,8.262044 h -1.4056 l -1.74316,-7.171875 -1.75977,7.171875 h -1.4056 z m -5.43423,-0.398438 v 11.333333 h -0.94076 V 87.324544 Z m -11.95866,8.488932 v -1.018229 q 0.42057,0.199219 0.85221,0.304362 0.43164,0.105143 0.84668,0.105143 1.10677,0 1.68783,-0.741536 0.58658,-0.74707 0.66959,-2.263346 -0.32096,0.475911 -0.81347,0.730468 -0.49252,0.254558 -1.09017,0.254558 -1.23959,0 -1.96452,-0.747071 -0.7194,-0.752604 -0.7194,-2.053059 0,-1.272787 0.7526,-2.041993 0.75261,-0.769205 2.00326,-0.769205 1.43326,0 2.18587,1.101237 0.75814,1.095703 0.75814,3.1875 0,1.95345 -0.92969,3.121093 -0.92415,1.16211 -2.49023,1.16211 -0.42058,0 -0.85222,-0.08301 -0.43164,-0.08301 -0.89648,-0.249024 z m 2.22461,-3.502929 q 0.7526,0 1.18978,-0.514649 0.4427,-0.514648 0.4427,-1.411132 0,-0.890951 -0.4427,-1.405599 -0.43718,-0.520183 -1.18978,-0.520183 -0.75261,0 -1.19532,0.520183 -0.43717,0.514648 -0.43717,1.405599 0,0.896484 0.43717,1.411132 0.44271,0.514649 1.19532,0.514649 z m -9.28028,2.733724 h 1.82617 v -6.30306 l -1.98665,0.398437 v -1.018229 l 1.97558,-0.398437 h 1.11784 v 7.321289 h 1.82617 v 0.940755 h -4.75911 z m -5.01921,-6.585287 q -0.86328,0 -1.30045,0.852214 -0.43164,0.84668 -0.43164,2.551107 0,1.698893 0.43164,2.551106 0.43717,0.84668 1.30045,0.84668 0.86882,0 1.30046,-0.84668 0.43717,-0.852213 0.43717,-2.551106 0,-1.704427 -0.43717,-2.551107 -0.43164,-0.852214 -1.30046,-0.852214 z m 0,-0.885416 q 1.389,0 2.11947,1.101237 0.736,1.095703 0.736,3.1875 0,2.086263 -0.736,3.187499 -0.73047,1.095704 -2.11947,1.095704 -1.389,0 -2.125,-1.095704 -0.73047,-1.101236 -0.73047,-3.187499 0,-2.091797 0.73047,-3.1875 0.736,-1.101237 2.125,-1.101237 z m -8.64388,7.470703 h 3.90137 v 0.940755 h -5.24609 v -0.940755 q 0.63639,-0.658529 1.73209,-1.7653 1.10124,-1.112304 1.38347,-1.433268 0.53678,-0.60319 0.74707,-1.018229 0.21582,-0.420573 0.21582,-0.824544 0,-0.658529 -0.46485,-1.073568 -0.45931,-0.415039 -1.20084,-0.415039 -0.52572,0 -1.11231,0.182617 -0.58105,0.182617 -1.24511,0.553385 v -1.128906 q 0.67513,-0.271159 1.26171,-0.409505 0.58659,-0.138346 1.07357,-0.138346 1.28386,0 2.04753,0.641927 0.76367,0.641927 0.76367,1.715495 0,0.509114 -0.19369,0.968424 -0.18815,0.453776 -0.69173,1.073568 -0.13834,0.160481 -0.87988,0.929687 -0.74154,0.763672 -2.0918,2.141602 z m -7.85807,-7.669922 h 1.01823 v 8.610677 h -1.01823 z m -3.14322,2.41276 h 1.01822 v 6.197917 h -1.01822 z m 0,-2.41276 h 1.01822 v 1.289388 h -1.01822 z m -1.07911,3.364583 q -0.17155,-0.09961 -0.3763,-0.14388 -0.19922,-0.0498 -0.44271,-0.0498 -0.86328,0 -1.32812,0.564453 -0.45931,0.55892 -0.45931,1.610352 v 3.264974 h -1.02377 v -6.197917 h 1.02377 V 90.75 q 0.32096,-0.564453 0.83561,-0.835612 0.51465,-0.276693 1.25065,-0.276693 0.10514,0 0.23242,0.0166 0.12728,0.01107 0.28223,0.03874 z m -9.80045,4.316406 v 3.28711 h -1.02377 v -8.555339 h 1.02377 v 0.940756 q 0.32096,-0.553386 0.80794,-0.819011 0.49251,-0.271159 1.17317,-0.271159 1.12891,0 1.83171,0.896485 0.70833,0.896484 0.70833,2.357421 0,1.460938 -0.70833,2.357422 -0.7028,0.896485 -1.83171,0.896485 -0.68066,0 -1.17317,-0.265625 -0.48698,-0.271159 -0.80794,-0.824545 z m 3.46419,-2.163737 q 0,-1.123372 -0.46485,-1.759765 -0.45931,-0.641927 -1.26725,-0.641927 -0.80794,0 -1.27278,0.641927 -0.45931,0.636393 -0.45931,1.759765 0,1.123373 0.45931,1.7653 0.46484,0.636393 1.27278,0.636393 0.80794,0 1.26725,-0.636393 0.46485,-0.641927 0.46485,-1.7653 z m -9.39095,-4.067382 -1.51628,4.111653 h 3.03809 z m -0.63086,-1.101237 h 1.26725 l 3.14876,8.262044 h -1.1621 l -0.75261,-2.119466 h -3.72428 l -0.75261,2.119466 h -1.17871 z m -7.82487,4.521159 v 3.740885 h -1.01823 v -3.707682 q 0,-0.879883 -0.3431,-1.317058 -0.3431,-0.437174 -1.029294,-0.437174 -0.824545,0 -1.300456,0.525716 -0.475911,0.525716 -0.475911,1.433268 v 3.50293 h -1.023763 v -8.610677 h 1.023763 V 90.75 q 0.365234,-0.558919 0.857747,-0.835612 0.498047,-0.276693 1.145504,-0.276693 1.06804,0 1.61589,0.664063 0.54785,0.658528 0.54785,1.942383 z m -8.594075,-4.216797 v 1.759765 h 2.097331 v 0.791341 h -2.097331 v 3.364584 q 0,0.758138 0.204753,0.973958 0.210286,0.21582 0.84668,0.21582 h 1.045898 v 0.852214 h -1.045898 q -1.178711,0 -1.626954,-0.437175 -0.448242,-0.442708 -0.448242,-1.604817 V 90.57845 h -0.74707 v -0.791341 h 0.74707 v -1.759765 z m -8.361654,-0.304362 h 5.3125 v 0.475911 l -2.999349,7.786133 h -1.167643 l 2.822265,-7.321289 h -3.967773 z m -4.471354,4.703776 h 2.982747 v 0.907552 h -2.982747 z m -4.028645,-1.018229 q -0.752605,0 -1.195313,0.514648 -0.437174,0.514648 -0.437174,1.411133 0,0.89095 0.437174,1.411133 0.442708,0.514648 1.195313,0.514648 0.752604,0 1.189778,-0.514648 0.442708,-0.520183 0.442708,-1.411133 0,-0.896485 -0.442708,-1.411133 -0.437174,-0.514648 -1.189778,-0.514648 z m 2.219075,-3.50293 v 1.018229 q -0.420573,-0.199219 -0.852213,-0.304362 -0.426107,-0.105143 -0.84668,-0.105143 -1.106771,0 -1.693359,0.74707 -0.581055,0.74707 -0.664063,2.257813 0.326497,-0.481446 0.81901,-0.736003 0.492513,-0.260091 1.084636,-0.260091 1.245117,0 1.964518,0.758138 0.724935,0.752604 0.724935,2.05306 0,1.272786 -0.752604,2.041992 -0.752604,0.769206 -2.003255,0.769206 -1.433269,0 -2.191407,-1.095704 -0.758138,-1.101236 -0.758138,-3.187499 0,-1.958985 0.929688,-3.121094 0.929687,-1.167643 2.495768,-1.167643 0.420573,0 0.84668,0.08301 0.43164,0.08301 0.896484,0.249023 z" /></g></g>
</svg>