<?xml version="1.0" encoding="UTF-8" standalone="no"?>
<!-- Generator: Adobe Illustrator 14.0.0, SVG Export Plug-In . SVG Version: 6.00 Build 43363)  -->

<svg
   xmlns:dc="http://purl.org/dc/elements/1.1/"
   xmlns:cc="http://creativecommons.org/ns#"
   xmlns:rdf="http://www.w3.org/1999/02/22-rdf-syntax-ns#"
   xmlns:svg="http://www.w3.org/2000/svg"
   xmlns="http://www.w3.org/2000/svg"
   xmlns:sodipodi="http://sodipodi.sourceforge.net/DTD/sodipodi-0.dtd"
   xmlns:inkscape="http://www.inkscape.org/namespaces/inkscape"
   version="1.1"
   id="Layer_1"
   x="0px"
   y="0px"
   width="1229.9869"
   height="346.59857"
   viewBox="0 0 1229.9869 346.59857"
   enable-background="new 0 0 1674.168 1027.062"
   xml:space="preserve"
   inkscape:version="0.91 r13725"
   sodipodi:docname="13_sesja_logo_data_wektor.svg"
   inkscape:export-filename="C:\Users\kitor\Desktop\13_sesja_logo.png"
   inkscape:export-xdpi="46.829765"
   inkscape:export-ydpi="46.829765"><metadata
     id="metadata107"><rdf:RDF><cc:Work
         rdf:about=""><dc:format>image/svg+xml</dc:format><dc:type
           rdf:resource="http://purl.org/dc/dcmitype/StillImage" /><dc:title></dc:title></cc:Work></rdf:RDF></metadata><defs
     id="defs105" /><sodipodi:namedview
     pagecolor="#ffffff"
     bordercolor="#666666"
     borderopacity="1"
     objecttolerance="10"
     gridtolerance="10"
     guidetolerance="10"
     inkscape:pageopacity="0"
     inkscape:pageshadow="2"
     inkscape:window-width="1366"
     inkscape:window-height="715"
     id="namedview103"
     showgrid="false"
     inkscape:zoom="0.6284763"
     inkscape:cx="924.34794"
     inkscape:cy="297.03376"
     inkscape:window-x="-8"
     inkscape:window-y="586"
     inkscape:window-maximized="1"
     inkscape:current-layer="Layer_1"
     showguides="true"
     inkscape:guide-bbox="true"
     fit-margin-top="20"
     fit-margin-left="20"
     fit-margin-right="20"
     fit-margin-bottom="20"><inkscape:grid
       type="xygrid"
       id="grid3002"
       originx="-237.70484"
       originy="85.869873" /><sodipodi:guide
       orientation="0,1"
       position="10.50192,97.43182"
       id="guide3054" /><sodipodi:guide
       position="33.175806,164.65791"
       orientation="1,0"
       id="guide3406" /><sodipodi:guide
       position="262.93751,134.05438"
       orientation="1,0"
       id="guide4202" /><sodipodi:guide
       position="980.94389,145.59022"
       orientation="1,0"
       id="guide4204" /><sodipodi:guide
       position="327.37908,30.231848"
       orientation="0,1"
       id="guide4206" /></sodipodi:namedview><g
     id="g63"
     transform="translate(1.7505961,-723.39839)"><g
       id="g65"><path
         d="m 277.06259,829.18639 22.788,0 c 0.22,4.472 1.896,7.822 5.026,10.053 3.351,2.236 7.817,3.352 13.404,3.352 4.021,0 7.482,-0.78 10.389,-2.346 2.681,-1.561 4.021,-3.687 4.021,-6.367 0,-4.021 -4.691,-7.037 -14.074,-9.048 -4.021,-0.67 -7.038,-1.341 -9.048,-2.011 -11.844,-2.9 -19.771,-6.367 -23.792,-10.389 -4.472,-4.021 -6.702,-9.383 -6.702,-16.085 0,-8.487 3.236,-15.524 9.718,-21.111 6.702,-5.137 15.415,-7.708 26.138,-7.708 11.614,0 20.887,2.571 27.814,7.708 6.477,5.587 9.938,12.849 10.388,21.781 l -14.409,0 c -4.247,0 -7.488,-1.896 -9.718,-5.696 -0.896,-0.891 -1.791,-1.786 -2.681,-2.681 -2.681,-2.011 -6.367,-3.017 -11.059,-3.017 -4.471,0 -7.822,0.671 -10.053,2.011 -2.01,1.341 -3.016,3.352 -3.016,6.032 0,3.576 5.807,6.592 17.425,9.048 1.341,0.45 2.514,0.785 3.519,1.005 1.005,0.226 1.953,0.335 2.848,0.335 11.394,2.906 19.321,6.258 23.792,10.054 4.241,4.021 6.367,9.383 6.367,16.085 0,9.834 -3.576,17.426 -10.723,22.787 -6.702,4.917 -16.755,7.373 -30.16,7.373 -12.734,0 -22.232,-2.565 -28.484,-7.708 -6.482,-5.137 -9.718,-12.618 -9.718,-22.452 l 0,-1.005 z"
         id="path67"
         inkscape:connector-curvature="0"
         style="fill:#429096;fill-opacity:1" /><path
         d="m 430.40759,831.19739 16.755,0 c -2.461,9.383 -7.153,16.535 -14.075,21.446 -6.927,5.143 -15.64,7.708 -26.138,7.708 -12.734,0 -22.678,-4.132 -29.825,-12.399 -7.152,-8.042 -10.724,-19.546 -10.724,-34.516 0,-14.295 3.461,-25.469 10.389,-33.511 7.147,-8.263 17.09,-12.399 29.824,-12.399 13.404,0 23.793,4.021 31.165,12.063 7.147,8.269 10.724,19.771 10.724,34.517 0,0.896 0,1.676 0,2.346 0,0.67 0,1.12 0,1.341 0,1.12 -0.115,1.9 -0.335,2.346 l -57.974,0 c 0.22,6.927 1.895,12.063 5.026,15.415 2.901,3.576 7.257,5.361 13.069,5.361 3.796,0 7.037,-0.78 9.718,-2.346 0.67,-0.22 1.283,-0.612 1.843,-1.173 0.555,-0.555 1.173,-1.173 1.843,-1.843 0.22,-0.671 1.058,-1.561 2.513,-2.682 1.453,-1.115 3.521,-1.674 6.202,-1.674 z m -40.213,-26.139 34.181,0 c -0.45,-6.032 -2.011,-10.498 -4.691,-13.404 -2.906,-3.126 -7.037,-4.691 -12.399,-4.691 -4.917,0 -8.938,1.565 -12.064,4.691 -3.132,3.13 -4.807,7.597 -5.027,13.404 z"
         id="path69"
         inkscape:connector-curvature="0"
         style="fill:#429096;fill-opacity:1" /><path
         d="m 458.75759,829.18639 22.788,0 c 0.22,4.472 1.896,7.822 5.026,10.053 3.351,2.236 7.817,3.352 13.404,3.352 4.021,0 7.482,-0.78 10.389,-2.346 2.681,-1.561 4.021,-3.687 4.021,-6.367 0,-4.021 -4.691,-7.037 -14.074,-9.048 -4.021,-0.67 -7.038,-1.341 -9.048,-2.011 -11.844,-2.9 -19.771,-6.367 -23.792,-10.389 -4.472,-4.021 -6.702,-9.383 -6.702,-16.085 0,-8.487 3.236,-15.524 9.718,-21.111 6.702,-5.137 15.415,-7.708 26.138,-7.708 11.614,0 20.887,2.571 27.814,7.708 6.477,5.587 9.938,12.849 10.388,21.781 l -14.41,0 c -4.247,0 -7.488,-1.896 -9.718,-5.696 -0.896,-0.891 -1.791,-1.786 -2.681,-2.681 -2.681,-2.011 -6.367,-3.017 -11.059,-3.017 -4.471,0 -7.822,0.671 -10.053,2.011 -2.01,1.341 -3.016,3.352 -3.016,6.032 0,3.576 5.807,6.592 17.425,9.048 1.341,0.45 2.514,0.785 3.519,1.005 1.005,0.226 1.953,0.335 2.848,0.335 11.394,2.906 19.321,6.258 23.792,10.054 4.241,4.021 6.367,9.383 6.367,16.085 0,9.834 -3.576,17.426 -10.723,22.787 -6.702,4.917 -16.755,7.373 -30.16,7.373 -12.734,0 -22.232,-2.565 -28.484,-7.708 -6.482,-5.137 -9.718,-12.618 -9.718,-22.452 l 0,-1.005 z"
         id="path71"
         inkscape:connector-curvature="0"
         style="fill:#429096;fill-opacity:1" /><path
         d="m 542.40059,895.87239 0,-19.437 4.356,0 c 2.011,0 3.351,-0.561 4.021,-1.676 0.89,-0.67 1.34,-2.126 1.34,-4.356 l 0,-11.729 0,-67.356 0,-21.782 12.064,0 c 3.126,0 5.807,1.12 8.042,3.351 2.23002,2.236 3.35102,4.917 3.35102,8.043 l 0,77.745 0,15.415 c 0,7.592 -2.23602,13.179 -6.70202,16.755 -4.472,3.352 -11.844,5.027 -22.117,5.027 l -4.355,0 z m 9.718,-152.474 12.064,0 c 3.126,0 5.807,1.121 8.042,3.352 2.23002,2.235 3.35102,4.916 3.35102,8.042 l 0,7.038 -23.45802,0 0,-18.432 z"
         id="path73"
         inkscape:connector-curvature="0"
         style="fill:#429096;fill-opacity:1" /><path
         d="m 646.14963,854.98939 c -4.691,2.461 -9.666,3.964 -14.912,4.524 -5.252,0.555 -9.886,0.838 -13.907,0.838 -8.042,0 -15.08,-2.179 -21.112,-6.535 -6.032,-4.356 -9.048,-11.561 -9.048,-21.614 0,-9.383 2.733,-16.085 8.21,-20.106 5.472,-4.021 12.451,-6.702 20.944,-8.043 1.115,0 2.456,-0.167 4.021,-0.502 1.561,-0.335 3.351,-0.613 5.362,-0.838 9.828,-1.341 14.745,-4.241 14.745,-8.713 0,-3.352 -1.733,-5.529 -5.194,-6.534 -3.466,-1.006 -6.649,-1.509 -9.55,-1.509 -3.131,0 -5.922,0.45 -8.378,1.341 -2.461,0.896 -4.246,2.571 -5.362,5.026 l -22.452,0 c 0.89,-6.922 4.021,-12.619 9.383,-17.09 6.032,-5.137 14.629,-7.708 25.803,-7.708 12.509,0 21.892,2.126 28.149,6.367 6.477,4.472 9.718,10.724 9.718,18.766 l 0,30.495 c 0,8.938 -1.623,15.918 -4.859,20.944 -3.24,5.026 -7.094,8.66 -11.561,10.891 z m -5.361,-41.218 c -3.131,1.565 -7.487,3.016 -13.069,4.356 l -7.708,1.676 c -4.021,1.12 -6.927,2.57 -8.713,4.356 -1.565,2.461 -2.346,4.916 -2.346,7.372 0,3.351 1.005,6.032 3.016,8.042 2.011,1.791 4.912,2.682 8.713,2.682 6.252,0 11.168,-1.786 14.745,-5.362 3.571,-3.57 5.361,-8.487 5.361,-14.744 l 0,-8.378 z"
         id="path75"
         inkscape:connector-curvature="0"
         style="fill:#429096;fill-opacity:1" /><path
         d="m 261.01623,876.16171 12.064,0 c 3.126,0 5.807,1.063 8.042,3.184 2.23,2.126 3.351,4.749 3.351,7.875 l 0,104.21896 -23.458,0 0,-115.27796 z"
         id="path79"
         style="fill:#323f49;fill-opacity:1"
         inkscape:connector-curvature="0" /><path
         d="m 296.834,876.16171 12.064,0 c 3.125,0 5.806,1.121 8.042,3.352 2.23,2.235 3.351,4.916 3.351,8.042 l 0,7.038 -23.457,0 0,-18.432 z m 0,26.138 12.064,0 c 3.125,0 5.806,1.12 8.042,3.351 2.23,2.236 3.351,4.917 3.351,8.043 l 0,77.74496 -23.457,0 0,-89.13896 z"
         id="path81"
         style="fill:#323f49;fill-opacity:1"
         inkscape:connector-curvature="0" /><path
         d="m 409.87123,991.43867 -11.729,0 c -3.352,0 -6.09,-1.058 -8.211,-3.184 -2.125,-2.12 -3.183,-4.859 -3.183,-8.21 l 0,-45.57496 c 0,-5.361 -1.624,-9.268 -4.859,-11.729 -3.241,-2.455 -6.87,-3.686 -10.892,-3.686 -4.021,0 -7.597,1.23 -10.723,3.686 -3.132,2.461 -4.691,6.367 -4.691,11.729 l 0,56.96896 -23.458,0 0,-52.27596 c 0,-15.19 3.964,-25.354 11.896,-30.495 7.927,-5.137 16.697,-7.928 26.306,-8.378 9.828,0 18.876,2.571 27.144,7.708 8.263,5.142 12.399,15.529 12.399,31.165 l 0,52.27596 z"
         id="path83"
         style="fill:#323f49;fill-opacity:1"
         inkscape:connector-curvature="0" /><path
         d="m 499.88123,902.29971 0,52.276 c 0,15.865 -4.137,26.25396 -12.399,31.16496 -8.268,4.917 -17.315,7.373 -27.144,7.373 -9.608,-0.45 -18.379,-3.126 -26.306,-8.043 -7.933,-4.911 -11.896,-15.07996 -11.896,-30.49496 l 0,-52.276 23.458,0 0,56.969 c 0,5.361 1.56,9.272 4.691,11.729 3.126,2.461 6.702,3.686 10.723,3.686 4.021,0 7.65,-1.225 10.892,-3.686 3.235,-2.456 4.859,-6.367 4.859,-11.729 l 0,-45.575 c 0,-3.126 1.058,-5.807 3.183,-8.043 2.121,-2.23 4.859,-3.351 8.211,-3.351 l 11.728,0 z"
         id="path85"
         style="fill:#323f49;fill-opacity:1"
         inkscape:connector-curvature="0" /><path
         d="m 536.72934,902.29971 0,32.841 28.483,-32.841 28.14899,0 -31.83499,34.181 32.16999,54.95796 -28.14899,0 -16.42,-30.15996 c -3.351,-6.031 -6.257,-8.597 -8.713,-7.707 -2.461,0.896 -3.686,2.235 -3.686,4.021 l 0,12.398 0,21.44696 -23.458,0 0,-115.27596 12.063,0 c 3.126,0 5.808,1.121 8.043,3.352 2.23,2.235 3.352,4.807 3.352,7.707 l 0,15.079 z"
         id="path87"
         style="fill:#323f49;fill-opacity:1"
         inkscape:connector-curvature="0" /><path
         d="m 599.78593,961.94971 22.787,0 c 0.221,4.472 1.896,7.822 5.027,10.053 3.351,2.236 7.817,3.352 13.404,3.352 4.021,0 7.482,-0.78 10.388,-2.346 2.681,-1.561 4.021,-3.687 4.021,-6.367 0,-4.021 -4.691,-7.037 -14.074,-9.048 -4.021,-0.67 -7.037,-1.341 -9.048,-2.011 -11.845,-2.9 -19.771,-6.367 -23.793,-10.389 -4.472,-4.021 -6.702,-9.383 -6.702,-16.085 0,-8.487 3.236,-15.524 9.718,-21.111 6.702,-5.137 15.415,-7.708 26.139,-7.708 11.613,0 20.887,2.571 27.814,7.708 6.477,5.587 9.938,12.849 10.388,21.781 l -14.409,0 c -4.247,0 -7.487,-1.896 -9.719,-5.696 -0.895,-0.891 -1.79,-1.786 -2.681,-2.681 -2.681,-2.011 -6.367,-3.017 -11.059,-3.017 -4.472,0 -7.822,0.671 -10.053,2.011 -2.011,1.341 -3.017,3.352 -3.017,6.032 0,3.576 5.808,6.592 17.426,9.048 1.341,0.45 2.514,0.785 3.519,1.005 1.006,0.226 1.953,0.335 2.849,0.335 11.394,2.906 19.321,6.258 23.793,10.054 4.241,4.021 6.367,9.383 6.367,16.085 0,9.834 -3.576,17.42596 -10.724,22.78696 -6.702,4.917 -16.756,7.373 -30.16,7.373 -12.733,0 -22.232,-2.565 -28.484,-7.708 -6.481,-5.137 -9.718,-12.61796 -9.718,-22.45196 l 0,-1.005 z"
         id="path89"
         style="fill:#323f49;fill-opacity:1"
         inkscape:connector-curvature="0" /><path
         d="m 703.31903,983.39567 c -4.691,-4.02096 -8.043,-9.43496 -10.054,-16.25196 -2.01,-6.812 -3.016,-13.907 -3.016,-21.279 0,-6.032 0.838,-12.064 2.514,-18.097 1.675,-6.031 4.299,-11.059 7.875,-15.079 5.807,-6.702 13.289,-10.666 22.452,-11.896 9.157,-1.226 17.426,-0.503 24.798,2.178 8.487,3.352 14.745,9.163 18.766,17.426 3.797,7.372 5.697,15.976 5.697,25.804 0,7.152 -0.785,13.294 -2.346,18.431 -1.565,5.142 -3.576,9.498 -6.032,13.069 -5.361,7.37196 -12.179,11.95396 -20.441,13.73896 -7.372,2.011 -14.803,2.178 -22.284,0.503 -7.488,-1.677 -13.462,-4.525 -17.929,-8.547 z m 16.085,-58.97796 c -4.691,5.142 -6.817,12.792 -6.367,22.955 0.445,10.168 2.346,17.258 5.697,21.279 1.34,1.79 3.687,3.299 7.037,4.523 3.352,1.23 6.755,1.341 10.221,0.335 3.461,-1.005 6.535,-3.519 9.216,-7.539 2.681,-4.021 4.131,-10.499 4.356,-19.437 0,-8.043 -1.288,-14.074 -3.854,-18.096 -2.57,-4.021 -5.528,-6.587 -8.88,-7.708 -3.351,-1.115 -6.702,-1.173 -10.054,-0.167 -3.35,1.006 -5.811,2.294 -7.372,3.855 z"
         id="path91"
         style="fill:#323f49;fill-opacity:1"
         inkscape:connector-curvature="0" /><path
         d="m 873.34806,991.43867 -23.457,0 -13.739,-63.67096 -13.739,63.67096 -23.45803,0 -24.463,-89.13896 22.787,0 14.075,61.66 12.73303,-61.66 23.793,0 12.063,61.66 12.399,-53.617 c 1.341,-5.362 4.911,-8.043 10.724,-8.043 l 14.744,0 -24.462,89.13896 z"
         id="path93"
         style="fill:#323f49;fill-opacity:1"
         inkscape:connector-curvature="0" /><path
         d="m 962.63936,987.75267 c -4.692,2.461 -9.666,3.964 -14.913,4.524 -5.251,0.555 -9.886,0.838 -13.906,0.838 -8.043,0 -15.08,-2.179 -21.112,-6.535 -6.032,-4.356 -9.048,-11.56096 -9.048,-21.61396 0,-9.383 2.733,-16.085 8.21,-20.106 5.472,-4.021 12.451,-6.702 20.944,-8.043 1.115,0 2.456,-0.167 4.021,-0.502 1.561,-0.335 3.351,-0.613 5.361,-0.838 9.828,-1.341 14.745,-4.241 14.745,-8.713 0,-3.352 -1.733,-5.529 -5.194,-6.534 -3.466,-1.006 -6.649,-1.509 -9.551,-1.509 -3.131,0 -5.922,0.45 -8.377,1.341 -2.461,0.896 -4.247,2.571 -5.362,5.026 l -22.452,0 c 0.891,-6.922 4.021,-12.619 9.383,-17.09 6.032,-5.137 14.63,-7.708 25.804,-7.708 12.509,0 21.892,2.126 28.149,6.367 6.477,4.472 9.718,10.724 9.718,18.766 l 0,30.495 c 0,8.938 -1.623,15.918 -4.859,20.944 -3.242,5.02596 -7.096,8.65996 -11.561,10.89096 z m -5.363,-41.21796 c -3.131,1.565 -7.487,3.016 -13.069,4.356 l -7.707,1.676 c -4.021,1.12 -6.928,2.57 -8.713,4.356 -1.565,2.461 -2.346,4.916 -2.346,7.372 0,3.351 1.005,6.032 3.016,8.042 2.011,1.791 4.912,2.682 8.713,2.682 6.252,0 11.169,-1.786 14.745,-5.362 3.57,-3.57 5.361,-8.487 5.361,-14.744 l 0,-8.378 z"
         id="path95"
         style="fill:#323f49;fill-opacity:1"
         inkscape:connector-curvature="0" /><g
         id="g3063"
         transform="matrix(1.5410585,0,0,1.5410585,-650.35528,114.9297)"><g
           id="text3035"
           style="font-style:normal;font-variant:normal;font-weight:bold;font-stretch:normal;font-size:1000px;line-height:125%;font-family:Harabara;-inkscape-font-specification:'Harabara Bold';letter-spacing:0px;word-spacing:0px;fill:#dba100;fill-opacity:1;stroke:none"
           transform="matrix(1.3550558,0,0,1.3550558,-191.22155,31.12899)"><path
             style="fill:#429096;fill-opacity:1"
             inkscape:connector-curvature="0"
             id="path3044"
             d="m 502.31192,289.57693 c -27.34372,0 -41.01562,13.67191 -41.01562,41.01563 l 0,66.40625 107.42187,0 0,-107.42188 -66.40625,0" /></g></g></g></g><g
     transform="matrix(0.34688695,0,0,0.34688695,904.74796,-41.317344)"
     id="g3109"><g
       id="g7"><path
         style="fill:#efcc00;stroke:#000000;stroke-width:0.25"
         inkscape:connector-curvature="0"
         id="path9"
         d="m 669.493,839.33 c 0,0 77.73,-1.643 87.614,54.105 l -36.737,0 c 0,0 -1.406,22.956 -7.073,32.791 l -50.851,-26.23 0,26.23 c 0,0 -46.654,-8.202 -48.063,-50.831 -1.41,-42.625 55.11,-36.065 55.11,-36.065 z" /><path
         style="opacity:0.82999998;fill:#fffffe"
         inkscape:connector-curvature="0"
         id="path11"
         d="m 741.172,874.399 -29.897,0.093 -3.228,31.152 -50.236,-22.996 -5.897,22.996 c 0,0 -34.352,-40.344 19.78,-59.028 42.065,-14.51 69.478,21.226 69.478,27.783" /></g><g
       id="g13"><path
         style="fill:#efcc00;stroke:#000000;stroke-width:0.25"
         inkscape:connector-curvature="0"
         id="path15"
         d="m 432.88,839.33 c 0,0 -90.176,-1.643 -101.657,54.105 l 42.629,0 c 0,0 1.642,22.956 8.2,32.791 l 59.026,-26.23 0,26.23 c 0,0 54.096,-8.202 55.738,-50.831 C 498.457,832.77 432.88,839.33 432.88,839.33 Z" /><path
         style="opacity:0.81000001;fill:#fffffe"
         inkscape:connector-curvature="0"
         id="path17"
         d="m 349.708,874.399 34.674,0.093 3.768,31.152 58.296,-22.996 6.802,22.996 c 0,0 39.878,-40.344 -22.953,-59.028 -48.789,-14.51 -80.587,21.226 -80.587,27.783" /></g><path
       style="fill:#111a1b"
       d="m 1509.4688,539.21875 c -5.8835,0.0698 -53.4103,2.20272 -67.625,51.96875 -6.4866,22.71269 -7.2995,28.09201 -7.4376,30.5625 -0.05,0.099 -0.054,4.01155 -0.1074,4.11758 -22.2149,16.61491 -30.346,39.77589 -20.5625,70.28074 0,0 9.9332,-29.14832 17.5137,-29.14832 0,0 -9.1161,86.48152 83.4062,84.96875 89.7511,0 85.1876,-84.96875 85.1876,-84.96875 9.001,0 19.8437,30.34375 19.8437,30.34375 17.1536,-46.26847 -16.2386,-63.21311 -23.4375,-75.34375 -0.069,-0.11659 -0.091,-0.17314 -0.1562,-0.28125 0.2809,-1.24688 -1.2207,-7.97806 -8.875,-30.53125 -18.0049,-53.08376 -77.1563,-51.96875 -77.1563,-51.96875 0,0 -0.2015,-0.005 -0.5937,0 z"
       transform="matrix(2.8827836,0,0,2.8827836,-3803.2249,-1285.1661)"
       id="path19"
       inkscape:connector-curvature="0"
       sodipodi:nodetypes="cccccccccccccc" /><path
       style="fill:#323f49"
       inkscape:connector-curvature="0"
       id="path21"
       d="m 763.642,612.945 c 0,0 75.42,-8.84 102.655,84.476 l 0,0 c 0,0 42.013,-76.779 -82.083,-181.573 0,0 -11.373,-251.932 -258.165,-238.991 l 0,493.492 c 0,0 214.23,49.192 237.593,-157.404 z" /><path
       style="fill:#323f49"
       inkscape:connector-curvature="0"
       id="path25"
       d="m 360.723,612.945 c 0,0 -63.484,-8.84 -86.438,84.476 l 0,0 c 0,0 -39.352,-93.315 68.865,-171.511 0,0 9.84,-261.994 217.61,-249.054 l 0,493.492 c 0,0.001 -180.36,49.193 -200.037,-157.403 z" /><path
       style="fill:#232c35"
       inkscape:connector-curvature="0"
       id="path27"
       d="M 407.429,328.822" /><path
       style="fill:#e6ebef"
       inkscape:connector-curvature="0"
       id="path29"
       d="m 440.296,545.575 c 0,0 200.042,-6.555 237.75,0 0,0 59.03,37.077 59.03,151.846 0,54.751 -37.484,156.406 -187.126,156.406 0,0 -160.482,-7.838 -160.482,-156.406 0,0 -14.757,-89.537 50.828,-151.846 z" /><path
       style="fill:#ffffff"
       inkscape:connector-curvature="0"
       id="path31"
       d="m 440.296,545.575 c 0,0 184.438,-8.606 222.584,-2.917 0,0 72.759,25.488 72.759,125.092 0,31.86 -31.716,127.052 -174.366,127.052 0,0 -173.086,1.896 -173.086,-127.052 10e-4,0 -3.494,-75.994 52.109,-122.175 z" /><path
       style="fill:#a9aeb7"
       inkscape:connector-curvature="0"
       id="path33"
       d="m 500.07,538.518 c 0,0 63.123,-27.795 126.252,0 0,0 -49.445,65.588 -63.129,65.588 -8.016,-10e-4 -43.452,-26.24 -63.123,-65.588 z" /><path
       style="fill:#020202"
       inkscape:connector-curvature="0"
       id="path35"
       d="m 486.821,538.518 c 0,0 63.128,-27.795 126.255,0 0,0 -49.448,65.588 -63.126,65.588 -8.016,-10e-4 -43.449,-26.24 -63.129,-65.588 z" /><path
       style="fill:#10191a"
       inkscape:connector-curvature="0"
       id="path37"
       d="m 559.095,427.717 c 0,0 -86.207,-40.311 -128.121,-43.207 -41.914,-2.896 -92.885,100.057 -26.388,147.948 55.681,40.112 106.678,11.248 154.228,-4.915 0,0 57.389,29.166 114.721,21.313 79.195,-10.851 104.122,-168.884 12.193,-162.323 l 0,0 c 0.001,0 -49.573,-16.206 -126.633,41.184 z" /><path
       style="fill:#ffffff"
       inkscape:connector-curvature="0"
       id="path39"
       d="m 546.082,454.001 c 0,0 -107.577,-42.632 -124.23,-45.911 0,0 -37.866,72.143 31.77,101.654 -0.001,0 66.097,22.956 92.46,-55.743 z" /><path
       style="fill:#ffffff"
       inkscape:connector-curvature="0"
       id="path41"
       d="m 699.466,406.547 c 0,0 -108.63,39.906 -123.232,48.563 0,0 19.857,79.009 91.436,54.621 -10e-4,0 64.564,-26.922 31.796,-103.184 z" /><path
       style="fill:#5a6464"
       inkscape:connector-curvature="0"
       id="path43"
       d="m 430.974,383.072 c 0,0 79.833,20.891 124.61,44.266 0,0 98.999,-42.242 130.145,-42.242 l 0,0 c 0,0 -0.609,-100.404 -136.703,-100.404 0,-0.001 -118.052,8.198 -118.052,98.38 z" /><path
       style="fill:#efcc00;stroke:#000000;stroke-width:0.25"
       inkscape:connector-curvature="0"
       id="path45"
       d="m 486.821,526.171 c 0,0 63.128,-27.8 126.255,0 0,0 -49.448,65.585 -63.126,65.585 -8.016,0 -43.449,-26.236 -63.129,-65.585 z" /><path
       style="fill:#10191a"
       inkscape:connector-curvature="0"
       id="path47"
       d="m 520.769,454.961 c 0,15.252 -12.374,27.617 -27.643,27.617 -15.245,0 -27.618,-12.365 -27.618,-27.617 0,-15.245 12.374,-27.623 27.618,-27.623 15.27,0 27.643,12.378 27.643,27.623 z" /><path
       style="fill:#10191a"
       inkscape:connector-curvature="0"
       id="path49"
       d="m 659.627,454.961 c 0,15.252 -12.373,27.617 -27.618,27.617 -15.27,0 -27.644,-12.365 -27.644,-27.617 0,-15.245 12.374,-27.623 27.644,-27.623 15.245,0 27.618,12.378 27.618,27.623 z" /><path
       style="fill:#ffffff"
       inkscape:connector-curvature="0"
       id="path51"
       d="m 520.769,446.131 c 0,5.258 -4.252,9.51 -9.477,9.51 -5.254,0 -9.507,-4.252 -9.507,-9.51 0,-5.25 4.253,-9.502 9.507,-9.502 5.225,0 9.477,4.252 9.477,9.502 z" /><path
       style="fill:#ffffff"
       inkscape:connector-curvature="0"
       id="path53"
       d="m 650.098,436.642 c 0,5.242 -4.278,9.489 -9.507,9.489 -5.249,0 -9.504,-4.247 -9.504,-9.489 0,-5.266 4.255,-9.517 9.504,-9.517 5.229,0 9.507,4.251 9.507,9.517 z" /><path
       style="fill:#ffffff"
       inkscape:connector-curvature="0"
       id="path55"
       d="m 553.332,532.239 c 0,0 -29.515,-4.915 -44.271,8.201 l 31.155,33.791 13.116,-41.992 z" /><path
       style="fill:#5a6464"
       inkscape:connector-curvature="0"
       id="path57"
       d="m 343.15,525.91 c 0,0 21.007,-13.101 29.364,0 8.351,13.11 -96.59,83.973 -98.229,171.511 0,0 -1.921,9.315 -4.397,-15.498 -2.473,-24.814 -16.917,-90.412 73.262,-156.013 z" /><path
       style="fill:#5a6464"
       inkscape:connector-curvature="0"
       id="path59"
       d="m 784.214,515.848 c 0,0 -15.447,-3.038 -24.544,10.062 -9.12,13.11 105.25,83.973 107.037,171.511 0,0 2.078,9.315 4.792,-15.498 2.689,-24.814 10.989,-100.475 -87.285,-166.075 z" /></g><g
     style="font-style:normal;font-variant:normal;font-weight:bold;font-stretch:normal;font-size:171px;line-height:125%;font-family:Harabara;-inkscape-font-specification:'Harabara Bold';letter-spacing:0px;word-spacing:0px;fill:#ffffff;fill-opacity:1;stroke:none"
     id="text3032"
     transform="matrix(1.5410585,0,0,1.5410585,-125.41099,-876.35081)"><g
       style="font-size:160px;font-family:Harabara;-inkscape-font-specification:'Harabara Bold'"
       id="text3041"><g
         style="font-style:normal;font-weight:normal;font-size:178.44877625px;line-height:125%;font-family:sans-serif;letter-spacing:0px;word-spacing:0px;fill:#000000;fill-opacity:1;stroke:none;stroke-width:1px;stroke-linecap:butt;stroke-linejoin:miter;stroke-opacity:1"
         id="text3384"><path
           d="m 123.60559,728.66467 21.64388,0 0,-96.92696 c 0,-3.13679 -1.25471,-5.64623 -3.45047,-7.84199 -2.19576,-1.88207 -4.70519,-3.13679 -7.84199,-3.13679 l -6.27359,0 c -1.88207,6.90095 -5.33255,11.91982 -10.35142,15.05661 -5.01887,3.1368 -9.72406,4.39152 -14.11558,4.39152 l 0,15.68397 20.38917,0 0,72.77364 z"
           style="font-style:normal;font-variant:normal;font-weight:bold;font-stretch:normal;font-size:160.60389709px;font-family:Harabara;-inkscape-font-specification:'Harabara Bold';letter-spacing:6.72914124px;fill:#ffffff"
           id="path3391" /><path
           d="m 151.97861,694.47361 0,0.31368 c 0,11.91982 3.1368,20.70284 9.72407,26.34908 6.27359,6.27358 15.99765,9.0967 28.85851,9.0967 12.54718,0 22.58492,-2.82312 29.79955,-9.0967 7.21463,-6.27359 10.97878,-14.74294 10.97878,-26.0354 0,-5.95991 -1.56839,-10.97878 -4.39151,-15.3703 -3.13679,-3.76415 -7.21463,-7.21463 -12.86086,-10.03774 4.07784,-1.88208 7.52831,-5.01887 10.03775,-8.78303 2.19575,-3.45047 3.45047,-7.5283 3.45047,-12.54718 0,-8.78302 -3.45047,-15.68397 -10.03774,-21.3302 -6.58727,-5.33255 -15.3703,-8.15567 -26.34908,-8.15567 -11.60614,0 -20.70285,3.1368 -27.29012,9.09671 -4.39151,3.76415 -7.21462,8.46934 -8.46934,14.11557 -0.62736,2.82312 -0.62736,5.33256 0.31368,7.84199 0.62736,2.50944 3.45047,3.45048 7.84199,3.45048 l 11.29246,0 0,-0.62736 c 0,-5.33255 1.25471,-9.41039 4.07783,-12.2335 2.19576,-2.50944 5.95991,-4.07784 11.29246,-4.07784 4.70519,0 8.15567,1.25472 10.6651,3.45048 2.50944,2.82311 4.07784,6.27359 4.07784,10.03774 0,5.01887 -1.5684,8.78303 -4.70519,11.29246 -3.1368,2.50944 -8.15567,3.76416 -14.42926,3.76416 l -2.19576,0 0,15.05661 0.31368,0 c 0.31368,0 0.62736,-0.31368 1.25472,-0.31368 l 0.62736,0 0.94104,0 c 7.21463,0 12.54718,1.5684 15.99765,4.07784 3.45048,3.13679 5.33255,7.21462 5.33255,12.2335 0,5.64623 -1.5684,9.72406 -4.70519,12.2335 -2.82312,3.13679 -7.21463,4.39151 -12.86086,4.39151 -5.64623,0 -10.03774,-1.5684 -13.17454,-4.70519 -3.13679,-2.82312 -4.39151,-7.21463 -4.39151,-13.48822 l -21.01653,0 z"
           style="font-style:normal;font-variant:normal;font-weight:bold;font-stretch:normal;font-size:160.60389709px;font-family:Harabara;-inkscape-font-specification:'Harabara Bold';letter-spacing:6.72914124px;fill:#ffffff"
           id="path3393" /></g></g></g><g
     style="font-style:normal;font-weight:normal;font-size:40px;line-height:125%;font-family:Sans;letter-spacing:0.12px;word-spacing:0px;fill:#000000;fill-opacity:1;stroke:none;stroke-width:1px;stroke-linecap:butt;stroke-linejoin:miter;stroke-opacity:1"
     id="text4196"><path
       d="m 283.09735,316.36942 -19.6875,0 0,-4.08204 q 2.05078,-1.75781 4.10156,-3.51562 2.07032,-1.75781 3.84766,-3.49609 3.75,-3.63282 5.13672,-5.76172 1.38672,-2.14844 1.38672,-4.62891 0,-2.26562 -1.50391,-3.53516 -1.48437,-1.28906 -4.16016,-1.28906 -1.77734,0 -3.84765,0.625 -2.07031,0.625 -4.04297,1.91406 l -0.19531,0 0,-4.10156 q 1.38672,-0.68359 3.6914,-1.25 2.32422,-0.5664 4.49219,-0.5664 4.47266,0 7.01172,2.16796 2.53906,2.14844 2.53906,5.83985 0,1.66015 -0.42969,3.10547 -0.41015,1.42578 -1.23046,2.71484 -0.76172,1.21094 -1.79688,2.38281 -1.01562,1.17188 -2.48047,2.59766 -2.08984,2.05078 -4.3164,3.98437 -2.22657,1.91407 -4.16016,3.55469 l 15.64453,0 0,3.33985 z"
       style=""
       id="path3396" /><path
       d="m 301.02985,305.41238 -12.1875,0 0,-3.53515 12.1875,0 0,3.53515 z"
       style=""
       id="path3398" /><path
       d="m 324.45063,302.36551 q 0.9375,0.83984 1.54297,2.10937 0.60547,1.26954 0.60547,3.28125 0,1.99219 -0.72265,3.65235 -0.72266,1.66015 -2.03125,2.89062 -1.46485,1.36719 -3.45704,2.03125 -1.97265,0.64453 -4.33593,0.64453 -2.42188,0 -4.76563,-0.58593 -2.34375,-0.56641 -3.84765,-1.25 l 0,-4.08203 0.29296,0 q 1.66016,1.09375 3.90625,1.8164 2.2461,0.72266 4.33594,0.72266 1.23047,0 2.61719,-0.41016 1.38672,-0.41015 2.24609,-1.21094 0.89844,-0.85937 1.32813,-1.89453 0.44922,-1.03515 0.44922,-2.61718 0,-1.5625 -0.50782,-2.57813 -0.48828,-1.03516 -1.36718,-1.62109 -0.87891,-0.60547 -2.12891,-0.82032 -1.25,-0.23437 -2.69531,-0.23437 l -1.75781,0 0,-3.24219 1.36718,0 q 2.96875,0 4.72657,-1.23047 1.77734,-1.25 1.77734,-3.63281 0,-1.05469 -0.44922,-1.83594 -0.44922,-0.80078 -1.25,-1.30859 -0.83984,-0.50781 -1.79687,-0.70313 -0.95704,-0.19531 -2.16797,-0.19531 -1.85547,0 -3.94532,0.66406 -2.08984,0.66407 -3.94531,1.875 l -0.19531,0 0,-4.08203 q 1.38672,-0.68359 3.69141,-1.25 2.32421,-0.58593 4.49218,-0.58593 2.12891,0 3.75,0.39062 1.6211,0.39063 2.92969,1.25 1.40625,0.9375 2.12891,2.26563 0.72265,1.32812 0.72265,3.10546 0,2.42188 -1.71875,4.23829 -1.69922,1.79687 -4.02343,2.26562 l 0,0.27344 q 0.9375,0.15625 2.14843,0.66406 1.21094,0.48828 2.05078,1.23047 z"
       style=""
       id="path3400" /><path
       d="m 367.36642,316.36942 -4.84375,0 -8.75,-9.55079 -2.38282,2.26563 0,7.28516 -3.67187,0 0,-30.39063 3.67187,0 0,19.49219 10.60547,-10.91797 4.62891,0 -10.13672,10.07812 10.87891,11.73829 z"
       style=""
       id="path3402" /><path
       d="m 398.79501,294.55301 -5.6836,21.81641 -3.39844,0 -5.60546,-16.81641 -5.56641,16.81641 -3.37891,0 -5.74218,-21.81641 3.82812,0 4.00391,16.89453 5.44922,-16.89453 3.02734,0 5.58594,16.89453 3.78906,-16.89453 3.69141,0 z"
       style=""
       id="path3404" /><path
       d="m 408.15329,290.90067 -4.14063,0 0,-3.8086 4.14063,0 0,3.8086 z m -0.23438,25.46875 -3.67187,0 0,-21.81641 3.67187,0 0,21.81641 z"
       style=""
       id="path3406" /><path
       d="m 433.44907,305.84207 -16.07422,0 q 0,2.01172 0.60547,3.51563 0.60546,1.48437 1.66015,2.4414 1.01563,0.9375 2.40235,1.40625 1.40625,0.46875 3.08593,0.46875 2.22657,0 4.47266,-0.8789 2.26562,-0.89844 3.22266,-1.75782 l 0.19531,0 0,4.00391 q -1.85547,0.78125 -3.78906,1.30859 -1.9336,0.52735 -4.0625,0.52735 -5.42969,0 -8.47657,-2.92969 -3.04687,-2.94922 -3.04687,-8.35937 0,-5.35157 2.91015,-8.4961 2.92969,-3.14453 7.69532,-3.14453 4.41406,0 6.79687,2.57813 2.40235,2.57812 2.40235,7.32421 l 0,1.99219 z m -3.57422,-2.8125 q -0.0195,-2.89062 -1.46485,-4.47265 -1.42578,-1.58204 -4.35547,-1.58204 -2.94921,0 -4.70703,1.73829 -1.73828,1.73828 -1.97265,4.3164 l 12.5,0 z"
       style=""
       id="path3408" /><path
       d="m 450.46361,316.1741 q -1.03516,0.27344 -2.26563,0.44922 -1.21093,0.17578 -2.16797,0.17578 -3.33984,0 -5.07812,-1.79687 -1.73828,-1.79688 -1.73828,-5.76172 l 0,-11.60156 -2.48047,0 0,-3.08594 2.48047,0 0,-6.26953 3.67187,0 0,6.26953 7.57813,0 0,3.08594 -7.57813,0 0,9.9414 q 0,1.71875 0.0781,2.69532 0.0781,0.95703 0.54687,1.79687 0.42969,0.78125 1.17188,1.15234 0.76172,0.35157 2.30469,0.35157 0.89843,0 1.875,-0.25391 0.97656,-0.27344 1.40625,-0.44922 l 0.19531,0 0,3.30078 z"
       style=""
       id="path3410" /><path
       d="m 473.27892,316.36942 -3.67188,0 0,-12.42188 q 0,-1.50391 -0.17578,-2.8125 -0.17578,-1.32812 -0.64453,-2.07031 -0.48828,-0.82031 -1.40625,-1.21094 -0.91797,-0.41016 -2.38281,-0.41016 -1.50391,0 -3.14454,0.74219 -1.64062,0.74219 -3.14453,1.89453 l 0,16.28907 -3.67187,0 0,-21.81641 3.67187,0 0,2.42187 q 1.71875,-1.42578 3.55469,-2.22656 1.83594,-0.80078 3.76953,-0.80078 3.53516,0 5.39063,2.12891 1.85547,2.1289 1.85547,6.13281 l 0,14.16016 z"
       style=""
       id="path3412" /><path
       d="m 484.41454,290.90067 -4.14063,0 0,-3.8086 4.14063,0 0,3.8086 z m -0.23438,25.46875 -3.67187,0 0,-21.81641 3.67187,0 0,21.81641 z"
       style=""
       id="path3414" /><path
       d="m 508.40173,316.36942 -3.65234,0 0,-2.32422 q -0.48828,0.33203 -1.32813,0.9375 -0.82031,0.58593 -1.60156,0.9375 -0.91797,0.44922 -2.10937,0.74218 -1.19141,0.3125 -2.79297,0.3125 -2.94922,0 -5,-1.95312 -2.05078,-1.95313 -2.05078,-4.98047 0,-2.48047 1.05468,-4.00391 1.07422,-1.54296 3.04688,-2.42187 1.99219,-0.87891 4.78516,-1.19141 2.79296,-0.3125 5.99609,-0.46875 l 0,-0.5664 q 0,-1.25 -0.44922,-2.07032 -0.42969,-0.82031 -1.25,-1.28906 -0.78125,-0.44922 -1.875,-0.60547 -1.09375,-0.15625 -2.28516,-0.15625 -1.44531,0 -3.22265,0.39063 -1.77735,0.37109 -3.67188,1.09375 l -0.19531,0 0,-3.73047 q 1.07422,-0.29297 3.10547,-0.64453 2.03125,-0.35156 4.00391,-0.35156 2.30468,0 4.0039,0.39062 1.71875,0.37109 2.96875,1.28906 1.23047,0.89844 1.875,2.32422 0.64453,1.42578 0.64453,3.53516 l 0,14.80469 z m -3.65234,-5.3711 0,-6.07422 q -1.67969,0.0977 -3.96484,0.29297 -2.26563,0.19531 -3.59375,0.56641 -1.58204,0.44922 -2.5586,1.40625 -0.97656,0.9375 -0.97656,2.59765 0,1.875 1.13281,2.83204 1.13281,0.9375 3.45703,0.9375 1.9336,0 3.53516,-0.74219 1.60156,-0.76172 2.96875,-1.81641 z"
       style=""
       id="path3416" /><path
       d="m 549.03235,316.36942 -19.6875,0 0,-4.08204 q 2.05078,-1.75781 4.10156,-3.51562 2.07031,-1.75781 3.84766,-3.49609 3.75,-3.63282 5.13672,-5.76172 1.38671,-2.14844 1.38671,-4.62891 0,-2.26562 -1.5039,-3.53516 -1.48438,-1.28906 -4.16016,-1.28906 -1.77734,0 -3.84765,0.625 -2.07032,0.625 -4.04297,1.91406 l -0.19532,0 0,-4.10156 q 1.38672,-0.68359 3.69141,-1.25 2.32422,-0.5664 4.49219,-0.5664 4.47265,0 7.01172,2.16796 2.53906,2.14844 2.53906,5.83985 0,1.66015 -0.42969,3.10547 -0.41015,1.42578 -1.23047,2.71484 -0.76172,1.21094 -1.79687,2.38281 -1.01563,1.17188 -2.48047,2.59766 -2.08984,2.05078 -4.31641,3.98437 -2.22656,1.91407 -4.16015,3.55469 l 15.64453,0 0,3.33985 z"
       style=""
       id="path3418" /><path
       d="m 574.58203,301.81863 q 0,7.83204 -2.46094,11.50391 -2.4414,3.65234 -7.59765,3.65234 -5.23438,0 -7.65625,-3.71093 -2.40235,-3.71094 -2.40235,-11.40625 0,-7.75391 2.44141,-11.44532 2.44141,-3.71093 7.61719,-3.71093 5.23437,0 7.63672,3.76953 2.42187,3.75 2.42187,11.34765 z m -5.13672,8.86719 q 0.6836,-1.58203 0.91797,-3.71094 0.25391,-2.14843 0.25391,-5.15625 0,-2.96875 -0.25391,-5.15625 -0.23437,-2.1875 -0.9375,-3.71093 -0.68359,-1.50391 -1.875,-2.26563 -1.17187,-0.76172 -3.02734,-0.76172 -1.83594,0 -3.04688,0.76172 -1.1914,0.76172 -1.89453,2.30469 -0.66406,1.44531 -0.91797,3.76953 -0.23437,2.32422 -0.23437,5.09766 0,3.04687 0.21484,5.09765 0.21484,2.05078 0.91797,3.67188 0.64453,1.52344 1.81641,2.32422 1.1914,0.80078 3.14453,0.80078 1.83593,0 3.04687,-0.76172 1.21094,-0.76172 1.875,-2.30469 z"
       style=""
       id="path3420" /><path
       d="m 598.54968,316.36942 -15.74218,0 0,-2.96875 6.05468,0 0,-19.49219 -6.05468,0 0,-2.65625 q 1.23046,0 2.63671,-0.19531 1.40625,-0.21485 2.12891,-0.60547 0.89844,-0.48828 1.40625,-1.23047 0.52734,-0.76172 0.60547,-2.03125 l 3.02734,0 0,26.21094 5.9375,0 0,2.96875 z"
       style=""
       id="path3422" /><path
       d="m 626.2283,306.93582 q 0,4.4336 -2.92969,7.2461 -2.91015,2.79296 -7.14843,2.79296 -2.14844,0 -3.90625,-0.66406 -1.75782,-0.66406 -3.10547,-1.97265 -1.67969,-1.6211 -2.59766,-4.29688 -0.89844,-2.67578 -0.89844,-6.44531 0,-3.86719 0.82032,-6.85547 0.83984,-2.98828 2.65625,-5.3125 1.71875,-2.20703 4.43359,-3.4375 2.71484,-1.25 6.32813,-1.25 1.15234,0 1.93359,0.0977 0.78125,0.0976 1.58203,0.35156 l 0,3.73047 -0.19531,0 q -0.54688,-0.29297 -1.66016,-0.54688 -1.09375,-0.27344 -2.24609,-0.27344 -4.19922,0 -6.69922,2.63672 -2.5,2.61719 -2.91016,7.08985 1.64063,-0.9961 3.22266,-1.50391 1.60156,-0.52734 3.69141,-0.52734 1.85546,0 3.26171,0.35156 1.42579,0.33203 2.91016,1.36719 1.71875,1.1914 2.57813,3.00781 0.8789,1.81641 0.8789,4.41406 z m -3.96484,0.15625 q 0,-1.8164 -0.54688,-3.00781 -0.52734,-1.19141 -1.75781,-2.07031 -0.89844,-0.625 -1.99219,-0.82032 -1.09375,-0.19531 -2.28515,-0.19531 -1.66016,0 -3.08594,0.39063 -1.42578,0.39062 -2.92969,1.21093 -0.0391,0.42969 -0.0586,0.83985 -0.0195,0.39062 -0.0195,0.99609 0,3.08594 0.625,4.88281 0.64453,1.77735 1.75781,2.8125 0.89844,0.85938 1.93359,1.26954 1.05469,0.39062 2.28516,0.39062 2.83203,0 4.45312,-1.71875 1.6211,-1.73828 1.6211,-4.98047 z"
       style=""
       id="path3424" /><path
       d="m 653.51907,324.02567 -3.39843,0 0,-38.04688 3.39843,0 0,38.04688 z"
       style=""
       id="path3426" /><path
       d="m 712.99734,287.28738 -7.55859,29.08204 -4.35547,0 -6.11328,-24.14063 -5.97656,24.14063 -4.25781,0 -7.69532,-29.08204 3.96485,0 6.11328,24.17969 6.01562,-24.17969 3.92578,0 6.07422,24.41407 6.07422,-24.41407 3.78906,0 z"
       style=""
       id="path3428" /><path
       d="m 730.94937,298.55692 -0.19531,0 q -0.82031,-0.19532 -1.60156,-0.27344 -0.76172,-0.0977 -1.81641,-0.0977 -1.69922,0 -3.28125,0.76172 -1.58203,0.74219 -3.04687,1.93359 l 0,15.48829 -3.67188,0 0,-21.81641 3.67188,0 0,3.22266 q 2.1875,-1.75782 3.84765,-2.48047 1.67969,-0.74219 3.41797,-0.74219 0.95703,0 1.38672,0.0586 0.42969,0.0391 1.28906,0.17578 l 0,3.76954 z"
       style=""
       id="path3430" /><path
       d="m 753.15924,305.47098 q 0,5.33203 -2.73437,8.41797 -2.73438,3.08593 -7.32422,3.08593 -4.62891,0 -7.36328,-3.08593 -2.71485,-3.08594 -2.71485,-8.41797 0,-5.33203 2.71485,-8.41797 2.73437,-3.10547 7.36328,-3.10547 4.58984,0 7.32422,3.10547 2.73437,3.08594 2.73437,8.41797 z m -3.78906,0 q 0,-4.23828 -1.66016,-6.28906 -1.66015,-2.07032 -4.60937,-2.07032 -2.98828,0 -4.64844,2.07032 -1.64063,2.05078 -1.64063,6.28906 0,4.10156 1.66016,6.23047 1.66016,2.10937 4.62891,2.10937 2.92968,0 4.58984,-2.08984 1.67969,-2.10938 1.67969,-6.25 z"
       style=""
       id="path3432" /><path
       d="m 775.11517,315.00223 q -1.83593,0.8789 -3.49609,1.36719 -1.64063,0.48828 -3.49609,0.48828 -2.36329,0 -4.33594,-0.6836 -1.97266,-0.70312 -3.37891,-2.10937 -1.42578,-1.40625 -2.20703,-3.55469 -0.78125,-2.14844 -0.78125,-5.01953 0,-5.35156 2.92969,-8.39844 2.94922,-3.04687 7.77344,-3.04687 1.875,0 3.67187,0.52734 1.81641,0.52734 3.32031,1.28906 l 0,4.08203 -0.19531,0 q -1.67969,-1.30859 -3.47656,-2.01171 -1.77735,-0.70313 -3.47656,-0.70313 -3.125,0 -4.94141,2.10938 -1.79688,2.08984 -1.79688,6.15234 0,3.94531 1.75782,6.07422 1.77734,2.10937 4.98047,2.10937 1.11328,0 2.26562,-0.29297 1.15234,-0.29296 2.07031,-0.76171 0.80078,-0.41016 1.50391,-0.85938 0.70312,-0.46875 1.11328,-0.80078 l 0.19531,0 0,4.04297 z"
       style=""
       id="path3434" /><path
       d="m 787.40314,298.9866 -3.53516,2.83203 0,14.55079 -3.67187,0 0,-11.875 -3.37891,2.7539 0,-3.10547 3.37891,-2.69531 0,-15.46875 3.67187,0 0,12.79297 3.53516,-2.89063 0,3.10547 z"
       style=""
       id="path3436" /><path
       d="m 808.36298,316.36942 -3.65235,0 0,-2.32422 q -0.48828,0.33203 -1.32812,0.9375 -0.82032,0.58593 -1.60157,0.9375 -0.91796,0.44922 -2.10937,0.74218 -1.19141,0.3125 -2.79297,0.3125 -2.94922,0 -5,-1.95312 -2.05078,-1.95313 -2.05078,-4.98047 0,-2.48047 1.05469,-4.00391 1.07422,-1.54296 3.04687,-2.42187 1.99219,-0.87891 4.78516,-1.19141 2.79297,-0.3125 5.99609,-0.46875 l 0,-0.5664 q 0,-1.25 -0.44922,-2.07032 -0.42968,-0.82031 -1.25,-1.28906 -0.78125,-0.44922 -1.875,-0.60547 -1.09375,-0.15625 -2.28515,-0.15625 -1.44532,0 -3.22266,0.39063 -1.77734,0.37109 -3.67187,1.09375 l -0.19532,0 0,-3.73047 q 1.07422,-0.29297 3.10547,-0.64453 2.03125,-0.35156 4.00391,-0.35156 2.30469,0 4.0039,0.39062 1.71875,0.37109 2.96875,1.28906 1.23047,0.89844 1.875,2.32422 0.64454,1.42578 0.64454,3.53516 l 0,14.80469 z m -3.65235,-5.3711 0,-6.07422 q -1.67969,0.0977 -3.96484,0.29297 -2.26563,0.19531 -3.59375,0.56641 -1.58203,0.44922 -2.5586,1.40625 -0.97656,0.9375 -0.97656,2.59765 0,1.875 1.13281,2.83204 1.13282,0.9375 3.45704,0.9375 1.93359,0 3.53515,-0.74219 1.60156,-0.76172 2.96875,-1.81641 z"
       style=""
       id="path3438" /><path
       d="m 842.8775,294.55301 -5.68359,21.81641 -3.39844,0 -5.60547,-16.81641 -5.5664,16.81641 -3.37891,0 -5.74219,-21.81641 3.82813,0 4.0039,16.89453 5.44922,-16.89453 3.02735,0 5.58593,16.89453 3.78907,-16.89453 3.6914,0 z"
       style=""
       id="path3440" /><path
       d="m 854.57953,310.80301 -5.50781,12.79297 -2.85157,0 3.39844,-12.79297 4.96094,0 z"
       style=""
       id="path3442" /><path
       d="m 895.11249,296.07645 q 0,1.93359 -0.6836,3.59375 -0.66406,1.64062 -1.875,2.85156 -1.5039,1.50391 -3.55468,2.26562 -2.05078,0.74219 -5.17578,0.74219 l -3.86719,0 0,10.83985 -3.86719,0 0,-29.08204 7.89063,0 q 2.61718,0 4.43359,0.44922 1.81641,0.42969 3.22266,1.36719 1.66015,1.11328 2.55859,2.77344 0.91797,1.66015 0.91797,4.19922 z m -4.02344,0.0976 q 0,-1.5039 -0.52734,-2.61718 -0.52735,-1.11329 -1.60157,-1.81641 -0.9375,-0.60547 -2.14843,-0.85938 -1.19141,-0.27343 -3.02735,-0.27343 l -3.82812,0 0,11.62109 3.26172,0 q 2.34375,0 3.80859,-0.41016 1.46484,-0.42968 2.38281,-1.34765 0.91797,-0.9375 1.28907,-1.97266 0.39062,-1.03515 0.39062,-2.32422 z"
       style=""
       id="path3444" /><path
       d="m 917.71295,305.47098 q 0,5.33203 -2.73437,8.41797 -2.73438,3.08593 -7.32422,3.08593 -4.62891,0 -7.36328,-3.08593 -2.71485,-3.08594 -2.71485,-8.41797 0,-5.33203 2.71485,-8.41797 2.73437,-3.10547 7.36328,-3.10547 4.58984,0 7.32422,3.10547 2.73437,3.08594 2.73437,8.41797 z m -3.78906,0 q 0,-4.23828 -1.66016,-6.28906 -1.66015,-2.07032 -4.60937,-2.07032 -2.98828,0 -4.64844,2.07032 -1.64062,2.05078 -1.64062,6.28906 0,4.10156 1.66015,6.23047 1.66016,2.10937 4.62891,2.10937 2.92969,0 4.58984,-2.08984 1.67969,-2.10938 1.67969,-6.25 z"
       style=""
       id="path3446" /><path
       d="m 927.24701,316.36942 -3.67188,0 0,-30.39063 3.67188,0 0,30.39063 z"
       style=""
       id="path3448" /><path
       d="m 950.10144,310.08035 q 0,2.98828 -2.48047,4.90235 -2.46094,1.91406 -6.73828,1.91406 -2.42187,0 -4.45312,-0.56641 -2.01172,-0.58593 -3.37891,-1.26953 l 0,-4.12109 0.19531,0 q 1.73828,1.30859 3.86719,2.08984 2.12891,0.76172 4.08203,0.76172 2.42188,0 3.78906,-0.78125 1.36719,-0.78125 1.36719,-2.46094 0,-1.28906 -0.74219,-1.95312 -0.74218,-0.66406 -2.85156,-1.13281 -0.78125,-0.17579 -2.05078,-0.41016 -1.25,-0.23438 -2.28516,-0.50781 -2.87109,-0.76172 -4.08203,-2.22657 -1.1914,-1.48437 -1.1914,-3.63281 0,-1.34765 0.54687,-2.53906 0.56641,-1.19141 1.69922,-2.12891 1.09375,-0.91797 2.77344,-1.44531 1.69922,-0.54687 3.78906,-0.54687 1.95312,0 3.94531,0.48828 2.01172,0.46875 3.33985,1.15234 l 0,3.92578 -0.19532,0 q -1.40625,-1.03515 -3.41797,-1.73828 -2.01171,-0.72266 -3.94531,-0.72266 -2.01172,0 -3.39844,0.78125 -1.38671,0.76172 -1.38671,2.28516 0,1.34766 0.83984,2.03125 0.82031,0.68359 2.65625,1.11328 1.01562,0.23438 2.26562,0.46875 1.26954,0.23438 2.10938,0.42969 2.55859,0.58594 3.94531,2.01172 1.38672,1.44531 1.38672,3.82812 z"
       style=""
       id="path3450" /><path
       d="m 975.29956,316.36942 -4.84375,0 -8.75,-9.55079 -2.38281,2.26563 0,7.28516 -3.67188,0 0,-30.39063 3.67188,0 0,19.49219 10.60547,-10.91797 4.6289,0 -10.13672,10.07812 10.87891,11.73829 z"
       style=""
       id="path3452" /><path
       d="m 996.23987,316.36942 -3.65235,0 0,-2.32422 q -0.48828,0.33203 -1.32812,0.9375 -0.82031,0.58593 -1.60156,0.9375 -0.91797,0.44922 -2.10938,0.74218 -1.1914,0.3125 -2.79297,0.3125 -2.94922,0 -5,-1.95312 -2.05078,-1.95313 -2.05078,-4.98047 0,-2.48047 1.05469,-4.00391 1.07422,-1.54296 3.04687,-2.42187 1.99219,-0.87891 4.78516,-1.19141 2.79297,-0.3125 5.99609,-0.46875 l 0,-0.5664 q 0,-1.25 -0.44921,-2.07032 -0.42969,-0.82031 -1.25,-1.28906 -0.78125,-0.44922 -1.875,-0.60547 -1.09375,-0.15625 -2.28516,-0.15625 -1.44531,0 -3.22266,0.39063 -1.77734,0.37109 -3.67187,1.09375 l -0.19531,0 0,-3.73047 q 1.07421,-0.29297 3.10546,-0.64453 2.03125,-0.35156 4.00391,-0.35156 2.30469,0 4.00391,0.39062 1.71875,0.37109 2.96875,1.28906 1.23047,0.89844 1.875,2.32422 0.64453,1.42578 0.64453,3.53516 l 0,14.80469 z m -3.65235,-5.3711 0,-6.07422 q -1.67968,0.0977 -3.96484,0.29297 -2.26562,0.19531 -3.59375,0.56641 -1.58203,0.44922 -2.55859,1.40625 -0.97657,0.9375 -0.97657,2.59765 0,1.875 1.13282,2.83204 1.13281,0.9375 3.45703,0.9375 1.93359,0 3.53515,-0.74219 1.60157,-0.76172 2.96875,-1.81641 z"
       style=""
       id="path3454" /></g></svg>