<?xml version="1.0" encoding="UTF-8" standalone="no"?>
<!-- Generator: Adobe Illustrator 19.0.0, SVG Export Plug-In . SVG Version: 6.00 Build 0)  -->

<svg
   xmlns:osb="http://www.openswatchbook.org/uri/2009/osb"
   xmlns:dc="http://purl.org/dc/elements/1.1/"
   xmlns:cc="http://creativecommons.org/ns#"
   xmlns:rdf="http://www.w3.org/1999/02/22-rdf-syntax-ns#"
   xmlns:svg="http://www.w3.org/2000/svg"
   xmlns="http://www.w3.org/2000/svg"
   xmlns:sodipodi="http://sodipodi.sourceforge.net/DTD/sodipodi-0.dtd"
   xmlns:inkscape="http://www.inkscape.org/namespaces/inkscape"
   version="1.1"
   id="svg8376"
   x="0px"
   y="0px"
   viewBox="0 0 595.3 841.9"
   style="enable-background:new 0 0 595.3 841.9;"
   xml:space="preserve"
   sodipodi:docname="16_sesja_logo_data_pl_white_organizator_org.svg"
   inkscape:version="0.92.4 (5da689c313, 2019-01-14)"><metadata
   id="metadata92"><rdf:RDF><cc:Work
       rdf:about=""><dc:format>image/svg+xml</dc:format><dc:type
         rdf:resource="http://purl.org/dc/dcmitype/StillImage" /><dc:title></dc:title></cc:Work></rdf:RDF></metadata><defs
   id="defs90"><linearGradient
     id="linearGradient6122"
     osb:paint="solid"><stop
       style="stop-color:#000000;stop-opacity:1;"
       offset="0"
       id="stop6120" /></linearGradient></defs><sodipodi:namedview
   pagecolor="#ffffff"
   bordercolor="#666666"
   borderopacity="1"
   objecttolerance="10"
   gridtolerance="10"
   guidetolerance="10"
   inkscape:pageopacity="0"
   inkscape:pageshadow="2"
   inkscape:window-width="798"
   inkscape:window-height="828"
   id="namedview88"
   showgrid="false"
   inkscape:zoom="1.0801277"
   inkscape:cx="289.29942"
   inkscape:cy="809.62406"
   inkscape:window-x="793"
   inkscape:window-y="0"
   inkscape:window-maximized="0"
   inkscape:current-layer="g6563" />
<style
   type="text/css"
   id="style2">
	.st0{fill:#5B6565;stroke:#FCFCFC;stroke-width:3;stroke-miterlimit:10;}
	.st1{fill:#FFFFFF;stroke:#000000;stroke-width:0.1;}
	.st2{fill:#439197;}
	.st3{fill:#EFCC17;stroke:#010101;stroke-width:0.25;}
	.st4{opacity:0.83;fill:#FFFFFF;enable-background:new    ;}
	.st5{opacity:0.81;fill:#FFFFFF;enable-background:new    ;}
	.st6{fill:#121B1C;}
	.st7{fill:#33404A;}
	.st8{fill:#242C36;}
	.st9{fill:#E7EBEF;}
	.st10{fill:#FFFFFF;}
	.st11{fill:#A9AFB8;}
	.st12{fill:#030303;}
	.st13{fill:#111A1A;}
	.st14{fill:#5B6565;}
	.st15{enable-background:new    ;}
</style>
<g
   inkscape:groupmode="layer"
   id="layer1"
   inkscape:label="tekst"><text
   xml:space="preserve"
   style="font-style:normal;font-weight:normal;font-size:1.46602392px;line-height:125%;font-family:sans-serif;letter-spacing:0px;word-spacing:0px;fill:none;fill-opacity:1;stroke:#000000;stroke-width:0.29320475px;stroke-linecap:butt;stroke-linejoin:miter;stroke-opacity:1;"
   x="134.83981"
   y="164.60547"
   id="text120"><tspan
     sodipodi:role="line"
     id="tspan118"
     x="134.83981"
     y="164.60547"
     style="font-size:11.72819138px;stroke-width:0.29320475px;stroke:#000000;stroke-opacity:1;fill:none;fill-opacity:1;">6-7 kwietnia 2019 | Wrocław, Polska</tspan></text>

</g><g
   inkscape:label="tekst copy"
   id="g6563"
   inkscape:groupmode="layer"
   style="display:inline"><text
   id="text6561"
   y="164.60547"
   x="134.83981"
   style="font-style:normal;font-weight:normal;font-size:1.46602392px;line-height:125%;font-family:sans-serif;letter-spacing:0px;word-spacing:0px;fill:#ffffff;fill-opacity:1;stroke:none;stroke-width:0.29320475px;stroke-linecap:butt;stroke-linejoin:miter;stroke-opacity:1"
   xml:space="preserve"><tspan
     style="font-size:11.72819138px;fill:#ffffff;fill-opacity:1;stroke-width:0.29320475px"
     y="164.60547"
     x="134.83981"
     id="tspan6559"
     sodipodi:role="line">6-7 kwietnia 2019 | Wrocław, Polska</tspan></text>

<text
   y="227.74411"
   x="57.280254"
   class="st2 st16 st17"
   id="text87"
   style="font-size:75.02739716px;fill:#439197;stroke-width:6.25228357">organizator</text>
</g><g
   inkscape:groupmode="layer"
   id="layer2"
   inkscape:label="default"><g
     style="enable-background:new 0 0 595.29999999999995453 841.89999999999997726"
     id="g85">
	<path
   class="st0"
   d="M404.5,112.5L404.5,112.5c0.1-0.5-0.4-2.4-2.6-9c-5.2-15.5-22.5-15.1-22.5-15.1s-0.1,0-0.2,0   c-1.7,0-15.6,0.7-19.7,15.1c-1.9,6.6-2.1,8.2-2.2,8.9v1.2c-6.5,4.9-8.8,11.6-6,20.5c0,0,2.9-8.5,5.1-8.5c0,0-1.4,13.5,8.4,20.6   c-2.8,0.4-6.8,1.6-7.6,5.3h4.3c0,0,0.2,2.3,0.8,3.3l6-2.6v2.6c0,0,5.3-0.8,5.6-4.9c2,0.4,4.2,0.5,6.7,0.5c1.9,0,3.6-0.1,5.2-0.4   c0.4,4,4.8,4.8,4.8,4.8v-2.6l5.1,2.6c0.6-1,0.7-3.3,0.7-3.3h3.7c-0.5-2.8-2.8-4.2-4.9-4.9c10.8-6.9,10.1-21,10.1-21   c2.6,0,5.8,8.8,5.8,8.8C416.4,121,406.6,116.1,404.5,112.5z"
   id="path4" />
	<path
   id="path67_3_"
   class="st1"
   d="M140.5,104.1h6.7c0.1,1.3,0.6,2.3,1.5,2.9c0.9,0.7,2.3,0.9,3.9,0.9c1.1,0,2.2-0.2,3-0.7   s1.1-1,1.1-1.9c0-1.1-1.4-2.1-4.1-2.6c-1.1-0.2-2.1-0.4-2.6-0.6c-3.5-0.8-5.7-1.9-6.9-3c-1.3-1.1-2-2.7-2-4.7   c0-2.4,0.9-4.5,2.8-6.2c2-1.5,4.5-2.3,7.6-2.3c3.4,0,6.1,0.8,8.1,2.3c1.9,1.6,2.9,3.8,3,6.4h-4.2c-1.2,0-2.2-0.6-2.8-1.7   c-0.3-0.3-0.6-0.6-0.8-0.8c-0.8-0.6-1.9-0.8-3.2-0.8s-2.3,0.2-2.9,0.6c-0.6,0.4-0.8,0.9-0.8,1.8c0,1,1.7,1.9,5.1,2.6   c0.4,0.1,0.8,0.2,1,0.3c0.3,0.1,0.6,0.1,0.8,0.1c3.3,0.8,5.6,1.8,6.9,2.9c1.2,1.1,1.9,2.7,1.9,4.7c0,2.9-1,5.1-3.1,6.7   c-2,1.4-4.9,2.2-8.8,2.2c-3.8,0-6.5-0.8-8.3-2.3c-1.9-1.5-2.8-3.7-2.8-6.6L140.5,104.1L140.5,104.1z" />
	<path
   id="path69_3_"
   class="st1"
   d="M185.2,104.6h4.9c-0.8,2.7-2.1,4.8-4.1,6.3s-4.6,2.3-7.6,2.3c-3.8,0-6.6-1.2-8.7-3.6   c-2.1-2.3-3.1-5.7-3.1-10c0-4.1,1-7.4,3-9.8c2.1-2.4,5-3.6,8.7-3.6c3.9,0,6.9,1.1,9.1,3.5c2.1,2.4,3.1,5.7,3.1,10   c0,0.3,0,0.5,0,0.7s0,0.3,0,0.4c0,0.3,0,0.6-0.1,0.7h-16.9c0.1,2,0.6,3.5,1.5,4.5c0.8,1,2.2,1.6,3.8,1.6c1.1,0,2.1-0.2,2.8-0.7   c0.2-0.1,0.4-0.2,0.6-0.4c0.2-0.2,0.4-0.4,0.6-0.6c0.1-0.2,0.3-0.5,0.8-0.8C183.8,104.8,184.5,104.6,185.2,104.6L185.2,104.6z    M173.5,97h9.9c-0.1-1.8-0.6-3.1-1.4-3.9c-0.8-0.9-2.1-1.4-3.6-1.4c-1.4,0-2.6,0.5-3.5,1.4S173.6,95.3,173.5,97z" />
	<path
   id="path71_3_"
   class="st1"
   d="M193.5,104.1h6.7c0.1,1.3,0.6,2.3,1.5,2.9c0.9,0.7,2.3,0.9,3.9,0.9c1.1,0,2.2-0.2,3-0.7   s1.1-1,1.1-1.9c0-1.1-1.4-2.1-4.1-2.6c-1.1-0.2-2.1-0.4-2.6-0.6c-3.5-0.8-5.7-1.9-6.9-3c-1.3-1.1-2-2.7-2-4.7   c0-2.4,0.9-4.5,2.8-6.2c2-1.5,4.5-2.3,7.6-2.3c3.4,0,6.1,0.8,8.1,2.3c1.9,1.6,2.9,3.8,3,6.4h-4.2c-1.2,0-2.2-0.6-2.8-1.7   c-0.3-0.3-0.6-0.6-0.8-0.8c-0.8-0.6-1.9-0.8-3.2-0.8s-2.3,0.2-2.9,0.6c-0.6,0.4-0.8,0.9-0.8,1.8c0,1,1.7,1.9,5.1,2.6   c0.4,0.1,0.8,0.2,1,0.3c0.3,0.1,0.6,0.1,0.8,0.1c3.3,0.8,5.6,1.8,6.9,2.9c1.2,1.1,1.9,2.7,1.9,4.7c0,2.9-1,5.1-3.1,6.7   c-2,1.4-4.9,2.2-8.8,2.2c-3.8,0-6.5-0.8-8.3-2.3c-1.9-1.5-2.8-3.7-2.8-6.6L193.5,104.1z" />
	<path
   id="path73_3_"
   class="st1"
   d="M217.9,123.5v-5.6h1.3c0.6,0,0.9-0.2,1.1-0.5c0.3-0.2,0.4-0.7,0.4-1.3v-3.4V93.1v-6.4h3.5   c0.9,0,1.7,0.3,2.3,0.9c0.7,0.7,0.9,1.4,0.9,2.3v22.6v4.5c0,2.3-0.7,3.8-2,4.9c-1.3,0.9-3.5,1.5-6.5,1.5L217.9,123.5z M220.7,79.1   h3.5c0.9,0,1.7,0.3,2.3,0.9c0.7,0.7,0.9,1.4,0.9,2.3v2.1h-6.9L220.7,79.1z" />
	<path
   id="path75_3_"
   class="st1"
   d="M248.1,111.6c-1.4,0.8-2.8,1.1-4.3,1.3s-2.9,0.3-4,0.3c-2.3,0-4.4-0.7-6.2-1.9   c-1.8-1.3-2.6-3.4-2.6-6.3c0-2.7,0.8-4.7,2.3-5.8s3.7-2,6.1-2.3c0.3,0,0.8-0.1,1.1-0.2c0.5-0.1,0.9-0.2,1.6-0.3   c2.9-0.4,4.3-1.2,4.3-2.5c0-0.9-0.5-1.6-1.5-1.9s-2-0.5-2.8-0.5c-0.9,0-1.7,0.1-2.4,0.4c-0.8,0.3-1.2,0.8-1.6,1.5h-6.6   c0.3-2,1.1-3.7,2.7-5c1.8-1.5,4.2-2.3,7.5-2.3c3.7,0,6.4,0.7,8.2,1.9c1.9,1.3,2.8,3.1,2.8,5.4v8.9c0,2.6-0.5,4.6-1.4,6.1   C250.4,109.9,249.3,110.9,248.1,111.6L248.1,111.6z M246.5,99.6c-0.9,0.5-2.2,0.8-3.8,1.3l-2.3,0.5c-1.1,0.3-2,0.8-2.5,1.3   c-0.5,0.8-0.7,1.4-0.7,2.2c0,0.9,0.3,1.8,0.8,2.3s1.4,0.8,2.5,0.8c1.8,0,3.3-0.6,4.3-1.6s1.6-2.4,1.6-4.3L246.5,99.6L246.5,99.6z" />
	<path
   id="path79_3_"
   class="st1"
   d="M135.8,117.8h3.5c0.9,0,1.7,0.3,2.3,0.9c0.7,0.7,0.9,1.4,0.9,2.3v30.4h-6.9L135.8,117.8z" />
	<path
   id="path81_3_"
   class="st1"
   d="M146.3,117.8h3.5c0.9,0,1.7,0.3,2.3,0.9c0.7,0.7,0.9,1.4,0.9,2.3v2.1h-6.9L146.3,117.8   L146.3,117.8z M146.3,125.4h3.5c0.9,0,1.7,0.3,2.3,0.9c0.7,0.7,0.9,1.4,0.9,2.3v22.7h-6.9L146.3,125.4L146.3,125.4z" />
	<path
   id="path83_3_"
   class="st1"
   d="M179.2,151.4h-3.4c-0.9,0-1.8-0.3-2.3-0.9c-0.7-0.7-0.9-1.4-0.9-2.3V135c0-1.6-0.5-2.7-1.4-3.4   c-0.9-0.8-2-1-3.2-1c-1.1,0-2.3,0.4-3.1,1c-0.9,0.8-1.4,1.9-1.4,3.4v16.5h-6.9v-15.2c0-4.4,1.1-7.4,3.5-8.9s4.9-2.3,7.7-2.4   c2.9,0,5.5,0.8,7.9,2.3s3.6,4.5,3.6,9.1L179.2,151.4z" />
	<path
   id="path85_3_"
   class="st1"
   d="M205.5,125.4v15.2c0,4.6-1.2,7.6-3.6,9.1c-2.4,1.4-5.1,2.2-7.9,2.2c-2.8-0.1-5.4-0.9-7.7-2.3   c-2.3-1.4-3.5-4.4-3.5-8.9v-15.2h6.9V142c0,1.6,0.5,2.7,1.4,3.4c0.9,0.8,2,1,3.1,1s2.3-0.4,3.2-1c0.9-0.8,1.4-1.9,1.4-3.4v-13.2   c0-0.9,0.3-1.7,0.9-2.3c0.7-0.7,1.4-0.9,2.3-0.9L205.5,125.4z" />
	<path
   id="path87_3_"
   class="st1"
   d="M216.2,125.4v9.6l8.3-9.6h8.2l-9.3,9.9l9.4,16.1h-8.2l-4.8-8.8c-0.9-1.8-1.8-2.5-2.5-2.3   c-0.8,0.3-1,0.7-1,1.1v3.6v6.3h-6.9v-33.6h3.5c0.9,0,1.7,0.3,2.3,0.9c0.7,0.7,0.9,1.4,0.9,2.3L216.2,125.4z" />
	<path
   id="path89_3_"
   class="st1"
   d="M234.6,142.7h6.7c0.1,1.3,0.6,2.3,1.5,2.9c0.9,0.7,2.3,0.9,3.9,0.9c1.1,0,2.2-0.2,3-0.7   s1.1-1,1.1-1.9c0-1.1-1.4-2.1-4.1-2.6c-1.1-0.2-2.1-0.4-2.6-0.6c-3.5-0.8-5.7-1.9-6.9-3c-1.3-1.1-2-2.7-2-4.7   c0-2.4,0.9-4.5,2.8-6.2c2-1.5,4.5-2.3,7.6-2.3c3.4,0,6.1,0.8,8.1,2.3c1.9,1.6,2.9,3.8,3,6.4h-4.2c-1.2,0-2.2-0.6-2.8-1.7   c-0.3-0.3-0.6-0.6-0.8-0.8c-0.8-0.6-1.9-0.8-3.2-0.8s-2.3,0.2-2.9,0.6c-0.6,0.4-0.8,0.9-0.8,1.8c0,1,1.7,1.9,5.1,2.6   c0.4,0.1,0.8,0.2,1,0.3c0.3,0.1,0.6,0.1,0.8,0.1c3.3,0.8,5.6,1.8,6.9,2.9c1.2,1.1,1.9,2.7,1.9,4.7c0,2.9-1,5.1-3.1,6.7   c-2,1.4-4.9,2.2-8.8,2.2c-3.8,0-6.5-0.8-8.3-2.3c-1.9-1.5-2.8-3.7-2.8-6.6L234.6,142.7z" />
	<path
   id="path91_3_"
   class="st1"
   d="M264.7,149c-1.4-1.1-2.3-2.7-2.9-4.7s-0.8-4-0.8-6.2c0-1.8,0.3-3.5,0.8-5.3s1.2-3.2,2.3-4.4   c1.7-2,3.8-3.1,6.6-3.5c2.6-0.4,5.1-0.2,7.2,0.7c2.4,0.9,4.3,2.6,5.4,5.1c1.1,2.2,1.7,4.7,1.7,7.5c0,2.1-0.2,3.8-0.7,5.4   c-0.5,1.5-1,2.7-1.8,3.8c-1.6,2.2-3.6,3.5-5.9,4c-2.2,0.6-4.3,0.7-6.5,0.2C267.7,151,266,150.1,264.7,149L264.7,149z M269.4,131.8   c-1.4,1.5-2,3.8-1.9,6.7c0.1,3,0.7,5.1,1.7,6.2c0.4,0.6,1,0.9,2.1,1.3c0.9,0.4,2,0.4,3,0.1s1.9-1,2.7-2.2c0.8-1.1,1.2-3.1,1.3-5.6   c0-2.3-0.4-4.1-1.1-5.3c-0.8-1.1-1.6-1.9-2.6-2.3c-0.9-0.3-2-0.4-2.9-0.1C270.5,131,269.9,131.4,269.4,131.8z" />
	<path
   id="path93_3_"
   class="st1"
   d="M314.3,151.4h-6.9l-4-18.6l-4,18.6h-6.9l-7.1-26h6.7l4.1,17.9l3.8-17.9h6.9l3.5,17.9l3.6-15.6   c0.4-1.6,1.4-2.3,3.1-2.3h4.3L314.3,151.4z" />
	<path
   id="path95_3_"
   class="st1"
   d="M340.3,150.2c-1.4,0.8-2.8,1.1-4.3,1.3s-2.9,0.3-4,0.3c-2.3,0-4.4-0.7-6.2-1.9   c-1.8-1.3-2.6-3.4-2.6-6.3c0-2.7,0.8-4.7,2.3-5.8c1.6-1.1,3.7-2,6.1-2.3c0.3,0,0.8-0.1,1.1-0.2c0.5-0.1,0.9-0.2,1.6-0.3   c2.9-0.4,4.3-1.2,4.3-2.5c0-0.9-0.5-1.6-1.5-1.9c-1-0.3-2-0.5-2.8-0.5c-0.9,0-1.7,0.1-2.4,0.4c-0.8,0.3-1.2,0.8-1.6,1.5h-6.6   c0.3-2,1.1-3.7,2.7-5c1.8-1.5,4.2-2.3,7.5-2.3c3.7,0,6.4,0.7,8.2,1.9c1.9,1.3,2.8,3.1,2.8,5.4v8.9c0,2.6-0.5,4.6-1.4,6.1   C342.7,148.6,341.6,149.6,340.3,150.2L340.3,150.2z M338.7,138.2c-0.9,0.5-2.2,0.8-3.8,1.3l-2.3,0.5c-1.1,0.3-2.1,0.8-2.5,1.3   c-0.5,0.8-0.7,1.4-0.7,2.2c0,0.9,0.3,1.8,0.8,2.3c0.6,0.6,1.4,0.8,2.5,0.8c1.8,0,3.3-0.6,4.3-1.6s1.6-2.4,1.6-4.3v-2.5H338.7z" />
	<g
   id="g3063_3_"
   transform="matrix(1.5410585,0,0,1.5410585,-650.35528,114.9297)">
		<g
   id="text3035_3_"
   transform="matrix(1.3550558,0,0,1.3550558,-191.22155,31.12899)">
			<path
   id="path3044_3_"
   class="st2"
   d="M495.7-36.8c-8,0-11.9,3.9-11.9,11.9v19.3H515v-31.3L495.7-36.8" />
		</g>
	</g>
	<g
   id="g3109_3_"
   transform="matrix(0.34688695,0,0,0.34688695,904.74796,-41.317344)">
		<g
   id="g7_3_">
			<path
   id="path9_3_"
   class="st3"
   d="M-1479.6,540.1c0,0,22.6-0.5,25.5,15.8h-10.7c0,0-0.4,6.7-2.1,9.6l-14.8-7.6v7.6     c0,0-13.6-2.3-14-14.8C-1496,538.2-1479.6,540.1-1479.6,540.1L-1479.6,540.1z" />
			<path
   id="path11_3_"
   class="st4"
   d="M-1458.6,550.4h-8.7l-0.9,9.1l-14.6-6.7l-1.7,6.7c0,0-10-11.7,5.7-17.2     C-1466.6,538-1458.6,548.4-1458.6,550.4" />
		</g>
		<g
   id="g13_3_">
			<path
   id="path15_2_"
   class="st3"
   d="M-1548.5,540.1c0,0-26.3-0.5-29.6,15.8h12.4c0,0,0.5,6.7,2.3,9.6l17.2-7.6v7.6     c0,0,15.8-2.3,16.2-14.8C-1529.3,538.2-1548.5,540.1-1548.5,540.1z" />
			<path
   id="path17_2_"
   class="st5"
   d="M-1572.7,550.4h10.1l1.1,9.1l17-6.7l2,6.7c0,0,11.6-11.7-6.7-17.2     C-1563.4,538-1572.7,548.4-1572.7,550.4" />
		</g>
		<path
   id="path19_2_"
   class="st6"
   d="M-1514.9,374.1c-5,0.1-44.9,1.9-56.8,43.6c-5.4,19.1-6.1,23.6-6.3,25.6c0,0.1,0,3.4-0.1,3.5    c-18.7,14-25.4,33.4-17.3,59c0,0,8.4-24.5,14.7-24.5c0,0-7.7,72.6,70,71.3c75.4,0,71.5-71.3,71.5-71.3c7.6,0,16.7,25.4,16.7,25.4    c14.4-38.9-13.6-53.1-19.7-63.3c-0.1-0.1-0.1-0.2-0.1-0.3c0.3-1-1-6.7-7.4-25.6c-15.1-44.6-64.8-43.6-64.8-43.6    S-1514.5,374.1-1514.9,374.1z" />
		<path
   id="path21_2_"
   class="st7"
   d="M-1452.1,474.2c0,0,22-2.5,29.9,24.6l0,0c0,0,12.2-22.3-23.9-52.9c0,0-3.3-73.4-75.2-69.6V520    C-1521.3,520.1-1458.9,534.3-1452.1,474.2L-1452.1,474.2z" />
		<path
   id="path25_2_"
   class="st7"
   d="M-1569.5,474.2c0,0-18.5-2.5-25.2,24.6l0,0c0,0-11.5-27.2,20.1-49.9c0,0,2.9-76.3,63.4-72.6    v143.8C-1511.2,520.1-1563.8,534.3-1569.5,474.2z" />
		<path
   id="path27_2_"
   class="st8"
   d="M-1555.9,391.4" />
		<path
   id="path29_2_"
   class="st9"
   d="M-1546.3,454.5c0,0,58.3-1.9,69.3,0c0,0,17.2,10.8,17.2,44.2c0,16-10.9,45.5-54.5,45.5    c0,0-46.7-2.3-46.7-45.5C-1561.1,498.8-1565.3,472.8-1546.3,454.5L-1546.3,454.5z" />
		<path
   id="path31_2_"
   class="st10"
   d="M-1546.3,454.5c0,0,53.7-2.5,64.9-0.8c0,0,21.2,7.4,21.2,36.4c0,9.3-9.2,37-50.8,37    c0,0-50.4,0.6-50.4-37C-1561.5,490.1-1562.4,468.1-1546.3,454.5z" />
		<path
   id="path33_2_"
   class="st11"
   d="M-1528.8,452.5c0,0,18.4-8.1,36.8,0c0,0-14.4,19.1-18.4,19.1    C-1512.8,471.6-1523.1,463.9-1528.8,452.5z" />
		<path
   id="path35_2_"
   class="st12"
   d="M-1532.7,452.5c0,0,18.4-8.1,36.8,0c0,0-14.4,19.1-18.4,19.1    C-1516.6,471.6-1527,463.9-1532.7,452.5z" />
		<path
   id="path37_2_"
   class="st13"
   d="M-1511.7,420.2c0,0-25.2-11.7-37.4-12.6c-12.2-0.8-27,29.2-7.7,43.1    c16.2,11.6,31.1,3.3,45-1.4c0,0,16.7,8.5,33.4,6.2c23.1-3.2,30.3-49.2,3.6-47.3l0,0C-1474.8,408.3-1489.2,403.5-1511.7,420.2z" />
		<path
   id="path39_2_"
   class="st10"
   d="M-1515.5,427.9c0,0-31.3-12.4-36.2-13.3c0,0-11.1,21,9.3,29.6    C-1542.4,444.1-1523.1,450.8-1515.5,427.9z" />
		<path
   id="path41_2_"
   class="st10"
   d="M-1470.8,414.1c0,0-31.6,11.6-35.9,14.2c0,0,5.8,23,26.7,16    C-1480,444.1-1461.3,436.2-1470.8,414.1L-1470.8,414.1z" />
		<path
   id="path43_2_"
   class="st14"
   d="M-1549,407.2c0,0,23.3,6.1,36.3,12.9c0,0,28.8-12.3,37.9-12.3l0,0c0,0-0.2-29.3-39.8-29.3    C-1514.6,378.6-1549,381-1549,407.2z" />
		<path
   id="path45_2_"
   class="st3"
   d="M-1532.7,448.9c0,0,18.4-8.1,36.8,0c0,0-14.4,19.1-18.4,19.1    C-1516.6,468.1-1527,460.4-1532.7,448.9z" />
		<path
   id="path47_2_"
   class="st13"
   d="M-1522.8,428.2c0,4.4-3.6,8.1-8.1,8.1c-4.4,0-8.1-3.6-8.1-8.1c0-4.4,3.6-8.1,8.1-8.1    S-1522.8,423.8-1522.8,428.2z" />
		<path
   id="path49_2_"
   class="st13"
   d="M-1482.4,428.2c0,4.4-3.6,8.1-8.1,8.1c-4.4,0-8.1-3.6-8.1-8.1c0-4.4,3.6-8.1,8.1-8.1    S-1482.4,423.8-1482.4,428.2z" />
		<path
   id="path51_3_"
   class="st10"
   d="M-1522.8,425.6c0,1.5-1.2,2.8-2.7,2.8s-2.8-1.2-2.8-2.8c0-1.5,1.2-2.7,2.8-2.7    C-1524,422.8-1522.8,424-1522.8,425.6z" />
		<path
   id="path53_3_"
   class="st10"
   d="M-1485.2,422.8c0,1.5-1.2,2.7-2.8,2.7c-1.5,0-2.7-1.2-2.7-2.7s1.2-2.8,2.7-2.8    C-1486.4,420.1-1485.2,421.3-1485.2,422.8z" />
		<path
   id="path55_3_"
   class="st10"
   d="M-1513.3,450.7c0,0-8.6-1.4-12.9,2.3l9.1,9.9L-1513.3,450.7z" />
		<path
   id="path57_3_"
   class="st14"
   d="M-1574.5,448.8c0,0,6.1-3.8,8.5,0c2.4,3.8-28.2,24.5-28.6,49.9c0,0-0.6,2.7-1.3-4.5    C-1596.6,487-1600.8,468-1574.5,448.8z" />
		<path
   id="path59_3_"
   class="st14"
   d="M-1446,445.9c0,0-4.5-0.8-7.1,2.9c-2.6,3.8,30.7,24.5,31.2,49.9c0,0,0.6,2.7,1.4-4.5    C-1419.9,487-1417.5,465.1-1446,445.9z" />
	</g>
	
	
<g
   aria-label="16"
   transform="matrix(0.37661836,0,0,0.37450321,56.480073,97.611422)"
   style="font-style:normal;font-weight:normal;font-size:5px;line-height:125%;font-family:sans-serif;letter-spacing:0px;word-spacing:0px;fill:#000000;fill-opacity:1;stroke:none;stroke-width:1px;stroke-linecap:butt;stroke-linejoin:miter;stroke-opacity:1"
   id="flowRoot94"><path
     inkscape:connector-curvature="0"
     id="path407"
     style="font-style:normal;font-variant:normal;font-weight:normal;font-stretch:normal;font-size:192px;font-family:Harabara;-inkscape-font-specification:Harabara;letter-spacing:6.9486227px;fill:#ffffff"
     d="m 118.1244,82.735686 q 0,10.875 5.625,17.625004 5.25,6.375 15.375,6.375 9.75,0 14.625,-6.375 5.25,-6.375004 5.25,-17.625004 0,-10.5 -5.625,-16.125 -5.25,-5.625 -15,-5.625 -9.375,0 -15,5.625 -5.25,6 -5.25,16.125 z m -0.375,-33.75 q 4.125,-4.125 10.875,-6.75 7.875,-2.625 14.25,-2.625 19.125,0 31.5,11.625 11.625,12.375 11.625,30.75 0,20.250004 -12.75,33.375004 -12.75,12 -34.125,12 -24.375,0 -36.75,-15.75 -11.999995,-15.750004 -11.999995,-47.625004 0,-34.125 13.124995,-51.75 13.5,-17.9999995 38.625,-17.9999995 17.625,0 28.5,9 10.5,9.3749995 12,24.3749995 h -19.5 q -3.75,0 -6,-2.25 -1.875,-2.25 -4.125,-4.875 -2.25,-1.875 -5.25,-3.75 -3,-1.875 -8.625,-1.875 -9.75,0 -15.375,8.625 -5.625,8.25 -6,25.5 z M 57.550781,125.48569 V 38.485686 h -24.375 v -18.75 q 8.25,0 16.875,-5.25 9,-5.6249995 12.375,-17.9999995 h 7.5 v 0 q 5.625,0 9.375,3.74999997 4.125,3.75000003 4.125,9.37500003 V 125.48569 Z" /></g></g></g>
</svg>