<?xml version="1.0" encoding="UTF-8" standalone="no"?>
<!-- Generator: Adobe Illustrator 14.0.0, SVG Export Plug-In . SVG Version: 6.00 Build 43363)  -->

<svg
   xmlns:dc="http://purl.org/dc/elements/1.1/"
   xmlns:cc="http://creativecommons.org/ns#"
   xmlns:rdf="http://www.w3.org/1999/02/22-rdf-syntax-ns#"
   xmlns:svg="http://www.w3.org/2000/svg"
   xmlns="http://www.w3.org/2000/svg"
   xmlns:sodipodi="http://sodipodi.sourceforge.net/DTD/sodipodi-0.dtd"
   xmlns:inkscape="http://www.inkscape.org/namespaces/inkscape"
   version="1.1"
   id="Layer_1"
   x="0px"
   y="0px"
   width="1229.9869"
   height="300.03589"
   viewBox="0 0 1229.9869 300.03589"
   enable-background="new 0 0 1674.168 1027.062"
   xml:space="preserve"
   inkscape:version="0.92.3 (2405546, 2018-03-11)"
   sodipodi:docname="13_sesja_logo_wektor_org.svg"
   inkscape:export-filename="C:\Users\kitor\Desktop\13_sesja_logo.png"
   inkscape:export-xdpi="90"
   inkscape:export-ydpi="90"><metadata
     id="metadata107"><rdf:RDF><cc:Work
         rdf:about=""><dc:format>image/svg+xml</dc:format><dc:type
           rdf:resource="http://purl.org/dc/dcmitype/StillImage" /><dc:title></dc:title></cc:Work></rdf:RDF></metadata><defs
     id="defs105" /><sodipodi:namedview
     pagecolor="#ffffff"
     bordercolor="#666666"
     borderopacity="1"
     objecttolerance="10"
     gridtolerance="10"
     guidetolerance="10"
     inkscape:pageopacity="0"
     inkscape:pageshadow="2"
     inkscape:window-width="1853"
     inkscape:window-height="1025"
     id="namedview103"
     showgrid="false"
     inkscape:zoom="2.5139052"
     inkscape:cx="171.1381"
     inkscape:cy="135.00341"
     inkscape:window-x="67"
     inkscape:window-y="27"
     inkscape:window-maximized="1"
     inkscape:current-layer="text3384"
     showguides="true"
     inkscape:guide-bbox="true"
     fit-margin-top="20"
     fit-margin-left="20"
     fit-margin-right="20"
     fit-margin-bottom="20"><inkscape:grid
       type="xygrid"
       id="grid3002"
       originx="-237.70484"
       originy="39.30718" /><sodipodi:guide
       orientation="0,1"
       position="10.50192,50.869127"
       id="guide3054"
       inkscape:locked="false" /><sodipodi:guide
       position="33.175806,118.09522"
       orientation="1,0"
       id="guide3406"
       inkscape:locked="false" /><sodipodi:guide
       position="262.93751,87.491688"
       orientation="1,0"
       id="guide4202"
       inkscape:locked="false" /><sodipodi:guide
       position="980.94389,99.027528"
       orientation="1,0"
       id="guide4204"
       inkscape:locked="false" /><sodipodi:guide
       position="327.37908,-16.330845"
       orientation="0,1"
       id="guide4206"
       inkscape:locked="false" /></sodipodi:namedview><g
     id="g63"
     transform="translate(1.7505961,-723.39839)"><g
       id="g65"><path
         d="m 277.06259,829.18639 22.788,0 c 0.22,4.472 1.896,7.822 5.026,10.053 3.351,2.236 7.817,3.352 13.404,3.352 4.021,0 7.482,-0.78 10.389,-2.346 2.681,-1.561 4.021,-3.687 4.021,-6.367 0,-4.021 -4.691,-7.037 -14.074,-9.048 -4.021,-0.67 -7.038,-1.341 -9.048,-2.011 -11.844,-2.9 -19.771,-6.367 -23.792,-10.389 -4.472,-4.021 -6.702,-9.383 -6.702,-16.085 0,-8.487 3.236,-15.524 9.718,-21.111 6.702,-5.137 15.415,-7.708 26.138,-7.708 11.614,0 20.887,2.571 27.814,7.708 6.477,5.587 9.938,12.849 10.388,21.781 l -14.409,0 c -4.247,0 -7.488,-1.896 -9.718,-5.696 -0.896,-0.891 -1.791,-1.786 -2.681,-2.681 -2.681,-2.011 -6.367,-3.017 -11.059,-3.017 -4.471,0 -7.822,0.671 -10.053,2.011 -2.01,1.341 -3.016,3.352 -3.016,6.032 0,3.576 5.807,6.592 17.425,9.048 1.341,0.45 2.514,0.785 3.519,1.005 1.005,0.226 1.953,0.335 2.848,0.335 11.394,2.906 19.321,6.258 23.792,10.054 4.241,4.021 6.367,9.383 6.367,16.085 0,9.834 -3.576,17.426 -10.723,22.787 -6.702,4.917 -16.755,7.373 -30.16,7.373 -12.734,0 -22.232,-2.565 -28.484,-7.708 -6.482,-5.137 -9.718,-12.618 -9.718,-22.452 l 0,-1.005 z"
         id="path67"
         inkscape:connector-curvature="0"
         style="fill:#429096;fill-opacity:1" /><path
         d="m 430.40759,831.19739 16.755,0 c -2.461,9.383 -7.153,16.535 -14.075,21.446 -6.927,5.143 -15.64,7.708 -26.138,7.708 -12.734,0 -22.678,-4.132 -29.825,-12.399 -7.152,-8.042 -10.724,-19.546 -10.724,-34.516 0,-14.295 3.461,-25.469 10.389,-33.511 7.147,-8.263 17.09,-12.399 29.824,-12.399 13.404,0 23.793,4.021 31.165,12.063 7.147,8.269 10.724,19.771 10.724,34.517 0,0.896 0,1.676 0,2.346 0,0.67 0,1.12 0,1.341 0,1.12 -0.115,1.9 -0.335,2.346 l -57.974,0 c 0.22,6.927 1.895,12.063 5.026,15.415 2.901,3.576 7.257,5.361 13.069,5.361 3.796,0 7.037,-0.78 9.718,-2.346 0.67,-0.22 1.283,-0.612 1.843,-1.173 0.555,-0.555 1.173,-1.173 1.843,-1.843 0.22,-0.671 1.058,-1.561 2.513,-2.682 1.453,-1.115 3.521,-1.674 6.202,-1.674 z m -40.213,-26.139 34.181,0 c -0.45,-6.032 -2.011,-10.498 -4.691,-13.404 -2.906,-3.126 -7.037,-4.691 -12.399,-4.691 -4.917,0 -8.938,1.565 -12.064,4.691 -3.132,3.13 -4.807,7.597 -5.027,13.404 z"
         id="path69"
         inkscape:connector-curvature="0"
         style="fill:#429096;fill-opacity:1" /><path
         d="m 458.75759,829.18639 22.788,0 c 0.22,4.472 1.896,7.822 5.026,10.053 3.351,2.236 7.817,3.352 13.404,3.352 4.021,0 7.482,-0.78 10.389,-2.346 2.681,-1.561 4.021,-3.687 4.021,-6.367 0,-4.021 -4.691,-7.037 -14.074,-9.048 -4.021,-0.67 -7.038,-1.341 -9.048,-2.011 -11.844,-2.9 -19.771,-6.367 -23.792,-10.389 -4.472,-4.021 -6.702,-9.383 -6.702,-16.085 0,-8.487 3.236,-15.524 9.718,-21.111 6.702,-5.137 15.415,-7.708 26.138,-7.708 11.614,0 20.887,2.571 27.814,7.708 6.477,5.587 9.938,12.849 10.388,21.781 l -14.41,0 c -4.247,0 -7.488,-1.896 -9.718,-5.696 -0.896,-0.891 -1.791,-1.786 -2.681,-2.681 -2.681,-2.011 -6.367,-3.017 -11.059,-3.017 -4.471,0 -7.822,0.671 -10.053,2.011 -2.01,1.341 -3.016,3.352 -3.016,6.032 0,3.576 5.807,6.592 17.425,9.048 1.341,0.45 2.514,0.785 3.519,1.005 1.005,0.226 1.953,0.335 2.848,0.335 11.394,2.906 19.321,6.258 23.792,10.054 4.241,4.021 6.367,9.383 6.367,16.085 0,9.834 -3.576,17.426 -10.723,22.787 -6.702,4.917 -16.755,7.373 -30.16,7.373 -12.734,0 -22.232,-2.565 -28.484,-7.708 -6.482,-5.137 -9.718,-12.618 -9.718,-22.452 l 0,-1.005 z"
         id="path71"
         inkscape:connector-curvature="0"
         style="fill:#429096;fill-opacity:1" /><path
         d="m 542.40059,895.87239 0,-19.437 4.356,0 c 2.011,0 3.351,-0.561 4.021,-1.676 0.89,-0.67 1.34,-2.126 1.34,-4.356 l 0,-11.729 0,-67.356 0,-21.782 12.064,0 c 3.126,0 5.807,1.12 8.042,3.351 2.23002,2.236 3.35102,4.917 3.35102,8.043 l 0,77.745 0,15.415 c 0,7.592 -2.23602,13.179 -6.70202,16.755 -4.472,3.352 -11.844,5.027 -22.117,5.027 l -4.355,0 z m 9.718,-152.474 12.064,0 c 3.126,0 5.807,1.121 8.042,3.352 2.23002,2.235 3.35102,4.916 3.35102,8.042 l 0,7.038 -23.45802,0 0,-18.432 z"
         id="path73"
         inkscape:connector-curvature="0"
         style="fill:#429096;fill-opacity:1" /><path
         d="m 646.14963,854.98939 c -4.691,2.461 -9.666,3.964 -14.912,4.524 -5.252,0.555 -9.886,0.838 -13.907,0.838 -8.042,0 -15.08,-2.179 -21.112,-6.535 -6.032,-4.356 -9.048,-11.561 -9.048,-21.614 0,-9.383 2.733,-16.085 8.21,-20.106 5.472,-4.021 12.451,-6.702 20.944,-8.043 1.115,0 2.456,-0.167 4.021,-0.502 1.561,-0.335 3.351,-0.613 5.362,-0.838 9.828,-1.341 14.745,-4.241 14.745,-8.713 0,-3.352 -1.733,-5.529 -5.194,-6.534 -3.466,-1.006 -6.649,-1.509 -9.55,-1.509 -3.131,0 -5.922,0.45 -8.378,1.341 -2.461,0.896 -4.246,2.571 -5.362,5.026 l -22.452,0 c 0.89,-6.922 4.021,-12.619 9.383,-17.09 6.032,-5.137 14.629,-7.708 25.803,-7.708 12.509,0 21.892,2.126 28.149,6.367 6.477,4.472 9.718,10.724 9.718,18.766 l 0,30.495 c 0,8.938 -1.623,15.918 -4.859,20.944 -3.24,5.026 -7.094,8.66 -11.561,10.891 z m -5.361,-41.218 c -3.131,1.565 -7.487,3.016 -13.069,4.356 l -7.708,1.676 c -4.021,1.12 -6.927,2.57 -8.713,4.356 -1.565,2.461 -2.346,4.916 -2.346,7.372 0,3.351 1.005,6.032 3.016,8.042 2.011,1.791 4.912,2.682 8.713,2.682 6.252,0 11.168,-1.786 14.745,-5.362 3.571,-3.57 5.361,-8.487 5.361,-14.744 l 0,-8.378 z"
         id="path75"
         inkscape:connector-curvature="0"
         style="fill:#429096;fill-opacity:1" /><path
         d="m 261.01623,876.16171 12.064,0 c 3.126,0 5.807,1.063 8.042,3.184 2.23,2.126 3.351,4.749 3.351,7.875 l 0,104.21896 -23.458,0 0,-115.27796 z"
         id="path79"
         style="fill:#323f49;fill-opacity:1"
         inkscape:connector-curvature="0" /><path
         d="m 296.834,876.16171 12.064,0 c 3.125,0 5.806,1.121 8.042,3.352 2.23,2.235 3.351,4.916 3.351,8.042 l 0,7.038 -23.457,0 0,-18.432 z m 0,26.138 12.064,0 c 3.125,0 5.806,1.12 8.042,3.351 2.23,2.236 3.351,4.917 3.351,8.043 l 0,77.74496 -23.457,0 0,-89.13896 z"
         id="path81"
         style="fill:#323f49;fill-opacity:1"
         inkscape:connector-curvature="0" /><path
         d="m 409.87123,991.43867 -11.729,0 c -3.352,0 -6.09,-1.058 -8.211,-3.184 -2.125,-2.12 -3.183,-4.859 -3.183,-8.21 l 0,-45.57496 c 0,-5.361 -1.624,-9.268 -4.859,-11.729 -3.241,-2.455 -6.87,-3.686 -10.892,-3.686 -4.021,0 -7.597,1.23 -10.723,3.686 -3.132,2.461 -4.691,6.367 -4.691,11.729 l 0,56.96896 -23.458,0 0,-52.27596 c 0,-15.19 3.964,-25.354 11.896,-30.495 7.927,-5.137 16.697,-7.928 26.306,-8.378 9.828,0 18.876,2.571 27.144,7.708 8.263,5.142 12.399,15.529 12.399,31.165 l 0,52.27596 z"
         id="path83"
         style="fill:#323f49;fill-opacity:1"
         inkscape:connector-curvature="0" /><path
         d="m 499.88123,902.29971 0,52.276 c 0,15.865 -4.137,26.25396 -12.399,31.16496 -8.268,4.917 -17.315,7.373 -27.144,7.373 -9.608,-0.45 -18.379,-3.126 -26.306,-8.043 -7.933,-4.911 -11.896,-15.07996 -11.896,-30.49496 l 0,-52.276 23.458,0 0,56.969 c 0,5.361 1.56,9.272 4.691,11.729 3.126,2.461 6.702,3.686 10.723,3.686 4.021,0 7.65,-1.225 10.892,-3.686 3.235,-2.456 4.859,-6.367 4.859,-11.729 l 0,-45.575 c 0,-3.126 1.058,-5.807 3.183,-8.043 2.121,-2.23 4.859,-3.351 8.211,-3.351 l 11.728,0 z"
         id="path85"
         style="fill:#323f49;fill-opacity:1"
         inkscape:connector-curvature="0" /><path
         d="m 536.72934,902.29971 0,32.841 28.483,-32.841 28.14899,0 -31.83499,34.181 32.16999,54.95796 -28.14899,0 -16.42,-30.15996 c -3.351,-6.031 -6.257,-8.597 -8.713,-7.707 -2.461,0.896 -3.686,2.235 -3.686,4.021 l 0,12.398 0,21.44696 -23.458,0 0,-115.27596 12.063,0 c 3.126,0 5.808,1.121 8.043,3.352 2.23,2.235 3.352,4.807 3.352,7.707 l 0,15.079 z"
         id="path87"
         style="fill:#323f49;fill-opacity:1"
         inkscape:connector-curvature="0" /><path
         d="m 599.78593,961.94971 22.787,0 c 0.221,4.472 1.896,7.822 5.027,10.053 3.351,2.236 7.817,3.352 13.404,3.352 4.021,0 7.482,-0.78 10.388,-2.346 2.681,-1.561 4.021,-3.687 4.021,-6.367 0,-4.021 -4.691,-7.037 -14.074,-9.048 -4.021,-0.67 -7.037,-1.341 -9.048,-2.011 -11.845,-2.9 -19.771,-6.367 -23.793,-10.389 -4.472,-4.021 -6.702,-9.383 -6.702,-16.085 0,-8.487 3.236,-15.524 9.718,-21.111 6.702,-5.137 15.415,-7.708 26.139,-7.708 11.613,0 20.887,2.571 27.814,7.708 6.477,5.587 9.938,12.849 10.388,21.781 l -14.409,0 c -4.247,0 -7.487,-1.896 -9.719,-5.696 -0.895,-0.891 -1.79,-1.786 -2.681,-2.681 -2.681,-2.011 -6.367,-3.017 -11.059,-3.017 -4.472,0 -7.822,0.671 -10.053,2.011 -2.011,1.341 -3.017,3.352 -3.017,6.032 0,3.576 5.808,6.592 17.426,9.048 1.341,0.45 2.514,0.785 3.519,1.005 1.006,0.226 1.953,0.335 2.849,0.335 11.394,2.906 19.321,6.258 23.793,10.054 4.241,4.021 6.367,9.383 6.367,16.085 0,9.834 -3.576,17.42596 -10.724,22.78696 -6.702,4.917 -16.756,7.373 -30.16,7.373 -12.733,0 -22.232,-2.565 -28.484,-7.708 -6.481,-5.137 -9.718,-12.61796 -9.718,-22.45196 l 0,-1.005 z"
         id="path89"
         style="fill:#323f49;fill-opacity:1"
         inkscape:connector-curvature="0" /><path
         d="m 703.31903,983.39567 c -4.691,-4.02096 -8.043,-9.43496 -10.054,-16.25196 -2.01,-6.812 -3.016,-13.907 -3.016,-21.279 0,-6.032 0.838,-12.064 2.514,-18.097 1.675,-6.031 4.299,-11.059 7.875,-15.079 5.807,-6.702 13.289,-10.666 22.452,-11.896 9.157,-1.226 17.426,-0.503 24.798,2.178 8.487,3.352 14.745,9.163 18.766,17.426 3.797,7.372 5.697,15.976 5.697,25.804 0,7.152 -0.785,13.294 -2.346,18.431 -1.565,5.142 -3.576,9.498 -6.032,13.069 -5.361,7.37196 -12.179,11.95396 -20.441,13.73896 -7.372,2.011 -14.803,2.178 -22.284,0.503 -7.488,-1.677 -13.462,-4.525 -17.929,-8.547 z m 16.085,-58.97796 c -4.691,5.142 -6.817,12.792 -6.367,22.955 0.445,10.168 2.346,17.258 5.697,21.279 1.34,1.79 3.687,3.299 7.037,4.523 3.352,1.23 6.755,1.341 10.221,0.335 3.461,-1.005 6.535,-3.519 9.216,-7.539 2.681,-4.021 4.131,-10.499 4.356,-19.437 0,-8.043 -1.288,-14.074 -3.854,-18.096 -2.57,-4.021 -5.528,-6.587 -8.88,-7.708 -3.351,-1.115 -6.702,-1.173 -10.054,-0.167 -3.35,1.006 -5.811,2.294 -7.372,3.855 z"
         id="path91"
         style="fill:#323f49;fill-opacity:1"
         inkscape:connector-curvature="0" /><path
         d="m 873.34806,991.43867 -23.457,0 -13.739,-63.67096 -13.739,63.67096 -23.45803,0 -24.463,-89.13896 22.787,0 14.075,61.66 12.73303,-61.66 23.793,0 12.063,61.66 12.399,-53.617 c 1.341,-5.362 4.911,-8.043 10.724,-8.043 l 14.744,0 -24.462,89.13896 z"
         id="path93"
         style="fill:#323f49;fill-opacity:1"
         inkscape:connector-curvature="0" /><path
         d="m 962.63936,987.75267 c -4.692,2.461 -9.666,3.964 -14.913,4.524 -5.251,0.555 -9.886,0.838 -13.906,0.838 -8.043,0 -15.08,-2.179 -21.112,-6.535 -6.032,-4.356 -9.048,-11.56096 -9.048,-21.61396 0,-9.383 2.733,-16.085 8.21,-20.106 5.472,-4.021 12.451,-6.702 20.944,-8.043 1.115,0 2.456,-0.167 4.021,-0.502 1.561,-0.335 3.351,-0.613 5.361,-0.838 9.828,-1.341 14.745,-4.241 14.745,-8.713 0,-3.352 -1.733,-5.529 -5.194,-6.534 -3.466,-1.006 -6.649,-1.509 -9.551,-1.509 -3.131,0 -5.922,0.45 -8.377,1.341 -2.461,0.896 -4.247,2.571 -5.362,5.026 l -22.452,0 c 0.891,-6.922 4.021,-12.619 9.383,-17.09 6.032,-5.137 14.63,-7.708 25.804,-7.708 12.509,0 21.892,2.126 28.149,6.367 6.477,4.472 9.718,10.724 9.718,18.766 l 0,30.495 c 0,8.938 -1.623,15.918 -4.859,20.944 -3.242,5.02596 -7.096,8.65996 -11.561,10.89096 z m -5.363,-41.21796 c -3.131,1.565 -7.487,3.016 -13.069,4.356 l -7.707,1.676 c -4.021,1.12 -6.928,2.57 -8.713,4.356 -1.565,2.461 -2.346,4.916 -2.346,7.372 0,3.351 1.005,6.032 3.016,8.042 2.011,1.791 4.912,2.682 8.713,2.682 6.252,0 11.169,-1.786 14.745,-5.362 3.57,-3.57 5.361,-8.487 5.361,-14.744 l 0,-8.378 z"
         id="path95"
         style="fill:#323f49;fill-opacity:1"
         inkscape:connector-curvature="0" /><g
         id="g3063"
         transform="matrix(1.5410585,0,0,1.5410585,-650.35528,114.9297)"><g
           id="text3035"
           style="font-style:normal;font-variant:normal;font-weight:bold;font-stretch:normal;font-size:1000px;line-height:125%;font-family:Harabara;-inkscape-font-specification:'Harabara Bold';letter-spacing:0px;word-spacing:0px;fill:#dba100;fill-opacity:1;stroke:none"
           transform="matrix(1.3550558,0,0,1.3550558,-191.22155,31.12899)"><path
             style="fill:#429096;fill-opacity:1"
             inkscape:connector-curvature="0"
             id="path3044"
             d="m 502.31192,289.57693 c -27.34372,0 -41.01562,13.67191 -41.01562,41.01563 l 0,66.40625 107.42187,0 0,-107.42188 -66.40625,0" /></g></g></g></g><g
     transform="matrix(0.34688695,0,0,0.34688695,904.74796,-41.317344)"
     id="g3109"><g
       id="g7"><path
         style="fill:#efcc00;stroke:#000000;stroke-width:0.25"
         inkscape:connector-curvature="0"
         id="path9"
         d="m 669.493,839.33 c 0,0 77.73,-1.643 87.614,54.105 l -36.737,0 c 0,0 -1.406,22.956 -7.073,32.791 l -50.851,-26.23 0,26.23 c 0,0 -46.654,-8.202 -48.063,-50.831 -1.41,-42.625 55.11,-36.065 55.11,-36.065 z" /><path
         style="opacity:0.82999998;fill:#fffffe"
         inkscape:connector-curvature="0"
         id="path11"
         d="m 741.172,874.399 -29.897,0.093 -3.228,31.152 -50.236,-22.996 -5.897,22.996 c 0,0 -34.352,-40.344 19.78,-59.028 42.065,-14.51 69.478,21.226 69.478,27.783" /></g><g
       id="g13"><path
         style="fill:#efcc00;stroke:#000000;stroke-width:0.25"
         inkscape:connector-curvature="0"
         id="path15"
         d="m 432.88,839.33 c 0,0 -90.176,-1.643 -101.657,54.105 l 42.629,0 c 0,0 1.642,22.956 8.2,32.791 l 59.026,-26.23 0,26.23 c 0,0 54.096,-8.202 55.738,-50.831 C 498.457,832.77 432.88,839.33 432.88,839.33 Z" /><path
         style="opacity:0.81000001;fill:#fffffe"
         inkscape:connector-curvature="0"
         id="path17"
         d="m 349.708,874.399 34.674,0.093 3.768,31.152 58.296,-22.996 6.802,22.996 c 0,0 39.878,-40.344 -22.953,-59.028 -48.789,-14.51 -80.587,21.226 -80.587,27.783" /></g><path
       style="fill:#111a1b"
       d="m 1509.4688,539.21875 c -5.8835,0.0698 -53.4103,2.20272 -67.625,51.96875 -6.4866,22.71269 -7.2995,28.09201 -7.4376,30.5625 -0.05,0.099 -0.054,4.01155 -0.1074,4.11758 -22.2149,16.61491 -30.346,39.77589 -20.5625,70.28074 0,0 9.9332,-29.14832 17.5137,-29.14832 0,0 -9.1161,86.48152 83.4062,84.96875 89.7511,0 85.1876,-84.96875 85.1876,-84.96875 9.001,0 19.8437,30.34375 19.8437,30.34375 17.1536,-46.26847 -16.2386,-63.21311 -23.4375,-75.34375 -0.069,-0.11659 -0.091,-0.17314 -0.1562,-0.28125 0.2809,-1.24688 -1.2207,-7.97806 -8.875,-30.53125 -18.0049,-53.08376 -77.1563,-51.96875 -77.1563,-51.96875 0,0 -0.2015,-0.005 -0.5937,0 z"
       transform="matrix(2.8827836,0,0,2.8827836,-3803.2249,-1285.1661)"
       id="path19"
       inkscape:connector-curvature="0"
       sodipodi:nodetypes="cccccccccccccc" /><path
       style="fill:#323f49"
       inkscape:connector-curvature="0"
       id="path21"
       d="m 763.642,612.945 c 0,0 75.42,-8.84 102.655,84.476 l 0,0 c 0,0 42.013,-76.779 -82.083,-181.573 0,0 -11.373,-251.932 -258.165,-238.991 l 0,493.492 c 0,0 214.23,49.192 237.593,-157.404 z" /><path
       style="fill:#323f49"
       inkscape:connector-curvature="0"
       id="path25"
       d="m 360.723,612.945 c 0,0 -63.484,-8.84 -86.438,84.476 l 0,0 c 0,0 -39.352,-93.315 68.865,-171.511 0,0 9.84,-261.994 217.61,-249.054 l 0,493.492 c 0,0.001 -180.36,49.193 -200.037,-157.403 z" /><path
       style="fill:#232c35"
       inkscape:connector-curvature="0"
       id="path27"
       d="M 407.429,328.822" /><path
       style="fill:#e6ebef"
       inkscape:connector-curvature="0"
       id="path29"
       d="m 440.296,545.575 c 0,0 200.042,-6.555 237.75,0 0,0 59.03,37.077 59.03,151.846 0,54.751 -37.484,156.406 -187.126,156.406 0,0 -160.482,-7.838 -160.482,-156.406 0,0 -14.757,-89.537 50.828,-151.846 z" /><path
       style="fill:#ffffff"
       inkscape:connector-curvature="0"
       id="path31"
       d="m 440.296,545.575 c 0,0 184.438,-8.606 222.584,-2.917 0,0 72.759,25.488 72.759,125.092 0,31.86 -31.716,127.052 -174.366,127.052 0,0 -173.086,1.896 -173.086,-127.052 10e-4,0 -3.494,-75.994 52.109,-122.175 z" /><path
       style="fill:#a9aeb7"
       inkscape:connector-curvature="0"
       id="path33"
       d="m 500.07,538.518 c 0,0 63.123,-27.795 126.252,0 0,0 -49.445,65.588 -63.129,65.588 -8.016,-10e-4 -43.452,-26.24 -63.123,-65.588 z" /><path
       style="fill:#020202"
       inkscape:connector-curvature="0"
       id="path35"
       d="m 486.821,538.518 c 0,0 63.128,-27.795 126.255,0 0,0 -49.448,65.588 -63.126,65.588 -8.016,-10e-4 -43.449,-26.24 -63.129,-65.588 z" /><path
       style="fill:#10191a"
       inkscape:connector-curvature="0"
       id="path37"
       d="m 559.095,427.717 c 0,0 -86.207,-40.311 -128.121,-43.207 -41.914,-2.896 -92.885,100.057 -26.388,147.948 55.681,40.112 106.678,11.248 154.228,-4.915 0,0 57.389,29.166 114.721,21.313 79.195,-10.851 104.122,-168.884 12.193,-162.323 l 0,0 c 0.001,0 -49.573,-16.206 -126.633,41.184 z" /><path
       style="fill:#ffffff"
       inkscape:connector-curvature="0"
       id="path39"
       d="m 546.082,454.001 c 0,0 -107.577,-42.632 -124.23,-45.911 0,0 -37.866,72.143 31.77,101.654 -0.001,0 66.097,22.956 92.46,-55.743 z" /><path
       style="fill:#ffffff"
       inkscape:connector-curvature="0"
       id="path41"
       d="m 699.466,406.547 c 0,0 -108.63,39.906 -123.232,48.563 0,0 19.857,79.009 91.436,54.621 -10e-4,0 64.564,-26.922 31.796,-103.184 z" /><path
       style="fill:#5a6464"
       inkscape:connector-curvature="0"
       id="path43"
       d="m 430.974,383.072 c 0,0 79.833,20.891 124.61,44.266 0,0 98.999,-42.242 130.145,-42.242 l 0,0 c 0,0 -0.609,-100.404 -136.703,-100.404 0,-0.001 -118.052,8.198 -118.052,98.38 z" /><path
       style="fill:#efcc00;stroke:#000000;stroke-width:0.25"
       inkscape:connector-curvature="0"
       id="path45"
       d="m 486.821,526.171 c 0,0 63.128,-27.8 126.255,0 0,0 -49.448,65.585 -63.126,65.585 -8.016,0 -43.449,-26.236 -63.129,-65.585 z" /><path
       style="fill:#10191a"
       inkscape:connector-curvature="0"
       id="path47"
       d="m 520.769,454.961 c 0,15.252 -12.374,27.617 -27.643,27.617 -15.245,0 -27.618,-12.365 -27.618,-27.617 0,-15.245 12.374,-27.623 27.618,-27.623 15.27,0 27.643,12.378 27.643,27.623 z" /><path
       style="fill:#10191a"
       inkscape:connector-curvature="0"
       id="path49"
       d="m 659.627,454.961 c 0,15.252 -12.373,27.617 -27.618,27.617 -15.27,0 -27.644,-12.365 -27.644,-27.617 0,-15.245 12.374,-27.623 27.644,-27.623 15.245,0 27.618,12.378 27.618,27.623 z" /><path
       style="fill:#ffffff"
       inkscape:connector-curvature="0"
       id="path51"
       d="m 520.769,446.131 c 0,5.258 -4.252,9.51 -9.477,9.51 -5.254,0 -9.507,-4.252 -9.507,-9.51 0,-5.25 4.253,-9.502 9.507,-9.502 5.225,0 9.477,4.252 9.477,9.502 z" /><path
       style="fill:#ffffff"
       inkscape:connector-curvature="0"
       id="path53"
       d="m 650.098,436.642 c 0,5.242 -4.278,9.489 -9.507,9.489 -5.249,0 -9.504,-4.247 -9.504,-9.489 0,-5.266 4.255,-9.517 9.504,-9.517 5.229,0 9.507,4.251 9.507,9.517 z" /><path
       style="fill:#ffffff"
       inkscape:connector-curvature="0"
       id="path55"
       d="m 553.332,532.239 c 0,0 -29.515,-4.915 -44.271,8.201 l 31.155,33.791 13.116,-41.992 z" /><path
       style="fill:#5a6464"
       inkscape:connector-curvature="0"
       id="path57"
       d="m 343.15,525.91 c 0,0 21.007,-13.101 29.364,0 8.351,13.11 -96.59,83.973 -98.229,171.511 0,0 -1.921,9.315 -4.397,-15.498 -2.473,-24.814 -16.917,-90.412 73.262,-156.013 z" /><path
       style="fill:#5a6464"
       inkscape:connector-curvature="0"
       id="path59"
       d="m 784.214,515.848 c 0,0 -15.447,-3.038 -24.544,10.062 -9.12,13.11 105.25,83.973 107.037,171.511 0,0 2.078,9.315 4.792,-15.498 2.689,-24.814 10.989,-100.475 -87.285,-166.075 z" /></g><g
     style="font-style:normal;font-variant:normal;font-weight:bold;font-stretch:normal;font-size:171px;line-height:125%;font-family:Harabara;-inkscape-font-specification:'Harabara Bold';letter-spacing:0px;word-spacing:0px;fill:#ffffff;fill-opacity:1;stroke:none"
     id="text3032"
     transform="matrix(1.5410585,0,0,1.5410585,-125.41099,-876.35081)"><g
       style="font-size:160px;font-family:Harabara;-inkscape-font-specification:'Harabara Bold'"
       id="text3041"><g
         style="font-style:normal;font-weight:normal;font-size:178.44877625px;line-height:125%;font-family:sans-serif;letter-spacing:0px;word-spacing:0px;fill:#000000;fill-opacity:1;stroke:none;stroke-width:1px;stroke-linecap:butt;stroke-linejoin:miter;stroke-opacity:1"
         id="text3384"><flowRoot
           xml:space="preserve"
           id="flowRoot63"
           style="fill:black;stroke:none;stroke-opacity:1;stroke-width:1px;stroke-linejoin:miter;stroke-linecap:butt;fill-opacity:1;font-family:sans-serif;font-style:normal;font-weight:normal;font-size:5px;line-height:125%;letter-spacing:0px;word-spacing:0px"><flowRegion
             id="flowRegion65"><rect
               id="rect67"
               width="188.94905"
               height="168.2641"
               x="38.983173"
               y="63.75013" /></flowRegion><flowPara
             id="flowPara69"></flowPara></flowRoot><text
           xml:space="preserve"
           style="font-style:normal;font-weight:normal;font-size:3.24452305px;line-height:125%;font-family:sans-serif;letter-spacing:0px;word-spacing:0px;fill:#000000;fill-opacity:1;stroke:none;stroke-width:0.64890462px;stroke-linecap:butt;stroke-linejoin:miter;stroke-opacity:1"
           x="127.68342"
           y="620.75891"
           id="text73"><tspan
             sodipodi:role="line"
             id="tspan71"
             x="127.68342"
             y="623.62958"
             style="stroke-width:0.64890462px"></tspan></text>
<flowRoot
           xml:space="preserve"
           id="flowRoot75"
           style="font-style:normal;font-weight:normal;font-size:5px;line-height:125%;font-family:sans-serif;letter-spacing:6.23695469px;word-spacing:0px;fill:#000000;fill-opacity:1;stroke:none;stroke-width:1px;stroke-linecap:butt;stroke-linejoin:miter;stroke-opacity:1"
           transform="matrix(0.84034236,0,0,0.84161622,67.908199,627.95531)"><flowRegion
             id="flowRegion77"
             style="letter-spacing:6.23695469px"><rect
               id="rect79"
               width="162.27342"
               height="70.302757"
               x="41.767685"
               y="60.17004"
               style="letter-spacing:6.23695469px"
               ry="0" /></flowRegion><flowPara
             id="flowPara81"
             style="font-style:normal;font-variant:normal;font-weight:normal;font-stretch:normal;font-size:192px;font-family:Harabara;-inkscape-font-specification:Harabara;letter-spacing:6.23695469px;fill:#ffffff">16</flowPara></flowRoot></g></g></g></svg>