<svg id="Layer_1" data-name="Layer 1" xmlns="http://www.w3.org/2000/svg" viewBox="0 0 393.03 159.62"><defs><style>.cls-1{fill:#0039ff;}</style></defs><title>logo</title><path class="cls-1" d="M79.53,47.81l-2.78,7.46c15.29,1.52,26,12.94,26,28.27C102.79,100,90.24,112,73,112H55.61l-2.88,7.73H73c21.76,0,37.56-15.22,37.56-36.18C110.52,64.67,97.82,50.47,79.53,47.81Z"/><path class="cls-1" d="M47.63,104.54V47.63H76c1.2,0,2.37.07,3.52.18l2.78-7.45a44.49,44.49,0,0,0-6.3-.45H39.91v72.35H55.5l2.88-7.72Z"/><path class="cls-1" d="M86.62,78.23,75.14,59.58l-3.42,9.18L79.86,82a9,9,0,0,1,1,4.19,9.06,9.06,0,0,1-17.16,4.06l-3.14,8.41a16.79,16.79,0,0,0,28-12.47A16.9,16.9,0,0,0,86.62,78.23Z"/><path class="cls-1" d="M71.48,81.07a4.68,4.68,0,1,0,4.67,4.67H71.48Z"/><path d="M148.49,58.3h-14.8v43.12h14.8c13.7,0,22.22-8.27,22.22-21.56S162.19,58.3,148.49,58.3Zm14.8,21.56c0,9.93-5.58,15.41-15.71,15.41h-6.65V64.51h6.65C157.71,64.51,163.29,70,163.29,79.86Z"/><path d="M189.79,72.86c-3.2,0-5.71,1.22-7.14,3.42V73.34H176v28.08h6.81v-14c0-5.37,2-8,6-8h3.56V73.1L192,73A13.83,13.83,0,0,0,189.79,72.86Z"/><path d="M209.88,72.61a14.77,14.77,0,1,0,15,14.74C224.86,79,218.42,72.61,209.88,72.61Zm8,14.74c0,5-3.35,8.7-8,8.7s-8-3.66-8-8.7,3.36-8.65,8-8.65S217.86,82.34,217.86,87.35Z"/><path d="M245.9,72.61a11.69,11.69,0,0,0-8.83,3.83v-3.1h-6.81v38.59h6.81V98.41a11.49,11.49,0,0,0,8.71,3.73c8.22,0,14.19-6.22,14.19-14.79S254.05,72.61,245.9,72.61ZM253,87.35c0,5.08-3.38,8.76-8,8.76s-8-3.68-8-8.76,3.38-8.71,8-8.71S253,82.3,253,87.35Z"/><path d="M315.79,78.7a7.25,7.25,0,0,1,6.59,3.78l.19.35,5.93-3-.2-.37c-2.22-4.14-7.13-6.81-12.51-6.81a14.77,14.77,0,1,0,0,29.53c5.38,0,10.29-2.67,12.51-6.8l.2-.38-5.93-3-.19.35a7.26,7.26,0,0,1-6.59,3.77c-4.66,0-7.92-3.55-7.92-8.64S311.2,78.7,315.79,78.7Z"/><path d="M344.47,72.61a17.49,17.49,0,0,0-11.21,3.79l-.27.24,3.28,5.16.36-.29a12.14,12.14,0,0,1,7.42-2.81c2,0,5.26.52,5.26,4v.43c0,.76-.26,1.27-1.52,1.27h-5.86c-6.42,0-10.26,3.27-10.26,8.76s4,9,10.26,9c2.44,0,5.49-.74,7.38-2.76v2h6.87V82.82C356.18,76.52,351.69,72.61,344.47,72.61Zm4.84,16.76V91c0,4.1-3.16,5.57-6.11,5.57-3.26,0-4.42-2-4.42-3.64,0-2.7,2.41-3.26,4.42-3.26h3.62A7.4,7.4,0,0,0,349.31,89.37Z"/><polygon points="293.88 62.37 293.19 62.37 292.27 62.37 291.28 62.37 291.17 62.76 291.09 62.76 291.09 63.04 289.35 69.17 292.27 69.17 293.19 69.17 293.88 69.17 294.86 69.17 295.79 69.17 297.72 62.37 296.8 62.37 293.88 62.37"/><path d="M274.9,62.34H268v11h-4.37L262,79.12h6v16.2c0,6.4,5.81,6.4,7.72,6.4,1.53,0,3.41-.14,4.45-.23l.12-.43.12-.43.27-.95.84-3,.36-1.27-.3,0a35.94,35.94,0,0,1-4.35.31c-1.65,0-2.36-.54-2.36-1.82V79.12h13.72v22.3h6.82V73.34H274.9Z"/></svg>