<?xml version="1.0" encoding="UTF-8" standalone="no"?>
<svg
   xmlns:dc="http://purl.org/dc/elements/1.1/"
   xmlns:cc="http://creativecommons.org/ns#"
   xmlns:rdf="http://www.w3.org/1999/02/22-rdf-syntax-ns#"
   xmlns:svg="http://www.w3.org/2000/svg"
   xmlns="http://www.w3.org/2000/svg"
   xmlns:sodipodi="http://sodipodi.sourceforge.net/DTD/sodipodi-0.dtd"
   xmlns:inkscape="http://www.inkscape.org/namespaces/inkscape"
   viewBox="0 0 315.42657 55.862297"
   height="55.862297"
   width="315.42657"
   xml:space="preserve"
   id="svg2"
   version="1.1"
   inkscape:version="0.91 r13725"
   sodipodi:docname="logo-gl.svg"><sodipodi:namedview
     pagecolor="#ffffff"
     bordercolor="#666666"
     borderopacity="1"
     objecttolerance="10"
     gridtolerance="10"
     guidetolerance="10"
     inkscape:pageopacity="0"
     inkscape:pageshadow="2"
     inkscape:window-width="2560"
     inkscape:window-height="1377"
     id="namedview21"
     showgrid="false"
     fit-margin-top="0"
     fit-margin-left="0"
     fit-margin-right="0"
     fit-margin-bottom="0"
     inkscape:zoom="1.3822761"
     inkscape:cx="309.99543"
     inkscape:cy="32.797326"
     inkscape:window-x="-8"
     inkscape:window-y="-8"
     inkscape:window-maximized="1"
     inkscape:current-layer="svg2" /><metadata
     id="metadata8"><rdf:RDF><cc:Work
         rdf:about=""><dc:format>image/svg+xml</dc:format><dc:type
           rdf:resource="http://purl.org/dc/dcmitype/StillImage" /><dc:title></dc:title></cc:Work></rdf:RDF></metadata><defs
     id="defs6" /><g
     transform="matrix(1.6148096,0,0,-1.6148096,-6.30785e-4,55.862287)"
     id="g10"><g
       transform="scale(0.1,0.1)"
       id="g12"><path
         id="path14"
         style="fill:#3c3a3e;fill-opacity:1;fill-rule:nonzero;stroke:none"
         d="m 122.484,187.102 85.961,0 c -11.132,-39.543 -47.433,-68.606 -90.472,-68.606 -51.766,0 -93.9847,42.188 -93.9847,94.047 0,51.824 42.2187,94.039 93.9847,94.039 39.195,0 72.828,-24.109 86.937,-58.266 l 25.516,0 C 215.234,295.957 170.59,330.52 117.973,330.52 52.9766,330.52 0.00390625,277.609 0.00390625,212.543 0.00390625,147.461 52.9766,94.5313 117.973,94.5313 c 37.168,0 71.754,18.6447 91.965,45.6247 l 0,-40.5349 21.843,0 0,111.0669 -109.297,0 0,-23.586"
         inkscape:connector-curvature="0" /><path
         id="path16"
         style="fill:#3c3a3e;fill-opacity:1;fill-rule:nonzero;stroke:none"
         d="m 271.66,99.6211 23.5195,0 0,223.563 -23.5195,0 z"
         inkscape:connector-curvature="0" /><path
         id="path18"
         style="fill:#3c3a3e;fill-opacity:1;fill-rule:nonzero;stroke:none"
         d="m 966.941,99.9023 23.5508,0 0,223.297 -23.5508,0 z"
         inkscape:connector-curvature="0" /><path
         id="path20"
         style="fill:#3c3a3e;fill-opacity:1;fill-rule:nonzero;stroke:none"
         d="m 417.855,272.297 c -49.296,0 -89.355,-40.039 -89.355,-89.328 0,-49.266 40.059,-89.2971 89.355,-89.2971 49.235,0 89.352,40.0901 89.352,89.3081 0,49.278 -40.117,89.317 -89.352,89.317 m 0,-156.484 c -36.179,0 -65.535,31.074 -65.535,67.156 0,36.168 29.356,66.988 65.535,66.988 36.094,0 65.528,-30.82 65.528,-66.977 0,-36.093 -29.434,-67.167 -65.528,-67.167"
         inkscape:connector-curvature="0" /><path
         id="path22"
         style="fill:#3c3a3e;fill-opacity:1;fill-rule:nonzero;stroke:none"
         d="m 624.848,273.957 c -26.45,0 -50.137,-11.652 -66.59,-30.047 l 0,79.289 -23.516,0 0,-223.5779 23.516,0 0,22.4689 c 16.453,-18.387 40.14,-29.9884 66.59,-29.9884 49.64,0 89.925,40.6644 89.925,90.8784 0,50.235 -40.285,90.977 -89.925,90.977 m -0.996,-158.144 c -36.207,0 -65.567,31.074 -65.567,67.167 0,36.157 29.36,66.977 65.567,66.977 36.125,0 65.496,-30.82 65.496,-66.977 0,-36.093 -29.371,-67.167 -65.496,-67.167"
         inkscape:connector-curvature="0" /><path
         id="path24"
         style="fill:#3c3a3e;fill-opacity:1;fill-rule:nonzero;stroke:none"
         d="m 902.016,243.578 c -16.661,18.61 -40.75,30.379 -67.703,30.379 -50.243,0 -90.958,-40.742 -90.958,-90.977 0,-50.214 40.715,-90.8784 90.958,-90.898 26.953,0 51.042,11.766 67.703,30.332 l 0,-22.7929 23.781,0 0,163.7149 -23.781,0 z m -65.7,-127.68 c -36.117,0 -65.531,31.086 -65.531,67.219 0,36.137 29.414,66.965 65.531,66.965 36.168,0 65.52,-30.828 65.52,-66.965 0,-36.125 -29.352,-67.219 -65.52,-67.219"
         inkscape:connector-curvature="0" /><path
         id="path26"
         style="fill:#3c3a3e;fill-opacity:1;fill-rule:nonzero;stroke:none"
         d="m 1609.87,306.41 41.7383,0 0,39.5273 -41.7383,0 z"
         inkscape:connector-curvature="0" /><path
         id="path28"
         style="fill:#3c3a3e;fill-opacity:1;fill-rule:nonzero;stroke:none"
         d="m 1074.43,323.199 -38.22,0 0,-223.3748 125.25,0 0,35.9178 -87.03,0 0,187.457"
         inkscape:connector-curvature="0" /><path
         id="path30"
         style="fill:#3c3a3e;fill-opacity:1;fill-rule:nonzero;stroke:none"
         d="m 1609.87,100.137 41.7383,0 0,175.449 -41.7383,0 z"
         inkscape:connector-curvature="0" /><path
         id="path32"
         style="fill:#3c3a3e;fill-opacity:1;fill-rule:nonzero;stroke:none"
         d="m 1267.4,276.176 c -50.6,0 -91.68,-41.039 -91.68,-91.664 0,-50.625 41.08,-91.6214 91.68,-91.6214 50.58,0 91.6,40.9964 91.6,91.6214 0,50.625 -41.02,91.664 -91.6,91.664 m 0,-145.883 c -27.9,0 -50.6,24.289 -50.6,54.23 0,29.926 22.7,54.2 50.6,54.2 27.91,0 50.58,-24.274 50.58,-54.2 0,-29.941 -22.67,-54.23 -50.58,-54.23"
         inkscape:connector-curvature="0" /><path
         id="path34"
         style="fill:#3c3a3e;fill-opacity:1;fill-rule:nonzero;stroke:none"
         d="m 1825.59,159.824 c -8.35,-17.781 -25.46,-29.98 -45.25,-29.98 -27.93,0 -50.61,24.367 -50.61,54.308 0,32.684 22.68,54.258 50.61,54.258 18.84,0 35.3,-11.047 44.01,-27.371 l 43.7,0 c -11.43,37.527 -46.39,64.859 -87.71,64.859 -50.61,0 -91.77,-41.082 -91.77,-91.804 0,-50.598 41.16,-91.6917 91.77,-91.6917 42.25,0 77.72,28.5747 88.41,67.4217 l -43.16,0"
         inkscape:connector-curvature="0" /><path
         id="path36"
         style="fill:#3c3a3e;fill-opacity:1;fill-rule:nonzero;stroke:none"
         d="m 1471.17,39.1797 c -18.67,0 -36.56,9.8047 -47.41,24.5117 L 1386.7,45.6445 C 1404.2,18.2031 1433.41,-0.0390625 1471.17,0 c 48.87,0 88.87,38.6445 92.82,85.4805 l -41.91,0 c -3.6,-26.1719 -25.01,-46.3008 -50.91,-46.3008"
         inkscape:connector-curvature="0" /><path
         id="path38"
         style="fill:#3c3a3e;fill-opacity:1;fill-rule:nonzero;stroke:none"
         d="m 1526.71,257.316 c -15.09,10.903 -33.55,17.454 -53.61,17.454 -50.37,0 -91.28,-40.86 -91.28,-91.313 0,-50.41 40.91,-91.2382 91.28,-91.2382 50.36,0 91.09,40.6332 91.31,90.8472 l 0,92.368 -37.7,0 z M 1473.1,129.434 c -27.8,0 -50.37,24.269 -50.37,54.054 0,29.813 22.57,53.996 50.37,53.996 27.89,0 50.49,-24.168 50.49,-53.996 0,-29.785 -22.6,-54.054 -50.49,-54.054"
         inkscape:connector-curvature="0" /><path
         id="path40"
         style="fill:#3a3a3c;fill-opacity:1;fill-rule:nonzero;stroke:none"
         d="m 1924.09,308.008 6.02,0 c 3.02,0 4.57,1.547 4.57,3.871 0,2.238 -1.47,3.789 -4.48,3.789 l -6.11,0 z m -5.26,12.047 12.48,0 c 4.92,0 8.61,-3.008 8.61,-7.575 0,-3.093 -1.62,-5.503 -5.41,-6.449 l 0,-0.09 c 3.09,-0.769 4.13,-2.324 4.47,-5.589 0.43,-3.7 0.43,-6.454 1.29,-6.797 l 0,-0.43 -5.17,0 c -0.77,0.348 -0.87,3.184 -1.11,6.285 -0.18,2.918 -1.82,4.555 -5.09,4.555 l -4.81,0 0,-10.84 -5.26,0 z m 30.73,-13.684 c 0,12.652 -8.85,21.945 -20.91,21.945 -11.96,0 -20.82,-9.293 -20.82,-21.945 0,-12.558 8.86,-21.766 20.82,-21.766 12.06,0 20.91,9.208 20.91,21.766 z m -45.69,0 c 0,14.547 11.02,25.215 24.78,25.215 13.78,0 24.69,-10.668 24.69,-25.215 0,-14.453 -10.91,-25.121 -24.69,-25.121 -13.76,0 -24.78,10.668 -24.78,25.121"
         inkscape:connector-curvature="0" /></g></g></svg>